<svg width="24" height="24" viewBox="0 0 24 24" fill="none" xmlns="http://www.w3.org/2000/svg">
<path d="M16.0382 10.0985C16.0382 10.0985 15.8387 10.526 16.3517 10.697L19.1729 11.1814H19.2869L22.0796 11.7514C22.4786 11.7514 22.5641 11.3239 22.5641 11.3239L22.7066 10.127C22.7066 10.127 20.9682 9.78505 19.5434 9.52858C19.1159 9.41459 16.5511 9.01562 16.2947 9.01562L16.0382 10.0985Z" fill="#0980A5"/>
<path d="M11.4498 6.70725C9.85396 6.73575 8.17262 6.73575 7.46018 6.70725C7.46018 6.70725 7.14671 6.70725 7.14671 7.04922C7.11821 7.39119 7.20371 8.13212 7.20371 8.13212C7.20371 8.13212 1.64671 9.15803 0.905777 9.24352C0.905777 9.24352 0.820285 8.84456 0.934275 8.55959C1.04826 8.24611 1.53272 6.59326 2.8721 5.31088C2.8721 5.31088 5.43687 4.42746 7.85915 4.17098C9.31251 4.0285 10.6519 4 11.6493 4H12.1338C13.1027 4 14.442 4.0285 15.8954 4.17098C18.3177 4.42746 20.8825 5.31088 20.8825 5.31088C22.2218 6.56477 22.7063 8.24611 22.8203 8.53109C22.9343 8.84456 22.8488 9.21503 22.8488 9.21503C22.1079 9.12953 16.5509 8.10363 16.5509 8.10363C16.5509 8.10363 16.6079 7.36269 16.6079 7.02073C16.5794 6.67876 16.2944 6.67876 16.2944 6.67876C15.5819 6.70725 13.9006 6.70725 12.2762 6.67876L11.4498 6.70725Z" fill="#0980A5"/>
<path d="M7.71527 10.0438C7.71527 10.0438 7.91475 10.4713 7.4018 10.6423L4.58055 11.0982H4.46656L1.67382 11.6682C1.27485 11.6682 1.18936 11.2407 1.18936 11.2407L1.04688 10.0438C1.04688 10.0438 2.78522 9.70187 4.21009 9.44539C4.60905 9.3599 7.17382 8.96094 7.4303 8.96094L7.71527 10.0438Z" fill="#0980A5"/>
<path d="M3.47005 16.0566H1.93119C1.53222 16.0566 1.21875 15.7431 1.21875 15.3442V13.6343C1.21875 13.2353 1.53222 12.9219 1.93119 12.9219H3.49854C3.89751 12.9219 4.21098 13.2353 4.21098 13.6343V15.3442C4.21098 15.7431 3.86901 16.0566 3.47005 16.0566Z" fill="#0980A5"/>
<path d="M5.77979 20.4433H4.21244C3.81347 20.4433 3.5 20.1298 3.5 19.7309V18.021C3.5 17.6221 3.81347 17.3086 4.21244 17.3086H5.77979C6.17876 17.3086 6.49223 17.6221 6.49223 18.021V19.7309C6.49223 20.1298 6.17876 20.4433 5.77979 20.4433Z" fill="#0980A5"/>
<path d="M8.14307 16.0566H6.57572C6.17675 16.0566 5.86328 15.7431 5.86328 15.3442V13.6343C5.86328 13.2353 6.17675 12.9219 6.57572 12.9219H8.14307C8.54204 12.9219 8.85551 13.2353 8.85551 13.6343V15.3442C8.85551 15.7431 8.54204 16.0566 8.14307 16.0566Z" fill="#0980A5"/>
<path d="M12.7017 16.0566H11.1343C10.7353 16.0566 10.4219 15.7431 10.4219 15.3442V13.6343C10.4219 13.2353 10.7353 12.9219 11.1343 12.9219H12.7017C13.1006 12.9219 13.4141 13.2353 13.4141 13.6343V15.3442C13.4141 15.7431 13.1006 16.0566 12.7017 16.0566Z" fill="#0980A5"/>
<path d="M15.0111 20.3847H8.59915C8.20019 20.3847 7.88672 20.0712 7.88672 19.6723V17.9624C7.88672 17.5635 8.20019 17.25 8.59915 17.25H15.0111C15.41 17.25 15.7235 17.5635 15.7235 17.9624V19.6723C15.7235 20.0712 15.41 20.3847 15.0111 20.3847Z" fill="#0980A5"/>
<path d="M17.2357 16.0566H15.6968C15.2978 16.0566 14.9844 15.7431 14.9844 15.3442V13.6343C14.9844 13.2353 15.2978 12.9219 15.6968 12.9219H17.2642C17.6631 12.9219 17.9766 13.2353 17.9766 13.6343V15.3442C17.9766 15.7431 17.6346 16.0566 17.2357 16.0566Z" fill="#0980A5"/>
<path d="M21.6235 16.0527H20.0562C19.6572 16.0527 19.3438 15.7392 19.3438 15.3402V13.6304C19.3438 13.2314 19.6572 12.918 20.0562 12.918H21.6235C22.0225 12.918 22.336 13.2314 22.336 13.6304V15.3402C22.336 15.7392 22.0225 16.0527 21.6235 16.0527Z" fill="#0980A5"/>
<path d="M19.4868 20.4433H17.9195C17.5205 20.4433 17.207 20.1298 17.207 19.7309V18.021C17.207 17.6221 17.5205 17.3086 17.9195 17.3086H19.4868C19.8858 17.3086 20.1993 17.6221 20.1993 18.021V19.7309C20.2278 20.1298 19.8858 20.4433 19.4868 20.4433Z" fill="#0980A5"/>
</svg>
