<svg width="24" height="24" viewBox="0 0 24 24" fill="none" xmlns="http://www.w3.org/2000/svg">
<path d="M12.58 15.9378C11.9679 15.9378 11.3559 15.743 10.8551 15.3535L5.625 11.2084V2H19.1455V11.2084L14.3883 15.2979C13.8597 15.7152 13.2198 15.9378 12.58 15.9378ZM6.3205 10.9024L11.3003 14.825C12.0792 15.437 13.192 15.437 13.971 14.7693L18.45 10.9024V2.66768H6.3205V10.9024Z" fill="#0980A5"/>
<path d="M17.3648 4.42188H8.60156V5.08955H17.3648V4.42188Z" fill="#0980A5"/>
<path d="M17.3921 5.94922H7.26562V6.6169H17.3921V5.94922Z" fill="#0980A5"/>
<path d="M17.478 7.64844H7.35156V8.31611H17.478V7.64844Z" fill="#0980A5"/>
<path d="M15.6961 9.23438H7.43359V9.90205H15.6961V9.23438Z" fill="#0980A5"/>
<path d="M21.4833 9.50884L18.8125 7.39453V11.2893L14.1666 15.2397C13.9441 15.4345 13.6937 15.5736 13.4155 15.6849L20.593 21.5548L4.3184 21.4714L11.9689 15.7683C11.6628 15.6849 11.3568 15.5179 11.0786 15.2954L5.98759 11.2615V7.58927L3.28906 9.53666V22H21.5111V9.50884H21.4833ZM3.98456 10.1765H4.12366L10.9117 15.7127L3.98456 20.8872V10.1765ZM20.8434 20.915L14.3057 15.5458L20.6765 10.1765H20.8434V20.915Z" fill="#0980A5"/>
</svg>
