<svg width="24" height="24" viewBox="0 0 24 24" fill="none" xmlns="http://www.w3.org/2000/svg">
<g clip-path="url(#clip0_1310_14759)">
<path d="M13.7104 8.45596C13.7104 8.45596 14.0601 8.61917 14.2 8.19948L14.5964 5.89119V5.79793L15.0627 3.51295C15.0627 3.18653 14.7129 3.11658 14.7129 3.11658L13.7337 3C13.7337 3 13.4539 4.42228 13.244 5.58808C13.1741 5.91451 12.8477 8.01295 12.8477 8.2228L13.7104 8.45596Z" fill="#0980A5"/>
<path d="M11.215 12.3516C11.2383 13.6573 11.2383 15.033 11.215 15.6159C11.215 15.6159 11.215 15.8723 11.4948 15.8723C11.7746 15.8956 12.3808 15.8257 12.3808 15.8257C12.3808 15.8257 13.2202 20.349 13.2902 20.9785C13.2902 20.9785 12.9637 21.0485 12.7306 20.9552C12.4741 20.862 11.1218 20.4656 10.0725 19.3697C10.0725 19.3697 9.34974 17.2713 9.1399 15.2894C9.02332 14.1003 9 13.0045 9 12.2117V11.8153C9 11.0226 9.02332 9.92674 9.1399 8.73762C9.34974 6.73243 10.0725 4.63399 10.0725 4.63399C11.0984 3.53813 12.4741 3.14176 12.7073 3.0485C12.9637 2.95523 13.2668 3.02518 13.2668 3.02518C13.1969 3.6314 12.3575 8.17803 12.3575 8.17803C12.3575 8.17803 11.7513 8.1314 11.4715 8.1314C11.1917 8.15471 11.1917 8.38788 11.1917 8.38788C11.215 8.97078 11.215 10.3464 11.1917 11.6754L11.215 12.3516Z" fill="#0980A5"/>
<path d="M13.64 15.5703C13.64 15.5703 13.9898 15.4071 14.1297 15.8268L14.526 18.1351V18.2283L14.9924 20.5133C14.9924 20.8397 14.6426 20.9097 14.6426 20.9097L13.6634 21.0029C13.6634 21.0029 13.3836 19.5807 13.1737 18.4149C13.1038 18.0884 12.7773 15.99 12.7773 15.7801L13.64 15.5703Z" fill="#0980A5"/>
</g>
<defs>
<clipPath id="clip0_1310_14759">
<rect width="6.03886" height="18" fill="white" transform="translate(9 3)"/>
</clipPath>
</defs>
</svg>
