<svg width="57" height="18" viewBox="0 0 57 18" fill="none" xmlns="http://www.w3.org/2000/svg">
<rect width="57" height="18" rx="9" fill="#DBEBFF"/>
<path d="M8.9165 4.71973C10.1141 4.71973 10.988 4.96517 11.5381 5.45605C12.0882 5.94694 12.3633 6.6346 12.3633 7.51904C12.3633 7.92106 12.2998 8.30404 12.1729 8.66797C12.0501 9.02767 11.847 9.34717 11.5635 9.62646C11.2799 9.90153 10.9054 10.1195 10.4399 10.2803C9.97868 10.4411 9.40951 10.5215 8.73242 10.5215H7.74219V14H6.21875V4.71973H8.9165ZM8.81494 5.98291H7.74219V9.25195H8.57373C9.05192 9.25195 9.45817 9.19694 9.79248 9.08691C10.1268 8.97266 10.3807 8.79281 10.5542 8.54736C10.7277 8.30192 10.8145 7.97819 10.8145 7.57617C10.8145 7.03874 10.6515 6.63883 10.3257 6.37646C10.0041 6.1141 9.50049 5.98291 8.81494 5.98291ZM19.4727 14H14.2168V4.71973H19.4727V6.00195H15.7402V8.52197H19.2378V9.79785H15.7402V12.7114H19.4727V14ZM24.0874 4.71973C24.8872 4.71973 25.5474 4.81706 26.0679 5.01172C26.5926 5.20638 26.9819 5.5026 27.2358 5.90039C27.494 6.29818 27.623 6.80387 27.623 7.41748C27.623 7.87451 27.5384 8.26383 27.3691 8.58545C27.1999 8.90706 26.9777 9.17367 26.7026 9.38525C26.4276 9.59684 26.1335 9.76611 25.8203 9.89307L28.4546 14H26.7344L24.4937 10.2803H23.002V14H21.4785V4.71973H24.0874ZM23.9858 5.98926H23.002V9.02344H24.0557C24.7624 9.02344 25.2744 8.89225 25.5918 8.62988C25.9134 8.36751 26.0742 7.98031 26.0742 7.46826C26.0742 6.93083 25.9028 6.54997 25.5601 6.32568C25.2215 6.1014 24.6968 5.98926 23.9858 5.98926ZM33.7866 14L31.1143 6.24951H31.0571C31.0698 6.42301 31.0846 6.65999 31.1016 6.96045C31.1185 7.2609 31.1333 7.58252 31.146 7.92529C31.1587 8.26807 31.165 8.59603 31.165 8.90918V14H29.7812V4.71973H31.9204L34.4912 12.1274H34.5293L37.189 4.71973H39.3218V14H37.8682V8.83301C37.8682 8.54948 37.8724 8.24268 37.8809 7.9126C37.8936 7.58252 37.9062 7.26937 37.9189 6.97314C37.9359 6.67692 37.9486 6.43994 37.957 6.26221H37.9062L35.1323 14H33.7866ZM41.7656 14V4.71973H43.2891V14H41.7656ZM51.0967 11.4736C51.0967 12.0238 50.9613 12.4977 50.6904 12.8955C50.4238 13.2933 50.0387 13.598 49.5352 13.8096C49.0358 14.0212 48.4391 14.127 47.7451 14.127C47.4066 14.127 47.0828 14.1079 46.7739 14.0698C46.465 14.0317 46.173 13.9767 45.8979 13.9048C45.6271 13.8286 45.3796 13.7376 45.1553 13.6318V12.1973C45.5319 12.3623 45.953 12.5125 46.4185 12.6479C46.884 12.7791 47.3579 12.8447 47.8403 12.8447C48.2339 12.8447 48.5597 12.7939 48.8179 12.6924C49.0802 12.5866 49.2749 12.4385 49.4019 12.248C49.5288 12.0534 49.5923 11.827 49.5923 11.5688C49.5923 11.2938 49.5182 11.061 49.3701 10.8706C49.222 10.6802 48.9977 10.5067 48.6973 10.3501C48.401 10.1893 48.0286 10.0179 47.5801 9.83594C47.2754 9.71322 46.9834 9.57357 46.7041 9.41699C46.429 9.26042 46.1836 9.07633 45.9678 8.86475C45.752 8.65316 45.5806 8.40348 45.4536 8.11572C45.3309 7.82373 45.2695 7.48096 45.2695 7.0874C45.2695 6.56266 45.3944 6.1141 45.644 5.7417C45.8979 5.3693 46.2534 5.08366 46.7104 4.88477C47.1717 4.68587 47.7091 4.58643 48.3228 4.58643C48.8094 4.58643 49.2664 4.63721 49.6938 4.73877C50.1255 4.84033 50.5487 4.98421 50.9634 5.17041L50.481 6.39551C50.1001 6.23893 49.7298 6.1141 49.3701 6.021C49.0146 5.9279 48.6507 5.88135 48.2783 5.88135C47.9567 5.88135 47.6838 5.93001 47.4595 6.02734C47.2352 6.12467 47.0638 6.26221 46.9453 6.43994C46.8311 6.61344 46.7739 6.8208 46.7739 7.06201C46.7739 7.33285 46.8395 7.56136 46.9707 7.74756C47.1061 7.92952 47.3135 8.09668 47.5928 8.24902C47.8763 8.40137 48.2402 8.57064 48.6846 8.75684C49.1966 8.96842 49.6304 9.19059 49.9858 9.42334C50.3455 9.65609 50.6206 9.93538 50.811 10.2612C51.0015 10.5828 51.0967 10.987 51.0967 11.4736Z" fill="#0F3869"/>
</svg>
