<svg width="40" height="18" viewBox="0 0 40 18" fill="none" xmlns="http://www.w3.org/2000/svg">
<rect width="40" height="18" rx="9" fill="#9747FF"/>
<path d="M13.9629 14H12.0903L7.54541 6.59229H7.48828C7.50521 6.84196 7.52002 7.10645 7.53271 7.38574C7.54964 7.66504 7.56234 7.9528 7.5708 8.24902C7.5835 8.54525 7.59408 8.8457 7.60254 9.15039V14H6.21875V4.71973H8.07861L12.6172 12.0767H12.6616C12.6532 11.8608 12.6426 11.6133 12.6299 11.334C12.6172 11.0547 12.6045 10.7669 12.5918 10.4707C12.5833 10.1702 12.577 9.88037 12.5728 9.60107V4.71973H13.9629V14ZM21.6562 14H16.4004V4.71973H21.6562V6.00195H17.9238V8.52197H21.4214V9.79785H17.9238V12.7114H21.6562V14ZM34.6372 4.71973L32.2124 14H30.5493L29.0005 8.43945C28.9624 8.30404 28.9201 8.14323 28.8735 7.95703C28.827 7.77083 28.7804 7.5804 28.7339 7.38574C28.6916 7.19108 28.6535 7.01335 28.6196 6.85254C28.59 6.6875 28.5688 6.56055 28.5562 6.47168C28.5477 6.56055 28.5286 6.68538 28.499 6.84619C28.4694 7.007 28.4334 7.18473 28.3911 7.37939C28.353 7.56982 28.3107 7.76025 28.2642 7.95068C28.2176 8.13688 28.1753 8.30192 28.1372 8.4458L26.6138 14H24.957L22.5386 4.71973H24.0684L25.4077 10.1597C25.45 10.3332 25.4924 10.5215 25.5347 10.7246C25.5812 10.9235 25.6235 11.1245 25.6616 11.3276C25.7039 11.5308 25.742 11.7297 25.7759 11.9243C25.8097 12.1147 25.8372 12.2882 25.8584 12.4448C25.8796 12.284 25.9071 12.1063 25.9409 11.9116C25.9748 11.7127 26.0107 11.5117 26.0488 11.3086C26.0911 11.1012 26.1335 10.9023 26.1758 10.7119C26.2223 10.5215 26.2689 10.3501 26.3154 10.1978L27.8262 4.71973H29.3115L30.854 10.2168C30.9006 10.3734 30.945 10.549 30.9873 10.7437C31.0339 10.9383 31.0783 11.1372 31.1206 11.3403C31.1629 11.5435 31.201 11.7402 31.2349 11.9307C31.2687 12.1211 31.2962 12.2925 31.3174 12.4448C31.347 12.2375 31.3851 12.0005 31.4316 11.7339C31.4782 11.4673 31.5311 11.1965 31.5903 10.9214C31.6496 10.6463 31.7088 10.3924 31.7681 10.1597L33.1011 4.71973H34.6372Z" fill="white"/>
</svg>
