<svg width="61" height="18" viewBox="0 0 61 18" fill="none" xmlns="http://www.w3.org/2000/svg">
<rect width="61" height="18" rx="9" fill="#9747FF"/>
<path d="M13.5059 4.71973V10.7246C13.5059 11.3721 13.3683 11.9518 13.0933 12.4639C12.8224 12.9759 12.4119 13.3822 11.8618 13.6826C11.3117 13.9788 10.6198 14.127 9.78613 14.127C8.59701 14.127 7.69141 13.8159 7.06934 13.1938C6.4515 12.5675 6.14258 11.736 6.14258 10.6992V4.71973H7.66602V10.5659C7.66602 11.3403 7.84798 11.9116 8.21191 12.2798C8.57585 12.6479 9.11963 12.832 9.84326 12.832C10.3426 12.832 10.7489 12.7453 11.062 12.5718C11.3794 12.394 11.6121 12.1359 11.7603 11.7974C11.9126 11.4546 11.9888 11.042 11.9888 10.5596V4.71973H13.5059ZM18.5776 4.71973C19.7752 4.71973 20.6491 4.96517 21.1992 5.45605C21.7493 5.94694 22.0244 6.6346 22.0244 7.51904C22.0244 7.92106 21.9609 8.30404 21.834 8.66797C21.7113 9.02767 21.5081 9.34717 21.2246 9.62646C20.9411 9.90153 20.5666 10.1195 20.1011 10.2803C19.6398 10.4411 19.0706 10.5215 18.3936 10.5215H17.4033V14H15.8799V4.71973H18.5776ZM18.4761 5.98291H17.4033V9.25195H18.2349C18.7131 9.25195 19.1193 9.19694 19.4536 9.08691C19.7879 8.97266 20.0418 8.79281 20.2153 8.54736C20.3888 8.30192 20.4756 7.97819 20.4756 7.57617C20.4756 7.03874 20.3127 6.63883 19.9868 6.37646C19.6652 6.1141 19.1616 5.98291 18.4761 5.98291ZM31.4126 9.271C31.4126 10.3162 31.2179 11.1901 30.8286 11.8926C30.4393 12.5908 29.8743 13.1177 29.1338 13.4731C28.3932 13.8244 27.5003 14 26.4551 14H23.8779V4.71973H26.7344C27.695 4.71973 28.5244 4.89323 29.2227 5.24023C29.9209 5.58301 30.4604 6.09294 30.8413 6.77002C31.2222 7.44287 31.4126 8.27653 31.4126 9.271ZM29.8257 9.31543C29.8257 8.55371 29.7051 7.92741 29.4639 7.43652C29.2269 6.94564 28.8757 6.58171 28.4102 6.34473C27.9489 6.10352 27.3797 5.98291 26.7026 5.98291H25.4014V12.7241H26.4805C27.6019 12.7241 28.4398 12.4385 28.9941 11.8672C29.5485 11.2959 29.8257 10.4453 29.8257 9.31543ZM39.1631 14L38.2554 11.4229H34.707L33.7993 14H32.1934L35.6465 4.68164H37.335L40.7817 14H39.1631ZM37.8618 10.1152L36.9795 7.57617C36.9456 7.46615 36.897 7.31169 36.8335 7.11279C36.77 6.90967 36.7065 6.70443 36.6431 6.49707C36.5796 6.28548 36.5267 6.10775 36.4844 5.96387C36.4421 6.13737 36.3892 6.33203 36.3257 6.54785C36.2664 6.75944 36.2072 6.95833 36.1479 7.14453C36.0929 7.33073 36.0506 7.47461 36.021 7.57617L35.1323 10.1152H37.8618ZM45.2251 14H43.6953V6.01465H40.9785V4.71973H47.9355V6.01465H45.2251V14ZM54.6133 14H49.3574V4.71973H54.6133V6.00195H50.8809V8.52197H54.3784V9.79785H50.8809V12.7114H54.6133V14Z" fill="white"/>
</svg>
