<svg width="40" height="18" viewBox="0 0 40 18" fill="none" xmlns="http://www.w3.org/2000/svg">
<rect width="40" height="18" rx="9" fill="#DFF2C9"/>
<path d="M7.72949 14H6.21875V4.71973H11.4619V6.00195H7.72949V8.89648H11.2207V10.1724H7.72949V14ZM15.7593 4.71973C16.5591 4.71973 17.2192 4.81706 17.7397 5.01172C18.2645 5.20638 18.6538 5.5026 18.9077 5.90039C19.1659 6.29818 19.2949 6.80387 19.2949 7.41748C19.2949 7.87451 19.2103 8.26383 19.041 8.58545C18.8717 8.90706 18.6496 9.17367 18.3745 9.38525C18.0994 9.59684 17.8053 9.76611 17.4922 9.89307L20.1265 14H18.4062L16.1655 10.2803H14.6738V14H13.1504V4.71973H15.7593ZM15.6577 5.98926H14.6738V9.02344H15.7275C16.4342 9.02344 16.9463 8.89225 17.2637 8.62988C17.5853 8.36751 17.7461 7.98031 17.7461 7.46826C17.7461 6.93083 17.5747 6.54997 17.2319 6.32568C16.8934 6.1014 16.3687 5.98926 15.6577 5.98926ZM26.709 14H21.4531V4.71973H26.709V6.00195H22.9766V8.52197H26.4741V9.79785H22.9766V12.7114H26.709V14ZM33.9707 14H28.7148V4.71973H33.9707V6.00195H30.2383V8.52197H33.7358V9.79785H30.2383V12.7114H33.9707V14Z" fill="#1C2E0D"/>
</svg>
