<svg width="57" height="18" viewBox="0 0 57 18" fill="none" xmlns="http://www.w3.org/2000/svg">
<rect width="57" height="18" rx="9" fill="#DBEBFF"/>
<path d="M8.9165 4.71973C10.1141 4.71973 10.988 4.96517 11.5381 5.45605C12.0882 5.94694 12.3633 6.6346 12.3633 7.51904C12.3633 7.92106 12.2998 8.30404 12.1729 8.66797C12.0501 9.02767 11.847 9.34717 11.5635 9.62646C11.2799 9.90153 10.9054 10.1195 10.4399 10.2803C9.97868 10.4411 9.40951 10.5215 8.73242 10.5215H7.74219V14H6.21875V4.71973H8.9165ZM8.81494 5.98291H7.74219V9.25195H8.57373C9.05192 9.25195 9.45817 9.19694 9.79248 9.08691C10.1268 8.97266 10.3807 8.79281 10.5542 8.54736C10.7277 8.30192 10.8145 7.97819 10.8145 7.57617C10.8145 7.03874 10.6515 6.63883 10.3257 6.37646C10.0041 6.1141 9.50049 5.98291 8.81494 5.98291ZM19.4727 14H14.2168V4.71973H19.4727V6.00195H15.7402V8.52197H19.2378V9.79785H15.7402V12.7114H19.4727V14ZM24.0874 4.71973C24.8872 4.71973 25.5474 4.81706 26.0679 5.01172C26.5926 5.20638 26.9819 5.5026 27.2358 5.90039C27.494 6.29818 27.623 6.80387 27.623 7.41748C27.623 7.87451 27.5384 8.26383 27.3691 8.58545C27.1999 8.90706 26.9777 9.17367 26.7026 9.38525C26.4276 9.59684 26.1335 9.76611 25.8203 9.89307L28.4546 14H26.7344L24.4937 10.2803H23.002V14H21.4785V4.71973H24.0874ZM23.9858 5.98926H23.002V9.02344H24.0557C24.7624 9.02344 25.2744 8.89225 25.5918 8.62988C25.9134 8.36751 26.0742 7.98031 26.0742 7.46826C26.0742 6.93083 25.9028 6.54997 25.5601 6.32568C25.2215 6.1014 24.6968 5.98926 23.9858 5.98926ZM33.7866 14L31.1143 6.24951H31.0571C31.0698 6.42301 31.0846 6.65999 31.1016 6.96045C31.1185 7.2609 31.1333 7.58252 31.146 7.92529C31.1587 8.26807 31.165 8.59603 31.165 8.90918V14H29.7812V4.71973H31.9204L34.4912 12.1274H34.5293L37.189 4.71973H39.3218V14H37.8682V8.83301C37.8682 8.54948 37.8724 8.24268 37.8809 7.9126C37.8936 7.58252 37.9062 7.26937 37.9189 6.97314C37.9359 6.67692 37.9486 6.43994 37.957 6.26221H37.9062L35.1323 14H33.7866ZM41.7656 14V4.71973H43.2891V14H41.7656ZM48.9575 14H47.4277V6.01465H44.7109V4.71973H51.668V6.01465H48.9575V14Z" fill="#0F3869"/>
</svg>
