<svg width="72" height="18" viewBox="0 0 72 18" fill="none" xmlns="http://www.w3.org/2000/svg">
<rect width="72" height="18" rx="9" fill="#DFF2C9"/>
<path d="M9.96387 8.95996H13.4297V13.6191C12.943 13.7799 12.4395 13.9048 11.9189 13.9937C11.3984 14.0825 10.8145 14.127 10.167 14.127C9.22331 14.127 8.4235 13.9408 7.76758 13.5684C7.11589 13.1917 6.62077 12.6479 6.28223 11.937C5.94368 11.2218 5.77441 10.3607 5.77441 9.35352C5.77441 8.38444 5.96273 7.54443 6.33936 6.8335C6.71598 6.11833 7.264 5.56608 7.9834 5.17676C8.7028 4.7832 9.57454 4.58643 10.5986 4.58643C11.1022 4.58643 11.5889 4.63721 12.0586 4.73877C12.5326 4.8361 12.9663 4.97152 13.3599 5.14502L12.8267 6.40186C12.5135 6.25374 12.1623 6.12891 11.7729 6.02734C11.3836 5.92578 10.9795 5.875 10.5605 5.875C9.89616 5.875 9.32275 6.01888 8.84033 6.30664C8.36214 6.5944 7.99398 7.00065 7.73584 7.52539C7.4777 8.0459 7.34863 8.66162 7.34863 9.37256C7.34863 10.0623 7.45231 10.6675 7.65967 11.188C7.86702 11.7085 8.19076 12.1147 8.63086 12.4067C9.0752 12.6945 9.6486 12.8384 10.3511 12.8384C10.7023 12.8384 11.0007 12.8193 11.2461 12.7812C11.4915 12.7432 11.7179 12.7008 11.9253 12.6543V10.2612H9.96387V8.95996ZM18.2603 4.71973C19.0601 4.71973 19.7202 4.81706 20.2407 5.01172C20.7655 5.20638 21.1548 5.5026 21.4087 5.90039C21.6668 6.29818 21.7959 6.80387 21.7959 7.41748C21.7959 7.87451 21.7113 8.26383 21.542 8.58545C21.3727 8.90706 21.1506 9.17367 20.8755 9.38525C20.6004 9.59684 20.3063 9.76611 19.9932 9.89307L22.6274 14H20.9072L18.6665 10.2803H17.1748V14H15.6514V4.71973H18.2603ZM18.1587 5.98926H17.1748V9.02344H18.2285C18.9352 9.02344 19.4473 8.89225 19.7646 8.62988C20.0863 8.36751 20.2471 7.98031 20.2471 7.46826C20.2471 6.93083 20.0757 6.54997 19.7329 6.32568C19.3944 6.1014 18.8696 5.98926 18.1587 5.98926ZM29.7051 14L28.7974 11.4229H25.249L24.3413 14H22.7354L26.1885 4.68164H27.877L31.3237 14H29.7051ZM28.4038 10.1152L27.5215 7.57617C27.4876 7.46615 27.439 7.31169 27.3755 7.11279C27.312 6.90967 27.2485 6.70443 27.1851 6.49707C27.1216 6.28548 27.0687 6.10775 27.0264 5.96387C26.984 6.13737 26.9312 6.33203 26.8677 6.54785C26.8084 6.75944 26.7492 6.95833 26.6899 7.14453C26.6349 7.33073 26.5926 7.47461 26.563 7.57617L25.6743 10.1152H28.4038ZM35.7671 14H34.2373V6.01465H31.5205V4.71973H38.4775V6.01465H35.7671V14ZM47.1865 4.71973V10.7246C47.1865 11.3721 47.049 11.9518 46.7739 12.4639C46.5031 12.9759 46.0926 13.3822 45.5425 13.6826C44.9924 13.9788 44.3005 14.127 43.4668 14.127C42.2777 14.127 41.3721 13.8159 40.75 13.1938C40.1322 12.5675 39.8232 11.736 39.8232 10.6992V4.71973H41.3467V10.5659C41.3467 11.3403 41.5286 11.9116 41.8926 12.2798C42.2565 12.6479 42.8003 12.832 43.5239 12.832C44.0233 12.832 44.4295 12.7453 44.7427 12.5718C45.0601 12.394 45.2928 12.1359 45.4409 11.7974C45.5933 11.4546 45.6694 11.042 45.6694 10.5596V4.71973H47.1865ZM49.5605 14V4.71973H51.084V14H49.5605ZM56.7524 14H55.2227V6.01465H52.5059V4.71973H59.4629V6.01465H56.7524V14ZM63.9189 4.12305L63.665 6.54785L66.1025 5.85596L66.293 7.20801L64.0142 7.41113L65.4932 9.38525L64.2617 10.0518L63.189 7.92529L62.2305 10.0454L60.9482 9.38525L62.4146 7.41113L60.1484 7.20166L60.3643 5.85596L62.7573 6.54785L62.5034 4.12305H63.9189Z" fill="#1C2E0D"/>
</svg>
