<svg width="24" height="24" viewBox="0 0 24 24" fill="none" xmlns="http://www.w3.org/2000/svg">
<circle cx="12" cy="12" r="12" fill="#FEE482"/>
<path d="M19.2739 17.7167L12.5629 5.63707C12.4409 5.45405 12.2579 5.33203 12.0139 5.33203C11.7698 5.33203 11.5868 5.45405 11.4648 5.63707L4.75386 17.7167C4.50982 18.1438 4.81487 18.6319 5.30293 18.6319H18.7248C19.2129 18.6319 19.4569 18.1438 19.2739 17.7167Z" fill="#8F7200"/>
<path fill-rule="evenodd" clip-rule="evenodd" d="M11.6114 8.74479C11.7384 8.68886 11.8757 8.66003 12.0145 8.66016C12.1532 8.66018 12.2903 8.68912 12.4172 8.74512C12.5441 8.80112 12.6579 8.88294 12.7514 8.98539C12.8449 9.08783 12.916 9.20863 12.9602 9.34009C13.0044 9.47155 13.0207 9.61078 13.0081 9.74889L12.6102 14.1279C12.5948 14.2751 12.5253 14.4114 12.4153 14.5105C12.3053 14.6095 12.1625 14.6643 12.0145 14.6643C11.8665 14.6643 11.7237 14.6095 11.6137 14.5105C11.5036 14.4114 11.4342 14.2751 11.4187 14.1279L11.0198 9.74889C11.0071 9.61069 11.0235 9.47137 11.0677 9.33983C11.112 9.2083 11.1832 9.08744 11.2768 8.98498C11.3704 8.88252 11.4844 8.80072 11.6114 8.74479ZM12.6328 17.1489C12.4688 17.3129 12.2464 17.405 12.0145 17.405C11.7826 17.405 11.5601 17.3129 11.3961 17.1489C11.2321 16.9849 11.14 16.7625 11.14 16.5306C11.14 16.2986 11.2321 16.0762 11.3961 15.9122C11.5601 15.7482 11.7826 15.6561 12.0145 15.6561C12.2464 15.6561 12.4688 15.7482 12.6328 15.9122C12.7968 16.0762 12.889 16.2986 12.889 16.5306C12.889 16.7625 12.7968 16.9849 12.6328 17.1489Z" fill="white"/>
</svg>
