<svg width="24" height="24" viewBox="0 0 24 24" fill="none" xmlns="http://www.w3.org/2000/svg">
<path fill-rule="evenodd" clip-rule="evenodd" d="M11.3952 5.12716C11.586 5.04312 11.7923 4.99981 12.0008 5C12.2092 5.00004 12.4153 5.04352 12.6059 5.12766C12.7966 5.21179 12.9676 5.33474 13.1081 5.48866C13.2486 5.64259 13.3554 5.8241 13.4218 6.02162C13.4882 6.21914 13.5127 6.42833 13.4938 6.63586L12.8959 13.2154C12.8727 13.4366 12.7684 13.6414 12.6031 13.7902C12.4378 13.9391 12.2232 14.0214 12.0008 14.0214C11.7784 14.0214 11.5639 13.9391 11.3986 13.7902C11.2333 13.6414 11.1289 13.4366 11.1057 13.2154L10.5062 6.63586C10.4872 6.42819 10.5118 6.21886 10.5783 6.02123C10.6448 5.82359 10.7518 5.642 10.8925 5.48806C11.0331 5.33411 11.2043 5.2112 11.3952 5.12716ZM12.9299 17.7546C12.6835 18.001 12.3493 18.1394 12.0008 18.1394C11.6523 18.1394 11.3181 18.001 11.0717 17.7546C10.8253 17.5081 10.6869 17.1739 10.6869 16.8255C10.6869 16.477 10.8253 16.1428 11.0717 15.8964C11.3181 15.65 11.6523 15.5115 12.0008 15.5115C12.3493 15.5115 12.6835 15.65 12.9299 15.8964C13.1763 16.1428 13.3148 16.477 13.3148 16.8255C13.3148 17.1739 13.1763 17.5081 12.9299 17.7546Z" fill="white"/>
<path d="M22.9457 19.6083L12.8624 1.45833C12.679 1.18333 12.404 1 12.0374 1C11.6707 1 11.3957 1.18333 11.2124 1.45833L1.12905 19.6083C0.762382 20.25 1.22072 20.9833 1.95405 20.9833H22.1207C22.854 20.9833 23.2207 20.25 22.9457 19.6083Z" fill="#D30F1D"/>
<path fill-rule="evenodd" clip-rule="evenodd" d="M11.4323 6.12716C11.6231 6.04312 11.8294 5.99981 12.0379 6C12.2463 6.00004 12.4524 6.04352 12.6431 6.12766C12.8337 6.21179 13.0047 6.33474 13.1452 6.48866C13.2857 6.64259 13.3925 6.8241 13.4589 7.02162C13.5253 7.21914 13.5498 7.42833 13.5309 7.63586L12.9331 14.2154C12.9098 14.4366 12.8055 14.6414 12.6402 14.7902C12.4749 14.9391 12.2604 15.0214 12.0379 15.0214C11.8155 15.0214 11.601 14.9391 11.4357 14.7902C11.2704 14.6414 11.1661 14.4366 11.1428 14.2154L10.5433 7.63586C10.5244 7.42819 10.5489 7.21886 10.6154 7.02123C10.6819 6.82359 10.7889 6.642 10.9296 6.48806C11.0702 6.33411 11.2415 6.2112 11.4323 6.12716ZM12.967 18.7546C12.7206 19.001 12.3864 19.1394 12.0379 19.1394C11.6895 19.1394 11.3552 19.001 11.1088 18.7546C10.8624 18.5081 10.724 18.1739 10.724 17.8255C10.724 17.477 10.8624 17.1428 11.1088 16.8964C11.3552 16.65 11.6895 16.5115 12.0379 16.5115C12.3864 16.5115 12.7206 16.65 12.967 16.8964C13.2134 17.1428 13.3519 17.477 13.3519 17.8255C13.3519 18.1739 13.2134 18.5081 12.967 18.7546Z" fill="white"/>
</svg>
