<svg width="24" height="24" viewBox="0 0 24 24" fill="none" xmlns="http://www.w3.org/2000/svg">
<g clip-path="url(#clip0_455_5854)">
<path d="M22.9086 19.6083L12.8253 1.45833C12.6419 1.18333 12.3669 1 12.0003 1C11.6336 1 11.3586 1.18333 11.1753 1.45833L1.09194 19.6083C0.725273 20.25 1.18361 20.9833 1.91694 20.9833H22.0836C22.8169 20.9833 23.1836 20.25 22.9086 19.6083Z" fill="#B58800"/>
<path fill-rule="evenodd" clip-rule="evenodd" d="M11.3952 6.12716C11.586 6.04312 11.7923 5.99981 12.0008 6C12.2092 6.00004 12.4153 6.04352 12.6059 6.12766C12.7966 6.21179 12.9676 6.33474 13.1081 6.48866C13.2486 6.64259 13.3554 6.8241 13.4218 7.02162C13.4882 7.21914 13.5127 7.42833 13.4938 7.63586L12.8959 14.2154C12.8727 14.4366 12.7684 14.6414 12.6031 14.7902C12.4378 14.9391 12.2232 15.0214 12.0008 15.0214C11.7784 15.0214 11.5639 14.9391 11.3986 14.7902C11.2333 14.6414 11.1289 14.4366 11.1057 14.2154L10.5062 7.63586C10.4872 7.42819 10.5118 7.21886 10.5783 7.02123C10.6448 6.82359 10.7518 6.642 10.8925 6.48806C11.0331 6.33411 11.2043 6.2112 11.3952 6.12716ZM12.9299 18.7546C12.6835 19.001 12.3493 19.1394 12.0008 19.1394C11.6523 19.1394 11.3181 19.001 11.0717 18.7546C10.8253 18.5081 10.6869 18.1739 10.6869 17.8255C10.6869 17.477 10.8253 17.1428 11.0717 16.8964C11.3181 16.65 11.6523 16.5115 12.0008 16.5115C12.3493 16.5115 12.6835 16.65 12.9299 16.8964C13.1763 17.1428 13.3148 17.477 13.3148 17.8255C13.3148 18.1739 13.1763 18.5081 12.9299 18.7546Z" fill="white"/>
</g>
<defs>
<clipPath id="clip0_455_5854">
<rect width="22" height="22" fill="white" transform="translate(1)"/>
</clipPath>
</defs>
</svg>
