<svg width="24" height="24" viewBox="0 0 24 24" fill="none" xmlns="http://www.w3.org/2000/svg">
<circle cx="12" cy="12" r="12" fill="#A0CBFF"/>
<rect x="4.66797" y="4.66797" width="14.6667" height="14.6667" rx="7.33333" fill="#0057B8"/>
<path d="M11.9529 9.1987C12.4683 9.1987 12.8862 8.78083 12.8862 8.26536C12.8862 7.7499 12.4683 7.33203 11.9529 7.33203C11.4374 7.33203 11.0195 7.7499 11.0195 8.26536C11.0195 8.78083 11.4374 9.1987 11.9529 9.1987Z" fill="white"/>
<path d="M13.9987 15.6654H12.6654V10.332H10.6654C10.4886 10.332 10.319 10.4023 10.194 10.5273C10.0689 10.6523 9.9987 10.8219 9.9987 10.9987C9.9987 11.1755 10.0689 11.3451 10.194 11.4701C10.319 11.5951 10.4886 11.6654 10.6654 11.6654H11.332V15.6654H9.9987C9.82189 15.6654 9.65232 15.7356 9.52729 15.8606C9.40227 15.9856 9.33203 16.1552 9.33203 16.332C9.33203 16.5088 9.40227 16.6784 9.52729 16.8034C9.65232 16.9285 9.82189 16.9987 9.9987 16.9987H13.9987C14.1755 16.9987 14.3451 16.9285 14.4701 16.8034C14.5951 16.6784 14.6654 16.5088 14.6654 16.332C14.6654 16.1552 14.5951 15.9856 14.4701 15.8606C14.3451 15.7356 14.1755 15.6654 13.9987 15.6654Z" fill="white"/>
</svg>
