<svg width="24" height="24" viewBox="0 0 24 24" fill="none" xmlns="http://www.w3.org/2000/svg">
<rect x="1" y="1" width="22" height="22" rx="11" fill="#3E89ED"/>
<path d="M11.9293 7.8C12.7025 7.8 13.3293 7.1732 13.3293 6.4C13.3293 5.6268 12.7025 5 11.9293 5C11.1561 5 10.5293 5.6268 10.5293 6.4C10.5293 7.1732 11.1561 7.8 11.9293 7.8Z" fill="white"/>
<path d="M15 17.4995H13V9.49951H10C9.73478 9.49951 9.48043 9.60487 9.29289 9.79241C9.10536 9.97994 9 10.2343 9 10.4995C9 10.7647 9.10536 11.0191 9.29289 11.2066C9.48043 11.3942 9.73478 11.4995 10 11.4995H11V17.4995H9C8.73478 17.4995 8.48043 17.6049 8.29289 17.7924C8.10536 17.9799 8 18.2343 8 18.4995C8 18.7647 8.10536 19.0191 8.29289 19.2066C8.48043 19.3942 8.73478 19.4995 9 19.4995H15C15.2652 19.4995 15.5196 19.3942 15.7071 19.2066C15.8946 19.0191 16 18.7647 16 18.4995C16 18.2343 15.8946 17.9799 15.7071 17.7924C15.5196 17.6049 15.2652 17.4995 15 17.4995Z" fill="white"/>
</svg>
