<svg width="24" height="24" viewBox="0 0 24 24" fill="none" xmlns="http://www.w3.org/2000/svg">
<path d="M17.4 3.43129C20.7203 6.7435 20.9248 12.0473 17.8694 15.6041L11.5161 23L5.16288 15.6041C2.10747 12.0473 2.31196 6.7435 5.63221 3.43129C8.88181 0.189569 14.1505 0.189569 17.4 3.43129Z" fill="#B91818"/>
<path fill-rule="evenodd" clip-rule="evenodd" d="M13.6181 13.6367L13.0671 11.8279H10.2967L9.7457 13.6367H8.00962L10.6917 6.00633H12.6617L15.3542 13.6367H13.6181ZM12.6825 10.4765C12.1731 8.83741 11.8863 7.91047 11.8222 7.69562C11.7581 7.48078 11.7122 7.31099 11.6845 7.18624C11.5701 7.62979 11.2427 8.72652 10.7021 10.4765H12.6825Z" fill="white"/>
</svg>
