<svg width="977" height="637" viewBox="0 0 977 637" fill="none" xmlns="http://www.w3.org/2000/svg">
<path fill-rule="evenodd" clip-rule="evenodd" d="M803.704 302.849C803.704 327.136 823.372 346.819 847.652 346.819L1022.86 346.819L1022.86 358.676L847.652 358.676C816.816 358.676 791.847 333.678 791.847 302.849L791.847 0.493317L803.704 0.493318L803.704 302.849Z" fill="#C7332F" stroke="#143258" stroke-width="3"/>
<path fill-rule="evenodd" clip-rule="evenodd" d="M788.883 301.861C788.883 334.606 815.413 361.147 848.154 361.147L1021.87 361.147L1021.87 373.004L848.154 373.004C808.861 373.004 777.026 341.151 777.026 301.861L777.026 0.494175L788.883 0.494177L788.883 301.861Z" fill="#7ABC41" stroke="#143258" stroke-width="3"/>
<path fill-rule="evenodd" clip-rule="evenodd" d="M774.556 302.356C774.556 342.468 807.046 374.981 847.152 374.981L1022.07 374.981L1022.07 386.838L847.152 386.838C800.492 386.838 762.699 349.011 762.699 302.356L762.699 0.000820572L774.556 0.000822116L774.556 302.356Z" fill="#AB862D" stroke="#143258" stroke-width="3"/>
<path fill-rule="evenodd" clip-rule="evenodd" d="M759.734 302.849C759.734 350.602 798.404 389.307 846.15 389.307L1021.87 389.307L1021.87 401.164L846.15 401.164C791.848 401.164 747.877 357.143 747.877 302.849L747.877 -0.000237475L759.734 -0.000235932L759.734 302.849Z" fill="#0A9FD9" stroke="#143258" stroke-width="3"/>
<path fill-rule="evenodd" clip-rule="evenodd" d="M866.451 333.757C866.451 309.469 846.784 289.787 822.503 289.787L-15.9545 289.787L-15.9545 277.93L822.503 277.93C853.339 277.93 878.308 302.928 878.308 333.757L878.308 636.112L866.451 636.112L866.451 333.757Z" fill="#AC5B8C" stroke="#143258" stroke-width="3"/>
<path fill-rule="evenodd" clip-rule="evenodd" d="M880.978 334.762C880.978 302.017 854.447 275.476 821.707 275.476L-47 275.476L-47 263.619L821.707 263.619C860.999 263.619 892.835 295.472 892.835 334.762L892.835 636.129L880.978 636.129L880.978 334.762Z" fill="#6E6F73" stroke="#143258" stroke-width="3"/>
<path fill-rule="evenodd" clip-rule="evenodd" d="M895.6 334.249C895.6 294.137 863.11 261.625 823.003 261.625L-5.84611 261.625L-5.84611 249.768L823.003 249.768C869.664 249.768 907.457 287.594 907.457 334.249L907.457 636.605L895.6 636.605L895.6 334.249Z" fill="#2457A7" stroke="#143258" stroke-width="3"/>
<path d="M845.257 307.803C844.95 306.261 843.96 305.639 842.488 305.025C840.059 304.193 837.518 303.738 834.952 303.676C832.386 303.738 829.845 304.193 827.416 305.025C825.935 305.639 824.954 306.261 824.647 307.803L823.561 316.346V328.115H825.471V329.963C825.471 330.18 825.514 330.394 825.596 330.594C825.679 330.794 825.8 330.975 825.953 331.128C826.106 331.281 826.288 331.403 826.488 331.485C826.688 331.568 826.902 331.611 827.118 331.611C827.335 331.611 827.549 331.568 827.749 331.485C827.949 331.403 828.13 331.281 828.283 331.128C828.436 330.975 828.557 330.794 828.64 330.594C828.723 330.394 828.766 330.18 828.766 329.963V328.115H841.165V329.963C841.165 330.4 841.338 330.819 841.647 331.128C841.956 331.437 842.375 331.611 842.812 331.611C843.249 331.611 843.668 331.437 843.977 331.128C844.286 330.819 844.459 330.4 844.459 329.963V328.115H846.343V316.346L845.257 307.803ZM830.255 305.831H839.649C839.832 305.831 840.008 305.904 840.138 306.034C840.268 306.164 840.341 306.34 840.341 306.524C840.341 306.707 840.268 306.883 840.138 307.013C840.008 307.143 839.832 307.216 839.649 307.216H830.255C830.072 307.216 829.896 307.143 829.766 307.013C829.636 306.883 829.563 306.707 829.563 306.524C829.563 306.34 829.636 306.164 829.766 306.034C829.896 305.904 830.072 305.831 830.255 305.831ZM827.066 324.426C826.752 324.425 826.445 324.332 826.184 324.158C825.923 323.983 825.719 323.735 825.6 323.444C825.48 323.154 825.449 322.835 825.511 322.527C825.573 322.219 825.725 321.936 825.947 321.715C826.17 321.493 826.453 321.343 826.762 321.283C827.07 321.223 827.389 321.255 827.679 321.377C827.968 321.498 828.215 321.703 828.389 321.965C828.562 322.227 828.653 322.534 828.652 322.848C828.649 323.267 828.481 323.669 828.184 323.964C827.887 324.26 827.485 324.426 827.066 324.426ZM834.812 317.249H826.461C825.637 317.249 825.471 316.653 825.585 316.057L826.461 309.871C826.584 309.109 826.838 308.618 827.811 308.618H842.146C843.119 308.618 843.373 309.109 843.495 309.871L844.372 316.057C844.451 316.653 844.284 317.249 843.495 317.249H834.812ZM842.838 324.426C842.524 324.427 842.216 324.335 841.954 324.162C841.692 323.988 841.487 323.741 841.366 323.45C841.245 323.16 841.213 322.841 841.274 322.532C841.334 322.224 841.486 321.94 841.708 321.718C841.93 321.496 842.214 321.344 842.522 321.284C842.831 321.223 843.15 321.255 843.441 321.376C843.731 321.497 843.978 321.702 844.152 321.964C844.326 322.226 844.417 322.534 844.416 322.848C844.413 323.266 844.246 323.666 843.951 323.961C843.656 324.256 843.256 324.423 842.838 324.426Z" fill="white"/>
</svg>
