<svg width="114" height="87" viewBox="0 0 114 87" fill="none" xmlns="http://www.w3.org/2000/svg">
<path d="M80.5 39C80.5 49.2299 72.4286 57.5 62.5 57.5C52.5714 57.5 44.5 49.2299 44.5 39C44.5 28.7701 52.5714 20.5 62.5 20.5C72.4286 20.5 80.5 28.7701 80.5 39Z" stroke="#009DDB"/>
<circle cx="47" cy="51" r="14" fill="#009DDB" fill-opacity="0.25"/>
<circle cx="12" cy="59" r="4" fill="#B38F00"/>
<circle cx="18" cy="83" r="3.5" stroke="#B38F00" stroke-opacity="0.25"/>
<circle cx="22" cy="9" r="4" fill="#65A233"/>
<circle cx="4" cy="17" r="3.5" stroke="#65A233" stroke-opacity="0.25"/>
<circle cx="92" cy="13" r="4" fill="#009DDB"/>
<circle cx="84" cy="4" r="3.5" stroke="#009DDB" stroke-opacity="0.25"/>
<circle cx="95" cy="79" r="4" fill="#D30F1D"/>
<circle cx="110" cy="49" r="3.5" stroke="#D30F1D" stroke-opacity="0.25"/>
<path d="M47.8983 80.5L62.5 56.9489L77.1017 80.5H47.8983Z" stroke="#D30F1D"/>
<path d="M70 62L85 87H55L70 62Z" fill="#D30F1D" fill-opacity="0.25"/>
<path d="M38.4495 9.56782L68.366 1.62383L72.4147 16.8709L42.4982 24.8149L38.4495 9.56782Z" stroke="#6D6E70"/>
<path d="M20.465 32L18 27.0044L20.465 22H35.4867L38 27.0044L35.4867 32H20.465Z" fill="#1A559B" fill-opacity="0.25"/>
<path d="M13.465 39L11 34.0044L13.465 29H28.4867L31 34.0044L28.4867 39H13.465Z" fill="#1A559B"/>
<path d="M103 54.5C103 56.9833 100.758 59 98.4473 59H91.5527C89.2415 58.9921 87 56.9833 87 54.5C87 52.0167 89.2415 50 91.5527 50H98.4473C100.758 50 103 52.0167 103 54.5Z" fill="#AC5B8C"/>
<path d="M39 75.5C39 77.9833 36.7585 80 34.4473 80H27.5527C25.2415 79.9921 23 77.9833 23 75.5C23 73.0167 25.2415 71 27.5527 71H34.4473C36.7585 71 39 73.0167 39 75.5Z" fill="#AC5B8C" fill-opacity="0.25"/>
</svg>
