<svg width="187" height="152" viewBox="0 0 187 152" fill="none" xmlns="http://www.w3.org/2000/svg">
<circle cx="61" cy="106" r="8" fill="#B38F00"/>
<circle cx="68" cy="106" r="8" fill="#B38F00" fill-opacity="0.25"/>
<circle cx="8" cy="8" r="8" fill="#65A233"/>
<circle cx="16" cy="8" r="8" fill="#65A233" fill-opacity="0.25"/>
<circle cx="156" cy="26" r="8" fill="#009DDB"/>
<circle cx="164" cy="26" r="8" fill="#009DDB" fill-opacity="0.25"/>
<circle cx="159" cy="128" r="8" fill="#D30F1D"/>
<circle cx="169" cy="128" r="8" fill="#D30F1D" fill-opacity="0.25"/>
<path d="M98.5 143.5H127.816V158.5H98.5V143.5Z" stroke="#6D6E70" stroke-opacity="0.25"/>
<path d="M117.316 143H87V159H117.316V143Z" fill="#6D6E70"/>
<path d="M70.6552 63.3506H42.9574L38.5574 54.4333L42.9576 45.5H70.655L75.1415 54.4333L70.6552 63.3506Z" stroke="#1A559B" stroke-opacity="0.25"/>
<path d="M32.6465 63.8506L27.9999 54.4335L32.6465 45H60.9634L65.7011 54.4335L60.9634 63.8506H32.6465Z" fill="#1A559B"/>
<path d="M169.161 92.4828C169.161 97.1639 164.935 100.966 160.579 100.966H147.582C143.225 100.951 139 97.1639 139 92.4828C139 87.8016 143.225 84 147.582 84H160.579C164.935 84 169.161 87.8016 169.161 92.4828Z" fill="#AC5B8C"/>
<path d="M179.661 92.4828C179.661 96.8683 175.679 100.466 171.579 100.466H158.583C154.48 100.451 150.5 96.8665 150.5 92.4828C150.5 88.0972 154.482 84.5 158.582 84.5H171.579C175.679 84.5 179.661 88.0972 179.661 92.4828Z" stroke="#AC5B8C" stroke-opacity="0.25"/>
<path d="M117.75 62L126.5 76H109L117.75 62Z" fill="#D30F1D"/>
<path d="M124.75 62L133.5 76H116L124.75 62Z" fill="#D30F1D" fill-opacity="0.25"/>
<path d="M48 18.2852H60" stroke="white" stroke-width="2" stroke-linecap="round"/>
<path d="M55.7143 22.5723L60 18.2866L55.7143 14.0008" stroke="white" stroke-width="2" stroke-linecap="round"/>
<path d="M180.046 54.8221V55.9109H180.457C181.461 55.9109 182.434 55.9109 183.418 55.9109C183.61 55.899 183.802 55.9429 183.97 56.0372C184.138 56.1315 184.276 56.2723 184.366 56.4427C185.103 57.7271 185.871 59.0066 186.604 60.296C186.694 60.4503 186.754 60.6207 186.779 60.7978C186.805 60.9616 186.776 61.1294 186.697 61.2753C186.618 61.4212 186.494 61.5373 186.343 61.6056C186.194 61.6784 186.027 61.7035 185.863 61.6775C185.7 61.6514 185.548 61.5755 185.43 61.4601C185.325 61.3491 185.234 61.2262 185.159 61.0938C184.622 60.1756 184.08 59.2574 183.558 58.3342C183.52 58.244 183.453 58.1687 183.368 58.1198C183.283 58.0709 183.184 58.0511 183.086 58.0633C181.727 58.0633 180.362 58.0633 178.997 58.0633C177.939 58.0633 177.432 57.6117 177.357 56.5581C177.261 55.2285 177.191 53.8989 177.126 52.5442C177.109 52.3652 177.129 52.1846 177.184 52.0132C177.238 51.8419 177.326 51.6832 177.443 51.5466C177.56 51.41 177.704 51.2983 177.864 51.218C178.025 51.1377 178.201 51.0905 178.38 51.0792C178.565 51.0634 178.751 51.0855 178.927 51.1441C179.103 51.2028 179.266 51.2968 179.404 51.4203C179.543 51.5438 179.655 51.6943 179.733 51.8625C179.812 52.0307 179.855 52.2132 179.86 52.3987C179.895 52.77 179.915 53.1363 179.951 53.5527H182.249C182.401 53.5477 182.554 53.5578 182.705 53.5828C182.853 53.6117 182.985 53.6932 183.077 53.8122C183.17 53.9313 183.216 54.0797 183.207 54.2301C183.198 54.3845 183.131 54.5299 183.019 54.6369C182.908 54.744 182.759 54.8048 182.605 54.807C182.053 54.807 181.501 54.807 180.949 54.807H180.046" fill="white"/>
<path d="M183.398 59.6147C183.638 60.0261 183.854 60.3723 184.04 60.7336C184.062 60.7834 184.073 60.8372 184.073 60.8916C184.073 60.946 184.062 60.9999 184.04 61.0497C183.502 62.1387 182.606 63.0097 181.503 63.5166C180.399 64.0236 179.155 64.1355 177.978 63.8338C176.802 63.532 175.765 62.8349 175.041 61.8593C174.318 60.8838 173.952 59.6891 174.005 58.4758C174.035 57.666 174.257 56.8749 174.651 56.1669C175.045 55.4589 175.601 54.8541 176.273 54.4017C176.323 54.3665 176.388 54.3364 176.484 54.2812C176.509 54.6776 176.544 55.0389 176.539 55.3951C176.518 55.528 176.45 55.649 176.348 55.7363C175.896 56.1832 175.552 56.7271 175.341 57.3268C175.13 57.9265 175.058 58.5664 175.132 59.1979C175.205 59.8293 175.421 60.4359 175.763 60.9716C176.105 61.5073 176.565 61.9581 177.107 62.2898C177.649 62.6215 178.26 62.8255 178.893 62.8863C179.526 62.947 180.164 62.863 180.759 62.6405C181.355 62.418 181.892 62.063 182.33 61.6022C182.768 61.1414 183.095 60.587 183.287 59.981L183.418 59.6147" fill="white"/>
<path d="M178.38 48.0003C178.565 47.9963 178.748 48.0292 178.92 48.0969C179.092 48.1646 179.248 48.2659 179.381 48.3948C179.513 48.5238 179.618 48.6777 179.69 48.8478C179.762 49.0178 179.799 49.2005 179.8 49.3851C179.805 49.6645 179.727 49.9392 179.575 50.1741C179.424 50.409 179.206 50.5935 178.95 50.7044C178.693 50.8152 178.409 50.8473 178.135 50.7966C177.86 50.7459 177.606 50.6146 177.406 50.4195C177.206 50.2244 177.068 49.9742 177.011 49.7007C176.953 49.4272 176.978 49.1428 177.083 48.8835C177.187 48.6243 177.366 48.4019 177.597 48.2447C177.828 48.0874 178.101 48.0024 178.38 48.0003Z" fill="white"/>
<g clip-path="url(#clip0_1046_10562)">
<path d="M103.424 33.5723C102.868 33.5723 102.497 33.9428 102.497 34.3134C102.497 34.8693 102.868 35.2398 103.424 35.2398C103.98 35.2398 104.35 34.8693 104.35 34.3134C104.165 33.9428 103.794 33.5723 103.424 33.5723Z" fill="white"/>
<path d="M107.5 25.791C102.683 25.791 98.7917 29.682 98.7917 34.4993C98.7917 39.3167 102.683 43.2077 107.5 43.2077C112.317 43.2077 116.208 39.3167 116.208 34.4993C116.023 29.682 112.132 25.791 107.5 25.791ZM113.244 37.2786H112.503V38.7609C112.503 38.7609 112.503 38.9462 112.317 38.9462H110.835C110.835 38.9462 110.835 38.9462 110.835 38.7609V37.0933H104.35C104.35 37.0933 104.35 38.5756 104.35 38.7609C104.35 38.9462 104.165 38.9462 104.165 38.9462H102.683C102.497 38.9462 102.497 38.7609 102.497 38.7609V37.2786H101.756C101.756 37.2786 101.756 35.6111 101.756 34.3141C101.756 33.5729 102.683 33.0171 102.683 33.2024C102.868 32.8318 103.609 30.4231 103.794 30.2378C103.794 29.682 104.165 29.4967 104.35 29.4967H110.65C110.835 29.4967 111.206 29.682 111.206 30.0525C111.391 30.2378 112.132 32.8318 112.317 33.0171C112.317 33.0171 113.244 33.5729 113.244 34.3141C113.244 35.4258 113.244 37.2786 113.244 37.2786Z" fill="white"/>
<path d="M110.65 30.2383H104.35L103.424 32.8323H111.576L110.65 30.2383Z" fill="white"/>
<path d="M111.576 33.5723C111.02 33.5723 110.65 33.9428 110.65 34.4987C110.65 35.0545 111.02 35.4251 111.576 35.4251C112.132 35.4251 112.503 35.0545 112.503 34.4987C112.503 33.9428 112.132 33.5723 111.576 33.5723Z" fill="white"/>
</g>
<g clip-path="url(#clip1_1046_10562)">
<circle cx="104" cy="111" r="8" fill="white"/>
<path fill-rule="evenodd" clip-rule="evenodd" d="M103 120.167C108.063 120.167 112.167 116.063 112.167 111.001C112.167 105.938 108.063 101.834 103 101.834C97.9374 101.834 93.8333 105.938 93.8333 111.001C93.8333 116.063 97.9374 120.167 103 120.167ZM96.7727 114.761C97.953 114.761 99.077 113.878 99.077 112.394V112.378V109.714H99.0826C99.0826 109.688 99.0812 109.664 99.0798 109.641C99.0784 109.617 99.077 109.593 99.077 109.567C99.077 107.87 100.218 106.443 101.78 106.004C101.893 105.555 102.297 105.223 102.781 105.223C103.264 105.223 103.669 105.549 103.781 105.999C105.338 106.437 106.485 107.865 106.485 109.562C106.485 109.612 106.485 109.657 106.479 109.708H106.485V112.372V112.394C106.485 113.726 107.356 114.721 108.688 114.721H108.744C108.913 114.761 109.019 114.929 108.98 115.092C108.941 115.261 108.772 115.34 108.609 115.328L96.8458 115.373C96.6716 115.373 96.5367 115.227 96.5367 115.058C96.5367 114.884 96.6828 114.749 96.8514 114.749L96.7727 114.761ZM102.758 117.245C103.601 117.245 104.287 116.559 104.287 115.716H101.23C101.23 116.559 101.915 117.245 102.758 117.245ZM98.3408 108.882H98.3071C98.1665 108.859 98.071 108.736 98.0935 108.595C98.2508 107.499 98.7005 106.74 99.5548 106.128C99.6672 106.049 99.8245 106.072 99.9088 106.184C99.9875 106.296 99.965 106.454 99.8526 106.538C99.1108 107.072 98.7342 107.707 98.5993 108.668C98.5712 108.792 98.4644 108.882 98.3408 108.882ZM97.2729 108.37H97.3066C97.4303 108.37 97.5371 108.275 97.5596 108.151C97.6944 107.19 98.071 106.555 98.8185 106.027C98.9309 105.942 98.9534 105.785 98.8747 105.673C98.7904 105.56 98.633 105.538 98.5206 105.616C97.6663 106.229 97.2167 106.988 97.0594 108.084C97.0369 108.224 97.1324 108.348 97.2729 108.37ZM107.148 108.792C107.024 108.792 106.917 108.702 106.9 108.573C106.76 107.612 106.389 106.977 105.647 106.443C105.535 106.364 105.507 106.201 105.591 106.089C105.67 105.976 105.833 105.948 105.945 106.032C106.799 106.645 107.249 107.404 107.406 108.5C107.429 108.64 107.328 108.764 107.193 108.786C107.176 108.792 107.165 108.792 107.148 108.792ZM107.935 108.061C107.951 108.191 108.058 108.28 108.182 108.28C108.193 108.28 108.204 108.28 108.227 108.275C108.362 108.252 108.463 108.129 108.44 107.988C108.283 106.892 107.833 106.133 106.979 105.521C106.867 105.437 106.704 105.465 106.625 105.577C106.541 105.689 106.569 105.852 106.681 105.931C107.423 106.465 107.794 107.1 107.935 108.061Z" fill="#FF0024"/>
</g>
<defs>
<clipPath id="clip0_1046_10562">
<rect x="98" y="25" width="19" height="19" rx="2" fill="white"/>
</clipPath>
<clipPath id="clip1_1046_10562">
<rect x="93" y="101" width="20" height="20" rx="2" fill="white"/>
</clipPath>
</defs>
</svg>
