<svg width="24" height="24" viewBox="0 0 24 24" fill="none" xmlns="http://www.w3.org/2000/svg">
<g clip-path="url(#clip0_334_5681)">
<path d="M24 0H0V24H24V0Z" fill="#0071CE"/>
<path d="M11.66 10.885V11.97H12.07C13.07 11.97 14.04 11.97 15.02 11.97C15.2118 11.9582 15.4029 12.0019 15.5705 12.0959C15.7381 12.1899 15.8751 12.3302 15.965 12.5C16.7 13.78 17.465 15.055 18.195 16.34C18.2852 16.4938 18.3446 16.6636 18.37 16.84C18.3956 17.0033 18.3669 17.1705 18.2884 17.3159C18.2098 17.4613 18.0856 17.5769 17.935 17.645C17.7869 17.7176 17.6199 17.7426 17.457 17.7167C17.2941 17.6907 17.1432 17.615 17.025 17.5C16.9209 17.3895 16.8302 17.2669 16.755 17.135C16.22 16.22 15.68 15.305 15.16 14.385C15.1217 14.295 15.055 14.22 14.9702 14.1713C14.8854 14.1226 14.7871 14.1028 14.69 14.115C13.335 14.115 11.975 14.115 10.615 14.115C9.56001 14.115 9.05501 13.665 8.98001 12.615C8.88501 11.29 8.81501 9.96501 8.75001 8.61501C8.73361 8.43656 8.75316 8.25663 8.80752 8.08587C8.86188 7.91511 8.94994 7.75699 9.06649 7.62086C9.18304 7.48473 9.3257 7.37337 9.48605 7.29335C9.6464 7.21333 9.82116 7.16629 10 7.15501C10.1843 7.13929 10.3699 7.16132 10.5454 7.21977C10.7208 7.27822 10.8826 7.37185 11.0206 7.49494C11.1587 7.61803 11.2702 7.76798 11.3483 7.93564C11.4265 8.10329 11.4696 8.28512 11.475 8.47001C11.51 8.84001 11.53 9.20501 11.565 9.62001H13.855C14.0073 9.61504 14.1597 9.62509 14.31 9.65001C14.4573 9.67879 14.5892 9.76003 14.6811 9.87864C14.773 9.99725 14.8188 10.1452 14.81 10.295C14.8012 10.4489 14.7344 10.5938 14.6231 10.7005C14.5118 10.8072 14.3642 10.8677 14.21 10.87C13.66 10.87 13.11 10.87 12.56 10.87H11.66" fill="white"/>
<path d="M15 15.66C15.24 16.07 15.455 16.415 15.64 16.775C15.6619 16.8246 15.6732 16.8783 15.6732 16.9325C15.6732 16.9867 15.6619 17.0404 15.64 17.09C15.1042 18.1753 14.2115 19.0433 13.1117 19.5485C12.0119 20.0536 10.7717 20.1652 9.59937 19.8645C8.42701 19.5638 7.39371 18.8691 6.67281 17.8969C5.9519 16.9247 5.58724 15.7342 5.64 14.525C5.67022 13.7181 5.89069 12.9297 6.28343 12.2242C6.67618 11.5186 7.23008 10.9158 7.9 10.465C7.95 10.43 8.01499 10.4 8.10999 10.345C8.13499 10.74 8.17 11.1 8.165 11.455C8.14438 11.5874 8.07697 11.7081 7.975 11.795C7.52443 12.2403 7.18112 12.7824 6.97106 13.38C6.761 13.9777 6.68971 14.6153 6.76258 15.2446C6.83545 15.8739 7.05057 16.4784 7.39166 17.0122C7.73274 17.5461 8.19084 17.9953 8.73125 18.3259C9.27166 18.6564 9.88022 18.8597 10.5108 18.9203C11.1414 18.9808 11.7775 18.8971 12.371 18.6754C12.9644 18.4536 13.4996 18.0998 13.9361 17.6406C14.3725 17.1814 14.6987 16.6289 14.89 16.025L15.02 15.66" fill="white"/>
<path d="M10 4.08501C10.184 4.08102 10.3669 4.11374 10.5381 4.18124C10.7093 4.24874 10.8653 4.34968 10.997 4.47816C11.1288 4.60663 11.2336 4.76008 11.3053 4.92952C11.3771 5.09896 11.4144 5.281 11.415 5.46501C11.42 5.74348 11.342 6.01713 11.1911 6.25122C11.0402 6.48531 10.8232 6.66927 10.5675 6.77973C10.3118 6.8902 10.0291 6.92219 9.75521 6.87164C9.48133 6.82109 9.22865 6.69028 9.02926 6.49582C8.82987 6.30137 8.69277 6.05204 8.63538 5.77951C8.57799 5.50697 8.60289 5.22353 8.70692 4.96518C8.81095 4.70683 8.98941 4.48522 9.21965 4.3285C9.44988 4.17179 9.7215 4.08704 10 4.08501Z" fill="white"/>
</g>
<defs>
<clipPath id="clip0_334_5681">
<rect width="24" height="24" fill="white"/>
</clipPath>
</defs>
</svg>
