<svg width="24" height="24" viewBox="0 0 24 24" fill="none" xmlns="http://www.w3.org/2000/svg">
<g clip-path="url(#clip0_335_5684)">
<g clip-path="url(#clip1_335_5684)">
<path d="M24 0H0V24H24V0Z" fill="#0071CE"/>
<path fill-rule="evenodd" clip-rule="evenodd" d="M3.95039 15.9502C2.70039 15.9502 2.30039 16.5502 2.30039 17.3002C2.30039 18.0002 2.80039 18.7002 3.90039 18.7002H6.30039C7.65039 18.6502 7.60039 18.6502 8.90039 17.6002L15.5004 11.9002C15.9504 11.4502 16.4504 11.3002 17.2004 11.3502H20.0504C21.1504 11.3502 21.6504 10.7502 21.6504 10.0002C21.6504 9.1502 21.1504 8.6002 20.0504 8.6002H16.8004C15.9504 8.6002 15.3504 8.6502 14.8004 9.1002L7.90039 15.1502C7.05039 15.9002 7.25039 15.9002 6.15039 16.0002L3.95039 15.9502ZM10.7004 4.2002C11.5504 4.2002 12.2004 4.8502 12.2004 5.7002C12.2004 6.5002 11.5004 7.2002 10.7004 7.2002C9.85039 7.2002 9.20039 6.5502 9.20039 5.7002C9.20039 4.9002 9.90039 4.2002 10.7004 4.2002ZM9.10039 12.6502V8.9502C9.10039 8.1002 9.65039 7.4002 10.7504 7.4002C11.8004 7.4002 12.3504 8.1002 12.3504 8.9502V9.8502L14.0004 8.4002C14.6004 7.9502 15.0504 7.5502 15.9004 7.5002H20.2004C21.9504 7.5002 22.8004 8.8002 22.8004 10.0002C22.8004 11.1002 22.0004 12.4002 20.1004 12.4002H17.4004C16.2004 12.3502 16.1004 12.7502 15.5004 13.2502L9.75039 18.3502C8.80039 19.1502 8.40039 19.7002 6.60039 19.7502H3.50039C2.15039 19.7502 1.15039 18.5502 1.15039 17.3002C1.15039 16.0002 2.40039 14.9502 3.35039 14.9502H5.85039C6.60039 14.9502 6.70039 14.8002 7.70039 13.8502L9.10039 12.6502Z" fill="white"/>
</g>
</g>
<defs>
<clipPath id="clip0_335_5684">
<rect width="24" height="24" rx="2" fill="white"/>
</clipPath>
<clipPath id="clip1_335_5684">
<rect width="24" height="24" fill="white"/>
</clipPath>
</defs>
</svg>
