<svg width="24" height="24" viewBox="0 0 24 24" fill="none" xmlns="http://www.w3.org/2000/svg">
<rect width="24" height="24" fill="#0071CE"/>
<path d="M17.979 11.2545C17.7872 11.0577 17.5192 10.9538 17.2454 10.9688L13.9309 11.1533L15.7549 9.07595C16.0148 8.78003 16.089 8.38556 15.9886 8.03307C15.9356 7.79152 15.7893 7.57175 15.5646 7.43134C15.5577 7.42641 11.2045 4.89758 11.2045 4.89758C10.8491 4.69109 10.4012 4.73658 10.0944 5.01019L7.96797 6.90701C7.5762 7.25646 7.54188 7.85735 7.89136 8.24915C8.24086 8.64091 8.84177 8.67532 9.23353 8.32574L10.8457 6.88769L12.1784 7.66162L9.82591 10.3409C8.85041 10.5 7.9727 10.9495 7.28369 11.5976L8.51219 12.8261C9.06753 12.3211 9.80491 12.0129 10.6129 12.0129C12.3363 12.0129 13.7385 13.4151 13.7385 15.1386C13.7385 15.9465 13.4303 16.6839 12.9254 17.2392L14.1538 18.4677C14.9721 17.5978 15.4743 16.4272 15.4743 15.1386C15.4743 14.3708 15.2961 13.6448 14.9792 12.9991L16.2621 12.9277L15.95 16.7559C15.9074 17.2792 16.297 17.7379 16.8203 17.7806C16.8465 17.7827 16.8727 17.7838 16.8986 17.7838C17.3885 17.7838 17.8045 17.4073 17.845 16.9103L18.2456 11.9952C18.2679 11.7214 18.1707 11.4513 17.979 11.2545Z" fill="white"/>
<path d="M16.218 7.18244C17.0968 7.18244 17.8091 6.47005 17.8091 5.59123C17.8091 4.71246 17.0968 4 16.218 4C15.3391 4 14.6268 4.71246 14.6268 5.59123C14.6268 6.47005 15.3391 7.18244 16.218 7.18244Z" fill="white"/>
<path d="M10.6128 18.2641C8.88938 18.2641 7.48722 16.8619 7.48722 15.1385C7.48722 14.4889 7.68651 13.8852 8.02693 13.3849L6.78517 12.1431C6.13815 12.9688 5.75134 14.0082 5.75134 15.1385C5.75134 17.8234 7.92788 19.9999 10.6128 19.9999C11.7431 19.9999 12.7824 19.6131 13.6081 18.9661L12.3664 17.7244C11.866 18.0647 11.2623 18.2641 10.6128 18.2641Z" fill="white"/>
</svg>
