<svg width="22" height="22" viewBox="0 0 22 22" fill="none" xmlns="http://www.w3.org/2000/svg">
<path fill-rule="evenodd" clip-rule="evenodd" d="M0 16.4483V0.0152403L20.7267 0L16.6371 3.23328C17.9065 4.40638 18.7994 5.98219 19.0971 7.7681L22 5.42253V21.9728L1.19303 21.9881L9.99244 15.0081L5.22125 12.3117L0 16.4483ZM7.54994 9.00248C7.60247 7.02397 9.21329 5.43065 11.2093 5.41315C13.2491 5.39564 14.9125 7.03272 14.9212 9.07252C14.9212 9.45771 14.8687 9.8254 14.7636 10.1668L14.7549 10.2106C15.0578 10.3552 15.4257 10.3427 15.7777 10.3308C15.8733 10.3276 15.9677 10.3244 16.0593 10.3244L16.0856 10.2018C16.1731 9.83416 16.2081 9.44896 16.2081 9.05501C16.1819 6.3061 13.9407 4.09997 11.1918 4.11748C8.4429 4.14375 6.23677 6.38489 6.25428 9.1338C6.25428 9.19508 6.25428 9.25636 6.26303 9.30889L6.28054 9.38768C6.87584 9.39643 7.10346 9.3264 7.54994 9.06376V9.00248ZM8.45094 20.1079C8.45587 20.2008 8.46041 20.2862 8.46041 20.357L8.51293 20.3833C8.80183 20.4971 11.8747 21.6877 13.2053 18.7462C14.1508 16.6539 14.5973 15.936 15.6916 14.8505L15.9542 14.5878C17.5038 13.2484 18.4843 11.2611 18.4668 9.04625C18.4318 5.05421 15.1751 1.84132 11.183 1.87634C7.43613 1.91135 4.38082 4.78282 4.04815 8.44219L4.03939 8.51223C4.47712 8.87992 5.10744 9.22134 5.38758 9.22134V9.15131C5.36132 5.9209 7.9614 3.27705 11.1918 3.25079C14.4222 3.22453 17.0661 5.82461 17.0923 9.05501C17.1098 10.8847 16.2782 12.5218 14.9737 13.6073L14.6498 13.8962C13.6868 14.7367 12.7413 16.3387 12.0322 18.0984C11.3231 19.858 9.67728 19.3853 8.80183 19.0439L8.7493 19.0088C8.3975 19.1022 8.42842 19.6842 8.45094 20.1079Z" fill="#0071CE"/>
</svg>
