<svg width="24" height="24" viewBox="0 0 24 24" fill="none" xmlns="http://www.w3.org/2000/svg">
<g clip-path="url(#clip0_334_5682)">
<path d="M24 0H0V24H24V0Z" fill="#0071CE"/>
<path d="M17.555 8.5H6.44501C6.26752 8.50259 6.0923 8.5403 5.92945 8.61094C5.7666 8.68157 5.61934 8.78375 5.49617 8.91157C5.373 9.03939 5.27635 9.19033 5.21179 9.35568C5.14723 9.52104 5.11604 9.69753 5.12001 9.875V18.605C5.1105 18.7848 5.13774 18.9647 5.20005 19.1336C5.26237 19.3025 5.35846 19.457 5.48245 19.5875C5.60645 19.7181 5.75576 19.822 5.92125 19.8929C6.08675 19.9638 6.26496 20.0003 6.44501 20H17.555C17.7362 20.0126 17.9179 19.9855 18.0875 19.9204C18.257 19.8554 18.4103 19.7541 18.5365 19.6235C18.6628 19.493 18.7589 19.3364 18.8183 19.1648C18.8776 18.9932 18.8987 18.8106 18.88 18.63V9.89C18.88 9.15 18.6 8.515 17.555 8.515M17.17 19.095H6.83501C6.7343 19.102 6.63327 19.087 6.53895 19.051C6.44463 19.015 6.35929 18.9588 6.28886 18.8865C6.21843 18.8142 6.16461 18.7274 6.13113 18.6321C6.09765 18.5369 6.08533 18.4355 6.09501 18.335V10.195C6.09308 9.99541 6.16676 9.80248 6.30126 9.655C6.43575 9.50752 6.62109 9.41641 6.82001 9.4H17.17C17.67 9.4 17.9 9.68 17.9 10.2V14.13H17.5V15.94H17.88V18.34C17.8922 18.4401 17.882 18.5417 17.8501 18.6374C17.8181 18.7331 17.7653 18.8205 17.6954 18.8933C17.6255 18.966 17.5403 19.0223 17.446 19.0581C17.3517 19.0938 17.2506 19.1082 17.15 19.1" fill="white"/>
<path d="M9.17999 14.56V15.06H9.36499C9.80499 15.06 10.245 15.06 10.685 15.06C10.7713 15.0555 10.8571 15.0757 10.9324 15.1182C11.0077 15.1607 11.0693 15.2238 11.11 15.3L12.11 17.02C12.1512 17.0872 12.1784 17.162 12.19 17.24C12.2019 17.3131 12.1892 17.3881 12.1539 17.4533C12.1186 17.5184 12.0627 17.57 11.995 17.6C11.9281 17.6312 11.8531 17.6407 11.7805 17.6272C11.7079 17.6138 11.6413 17.5781 11.59 17.525C11.5403 17.4785 11.4981 17.4245 11.465 17.365C11.225 16.955 10.965 16.545 10.755 16.13C10.7358 16.0904 10.7048 16.0576 10.6664 16.0362C10.6279 16.0147 10.5838 16.0056 10.54 16.01H8.70999C8.23999 16.01 8.00999 15.805 7.97999 15.34C7.93499 14.745 7.90499 14.15 7.87499 13.555C7.86461 13.4715 7.87161 13.3868 7.89556 13.3061C7.9195 13.2255 7.95988 13.1506 8.01414 13.0863C8.0684 13.022 8.13538 12.9696 8.21086 12.9325C8.28634 12.8953 8.3687 12.8741 8.45275 12.8703C8.5368 12.8665 8.62073 12.8802 8.69926 12.9104C8.77779 12.9406 8.84922 12.9867 8.90907 13.0458C8.96892 13.1049 9.01589 13.1758 9.04703 13.254C9.07816 13.3321 9.09279 13.4159 9.08999 13.5C9.08999 13.665 9.11499 13.83 9.12999 14H10.16C10.2265 13.9926 10.2935 13.9926 10.36 14C10.4262 14.0122 10.4855 14.0483 10.5269 14.1014C10.5683 14.1545 10.5887 14.2209 10.5844 14.288C10.5801 14.3552 10.5513 14.4184 10.5035 14.4658C10.4557 14.5131 10.3922 14.5413 10.325 14.545C10.08 14.545 9.82499 14.545 9.58499 14.545H9.17999" fill="white"/>
<path d="M10.68 16.7C10.785 16.885 10.885 17.04 10.97 17.2C10.9849 17.2455 10.9849 17.2945 10.97 17.34C10.7279 17.8242 10.328 18.2115 9.83624 18.4378C9.34448 18.6641 8.79024 18.7161 8.26499 18.585C7.73965 18.4507 7.27691 18.1389 6.95523 17.7024C6.63355 17.2659 6.47271 16.7316 6.49999 16.19C6.51145 15.83 6.60805 15.4778 6.78187 15.1623C6.95569 14.8469 7.20178 14.577 7.49999 14.375C7.53015 14.3542 7.56192 14.3358 7.59499 14.32C7.59499 14.495 7.61999 14.655 7.61999 14.82C7.61104 14.8802 7.58089 14.9351 7.53499 14.975C7.33183 15.1742 7.17681 15.4171 7.08171 15.6852C6.98662 15.9534 6.95396 16.2397 6.98622 16.5224C7.01849 16.805 7.11482 17.0766 7.2679 17.3164C7.42098 17.5562 7.62676 17.758 7.86957 17.9062C8.11238 18.0545 8.38582 18.1454 8.66908 18.1721C8.95234 18.1987 9.23794 18.1604 9.50413 18.06C9.77033 17.9595 10.0101 17.7997 10.2052 17.5926C10.4003 17.3856 10.5456 17.1367 10.63 16.865C10.63 16.825 10.665 16.78 10.69 16.705" fill="white"/>
<path d="M8.43001 11.5C8.51644 11.4922 8.60355 11.5026 8.68577 11.5303C8.768 11.5581 8.84354 11.6027 8.90759 11.6612C8.97164 11.7198 9.02279 11.7911 9.05778 11.8705C9.09278 11.9499 9.11085 12.0357 9.11085 12.1225C9.11085 12.2093 9.09278 12.2951 9.05778 12.3745C9.02279 12.4539 8.97164 12.5252 8.90759 12.5838C8.84354 12.6423 8.768 12.6869 8.68577 12.7147C8.60355 12.7424 8.51644 12.7528 8.43001 12.745C8.26708 12.7426 8.11118 12.6782 7.99412 12.5649C7.87705 12.4515 7.80763 12.2978 7.80001 12.135C7.79867 12.0517 7.81402 11.9689 7.84514 11.8916C7.87627 11.8143 7.92254 11.744 7.98124 11.6848C8.03994 11.6256 8.10989 11.5788 8.18696 11.5471C8.26402 11.5153 8.34666 11.4993 8.43001 11.5Z" fill="white"/>
<path d="M15.905 11.635C16.149 11.635 16.383 11.7319 16.5555 11.9045C16.7281 12.077 16.825 12.311 16.825 12.555V14.78C16.8257 14.8211 16.8181 14.862 16.8029 14.9002C16.7876 14.9383 16.7649 14.9731 16.736 15.0024C16.7071 15.0318 16.6727 15.055 16.6348 15.0709C16.5969 15.0868 16.5561 15.095 16.515 15.095C16.4315 15.095 16.3513 15.0618 16.2923 15.0027C16.2332 14.9437 16.2 14.8635 16.2 14.78V12.78H16.04V18.355C16.0287 18.4591 15.9793 18.5554 15.9013 18.6253C15.8233 18.6953 15.7223 18.734 15.6175 18.734C15.5128 18.734 15.4117 18.6953 15.3337 18.6253C15.2558 18.5554 15.2064 18.4591 15.195 18.355V15.115H15.025V18.355C15.0137 18.4591 14.9643 18.5554 14.8863 18.6253C14.8083 18.6953 14.7073 18.734 14.6025 18.734C14.4978 18.734 14.3967 18.6953 14.3187 18.6253C14.2408 18.5554 14.1914 18.4591 14.18 18.355V12.775H14V14.775C14 14.8585 13.9668 14.9387 13.9077 14.9977C13.8487 15.0568 13.7686 15.09 13.685 15.09C13.6439 15.09 13.6032 15.0818 13.5652 15.0659C13.5273 15.05 13.4929 15.0268 13.464 14.9974C13.4352 14.9681 13.4124 14.9334 13.3972 14.8952C13.3819 14.857 13.3743 14.8161 13.375 14.775V12.555C13.375 12.4338 13.399 12.3137 13.4455 12.2018C13.4921 12.0898 13.5603 11.9882 13.6462 11.9027C13.7322 11.8172 13.8342 11.7495 13.9464 11.7036C14.0586 11.6576 14.1788 11.6343 14.3 11.635H15.905Z" fill="white"/>
<path fill-rule="evenodd" clip-rule="evenodd" d="M14 8.1C13.775 8.1 13.775 8.015 13.55 7.805L12.22 6.455C11.985 6.095 12.455 5.74 12.815 6.055L13.555 6.82V4.4C13.554 4.34427 13.5655 4.28902 13.5885 4.23828C13.6116 4.18753 13.6457 4.14256 13.6883 4.10664C13.7309 4.07073 13.781 4.04476 13.8349 4.03064C13.8889 4.01652 13.9452 4.01459 14 4.025C14.21 4.025 14.455 4.105 14.475 4.405V6.825L15.27 6.07C15.585 5.705 16.095 6.15 15.83 6.475L14.48 7.82C14.255 8.04 14.26 8.11 14.03 8.1" fill="white"/>
<path fill-rule="evenodd" clip-rule="evenodd" d="M9.97001 4.06C9.74001 4.06 9.74001 4.14 9.52001 4.35L8.18501 5.705C7.95501 6.06 8.42001 6.415 8.78001 6.1L9.50001 5.335V7.76C9.5011 7.81261 9.51311 7.86442 9.53527 7.91215C9.55743 7.95987 9.58926 8.00248 9.62874 8.03726C9.66822 8.07204 9.7145 8.09825 9.76464 8.11421C9.81478 8.13018 9.86769 8.13555 9.92001 8.13C10.13 8.13 10.375 8.055 10.395 7.755V5.33L11.195 6.085C11.2519 6.1495 11.3308 6.19042 11.4163 6.19976C11.5018 6.2091 11.5877 6.18618 11.6571 6.13549C11.7266 6.0848 11.7746 6.01 11.7918 5.92574C11.809 5.84148 11.7941 5.75385 11.75 5.68L10.4 4.335C10.175 4.12 10.18 4.05 9.95501 4.06" fill="white"/>
<path d="M15.11 11.39C14.9668 11.389 14.8272 11.3456 14.7086 11.2654C14.59 11.1851 14.4979 11.0715 14.4438 10.939C14.3897 10.8064 14.376 10.6608 14.4046 10.5205C14.4331 10.3802 14.5025 10.2515 14.6041 10.1506C14.7057 10.0497 14.8349 9.98114 14.9754 9.95357C15.1159 9.926 15.2614 9.94065 15.3936 9.99566C15.5258 10.0507 15.6387 10.1436 15.7182 10.2627C15.7976 10.3818 15.84 10.5218 15.84 10.665C15.84 10.7606 15.8211 10.8553 15.7844 10.9436C15.7476 11.0319 15.6938 11.112 15.6259 11.1794C15.558 11.2468 15.4775 11.3001 15.389 11.3362C15.3005 11.3724 15.2056 11.3906 15.11 11.39Z" fill="white"/>
</g>
<defs>
<clipPath id="clip0_334_5682">
<rect width="24" height="24" fill="white"/>
</clipPath>
</defs>
</svg>
