<?xml version="1.0" encoding="utf-8"?>
<!-- Generator: Adobe Illustrator 25.2.0, SVG Export Plug-In . SVG Version: 6.00 Build 0)  -->
<svg version="1.1" id="Layer_1" xmlns="http://www.w3.org/2000/svg" xmlns:xlink="http://www.w3.org/1999/xlink" x="0px" y="0px"
	 viewBox="0 0 24 24" style="enable-background:new 0 0 24 24;" xml:space="preserve">
<style type="text/css">
	.st0{fill:#EDB801;}
</style>
<g>
	<path class="st0" d="M1,22.3c-0.3,0-0.4-0.2-0.4-0.2c0-0.1-0.1-0.3,0-0.5l11-19.8c0.1-0.2,0.4-0.3,0.4-0.3c0.1,0,0.3,0,0.4,0.3
		l11,19.8c0.1,0.2,0,0.4,0,0.5c0,0.1-0.2,0.2-0.4,0.2H1z"/>
	<path d="M12,2l11,19.8H1L12,2C12,2,12,2,12,2L12,2 M12,0.9c-0.3,0-0.7,0.2-0.9,0.5l-11,19.8C-0.2,22,0.2,22.8,1,22.8h22
		c0.8,0,1.3-0.8,0.9-1.5l-11-19.8C12.7,1.1,12.3,0.9,12,0.9L12,0.9z"/>
</g>
<path d="M13,8.2C13,8.1,12.9,8,12.8,8h-1.5C11.1,8,11,8.1,11,8.2v7.5c0,0.1,0.1,0.2,0.2,0.2h1.5c0.1,0,0.2-0.1,0.2-0.2V8.2z"/>
<path d="M13,18.2c0-0.1-0.1-0.2-0.2-0.2h-1.5c-0.1,0-0.2,0.1-0.2,0.2v1.5c0,0.1,0.1,0.2,0.2,0.2h1.5c0.1,0,0.2-0.1,0.2-0.2V18.2z"/>
</svg>
