<svg width="24" height="24" viewBox="0 0 24 24" fill="none" xmlns="http://www.w3.org/2000/svg">
<path d="M16.0367 10.0985C16.0367 10.0985 15.8372 10.5259 16.3502 10.6969L19.1714 11.1814H19.2854L22.0782 11.7513C22.4771 11.7513 22.5626 11.3239 22.5626 11.3239L22.7051 10.127C22.7051 10.127 20.9668 9.78499 19.5419 9.52852C19.1144 9.41453 16.5497 9.01556 16.2932 9.01556L16.0367 10.0985Z" fill="black"/>
<path d="M11.4484 6.70725C9.85256 6.73575 8.17121 6.73575 7.45878 6.70725C7.45878 6.70725 7.14531 6.70725 7.14531 7.04922C7.11681 7.39119 7.2023 8.13212 7.2023 8.13212C7.2023 8.13212 1.64531 9.15803 0.904373 9.24352C0.904373 9.24352 0.818881 8.84456 0.932871 8.55959C1.04686 8.24611 1.53132 6.59326 2.87069 5.31088C2.87069 5.31088 5.43546 4.42746 7.85774 4.17098C9.31111 4.0285 10.6505 4 11.6479 4H12.1324C13.1013 4 14.4406 4.0285 15.894 4.17098C18.3163 4.42746 20.8811 5.31088 20.8811 5.31088C22.2204 6.56477 22.7049 8.24611 22.8189 8.53109C22.9329 8.84456 22.8474 9.21503 22.8474 9.21503C22.1064 9.12953 16.5495 8.10363 16.5495 8.10363C16.5495 8.10363 16.6064 7.36269 16.6064 7.02073C16.578 6.67876 16.293 6.67876 16.293 6.67876C15.5805 6.70725 13.8992 6.70725 12.2748 6.67876L11.4484 6.70725Z" fill="black"/>
<path d="M7.71545 10.0415C7.71545 10.0415 7.91493 10.4689 7.40198 10.6399L4.58074 11.0959H4.46675L1.674 11.6658C1.27504 11.6658 1.18955 11.2383 1.18955 11.2383L1.04706 10.0415C1.04706 10.0415 2.7854 9.69949 4.21027 9.44301C4.60923 9.35752 7.174 8.95856 7.43048 8.95856L7.71545 10.0415Z" fill="black"/>
<path d="M3.46937 16.0544H1.93051C1.53155 16.0544 1.21808 15.7409 1.21808 15.342V13.6321C1.21808 13.2331 1.53155 12.9197 1.93051 12.9197H3.49787C3.89683 12.9197 4.21031 13.2331 4.21031 13.6321V15.342C4.21031 15.7409 3.86834 16.0544 3.46937 16.0544Z" fill="black"/>
<path d="M5.77766 20.443H4.2103C3.81134 20.443 3.49786 20.1295 3.49786 19.7306V18.0207C3.49786 17.6218 3.81134 17.3083 4.2103 17.3083H5.77766C6.17662 17.3083 6.49009 17.6218 6.49009 18.0207V19.7306C6.49009 20.1295 6.17662 20.443 5.77766 20.443Z" fill="black"/>
<path d="M8.14295 16.0544H6.57559C6.17663 16.0544 5.86316 15.7409 5.86316 15.342V13.6321C5.86316 13.2331 6.17663 12.9197 6.57559 12.9197H8.14295C8.54192 12.9197 8.85539 13.2331 8.85539 13.6321V15.342C8.85539 15.7409 8.54192 16.0544 8.14295 16.0544Z" fill="black"/>
<path d="M12.7025 16.0544H11.1352C10.7362 16.0544 10.4227 15.7409 10.4227 15.342V13.6321C10.4227 13.2331 10.7362 12.9197 11.1352 12.9197H12.7025C13.1015 12.9197 13.415 13.2331 13.415 13.6321V15.342C13.415 15.7409 13.1015 16.0544 12.7025 16.0544Z" fill="black"/>
<path d="M15.0108 20.386H8.59891C8.19995 20.386 7.88647 20.0725 7.88647 19.6736V17.9637C7.88647 17.5648 8.19995 17.2513 8.59891 17.2513H15.0108C15.4098 17.2513 15.7233 17.5648 15.7233 17.9637V19.6736C15.7233 20.0725 15.4098 20.386 15.0108 20.386Z" fill="black"/>
<path d="M17.2336 16.0544H15.6947C15.2958 16.0544 14.9823 15.7409 14.9823 15.342V13.6321C14.9823 13.2331 15.2958 12.9197 15.6947 12.9197H17.2621C17.6611 12.9197 17.9745 13.2331 17.9745 13.6321V15.342C17.9745 15.7409 17.6326 16.0544 17.2336 16.0544Z" fill="black"/>
<path d="M21.6222 16.0544H20.0548C19.6559 16.0544 19.3424 15.7409 19.3424 15.342V13.6321C19.3424 13.2331 19.6559 12.9197 20.0548 12.9197H21.6222C22.0212 12.9197 22.3346 13.2331 22.3346 13.6321V15.342C22.3346 15.7409 22.0212 16.0544 21.6222 16.0544Z" fill="black"/>
<path d="M19.4849 20.443H17.9176C17.5186 20.443 17.2051 20.1295 17.2051 19.7306V18.0207C17.2051 17.6218 17.5186 17.3083 17.9176 17.3083H19.4849C19.8839 17.3083 20.1974 17.6218 20.1974 18.0207V19.7306C20.2259 20.1295 19.8839 20.443 19.4849 20.443Z" fill="black"/>
</svg>
