<svg width="24" height="24" viewBox="0 0 24 24" fill="none" xmlns="http://www.w3.org/2000/svg">
<path d="M12.5823 15.9378C11.9703 15.9378 11.3582 15.743 10.8575 15.3535L5.62732 11.2084V2H19.1478V11.2084L14.3906 15.2979C13.862 15.7152 13.2221 15.9378 12.5823 15.9378ZM6.32282 10.9024L11.3026 14.825C12.0815 15.437 13.1943 15.437 13.9733 14.7693L18.4523 10.9024V2.66768H6.32282V10.9024Z" fill="black"/>
<path d="M17.3672 4.42035H8.60394V5.08803H17.3672V4.42035Z" fill="black"/>
<path d="M17.3947 5.9502H7.26825V6.61787H17.3947V5.9502Z" fill="black"/>
<path d="M17.4777 7.64758H7.35132V8.31526H17.4777V7.64758Z" fill="black"/>
<path d="M15.6978 9.23297H7.4353V9.90065H15.6978V9.23297Z" fill="black"/>
<path d="M21.4842 9.5089L18.8135 7.39459V11.2894L14.1676 15.2398C13.945 15.4345 13.6947 15.5736 13.4165 15.6849L20.594 21.5549L4.31937 21.4714L11.9698 15.7684C11.6638 15.6849 11.3578 15.518 11.0796 15.2954L5.98857 11.2616V7.58933L3.29004 9.53672V22H21.5121V9.5089H21.4842ZM3.98554 10.1766H4.12464L10.9127 15.7127L3.98554 20.8872V10.1766ZM20.8444 20.915L14.3067 15.5458L20.6775 10.1766H20.8444V20.915Z" fill="black"/>
</svg>
