<svg width="24" height="24" viewBox="0 0 24 24" fill="none" xmlns="http://www.w3.org/2000/svg">
<path d="M21.8473 9.08934L12.8271 2L3 9.08934V22H21.8761V9.08934H21.8473ZM13.1153 5.34294C15.1614 5.34294 16.5447 6.66859 16.5447 8.48415C16.5447 10.1268 15.5648 11.0778 14.4409 11.0778C13.9798 11.0778 13.5187 10.7896 13.5764 10.1268H13.5187C13.1153 10.7608 12.5677 11.0778 11.8473 11.0778C11.1556 11.0778 10.5793 10.5591 10.5793 9.69452C10.5793 8.34006 11.732 7.10086 13.3746 7.10086C13.8934 7.10086 14.3257 7.18732 14.6427 7.33141L14.2392 9.3487C14.0663 10.1844 14.2104 10.5591 14.585 10.5591C15.1902 10.5591 15.853 9.83862 15.853 8.5706C15.853 6.98559 14.8156 5.86167 13 5.86167C11.0692 5.86167 9.45533 7.27378 9.45533 9.4928C9.45533 11.3084 10.7522 12.4323 12.4813 12.4323C13.1441 12.4323 13.7781 12.2882 14.268 12.0576L14.4697 12.5187C13.8069 12.8357 13.1441 12.951 12.366 12.951C10.4352 12.951 8.79251 11.6542 8.79251 9.55043C8.79251 7.27378 10.4928 5.34294 13.1153 5.34294ZM3.72046 9.78098H3.86455L10.8963 15.5159L3.72046 20.8473V9.78098ZM4.06628 21.4524L12.8271 14.9107L20.9251 21.5389L4.06628 21.4524ZM21.1844 20.8761L14.4121 15.3429L21.0115 9.78098H21.1844V20.8761Z" fill="currentColor"/>
<path d="M11.3574 9.66584C11.3574 10.1558 11.6168 10.5016 12.1355 10.5016C12.8271 10.5016 13.4611 9.69466 13.5764 9.00302L13.8358 7.76382C13.7205 7.735 13.5188 7.67737 13.2594 7.67737C12.1931 7.70619 11.3574 8.62838 11.3574 9.66584Z" fill="currentColor"/>
</svg>
