<svg width="24" height="24" viewBox="0 0 24 24" fill="none" xmlns="http://www.w3.org/2000/svg">
<g clip-path="url(#clip0_335_5878)">
<path d="M13.7099 8.45596C13.7099 8.45596 14.0596 8.61917 14.1995 8.19948L14.5959 5.89119V5.79793L15.0622 3.51295C15.0622 3.18653 14.7125 3.11658 14.7125 3.11658L13.7332 3C13.7332 3 13.4534 4.42228 13.2435 5.58808C13.1736 5.91451 12.8472 8.01295 12.8472 8.2228L13.7099 8.45596Z" fill="black"/>
<path d="M11.215 12.3493C11.2383 13.655 11.2383 15.0307 11.215 15.6136C11.215 15.6136 11.215 15.8701 11.4948 15.8701C11.7746 15.8934 12.3808 15.8234 12.3808 15.8234C12.3808 15.8234 13.2202 20.3468 13.2902 20.9763C13.2902 20.9763 12.9637 21.0462 12.7306 20.953C12.4741 20.8597 11.1218 20.4633 10.0725 19.3675C10.0725 19.3675 9.34974 17.269 9.1399 15.2872C9.02332 14.0981 9 13.0022 9 12.2095V11.8131C9 11.0203 9.02332 9.92448 9.1399 8.73536C9.34974 6.73018 10.0725 4.63173 10.0725 4.63173C11.0984 3.53588 12.4741 3.1395 12.7073 3.04624C12.9637 2.95297 13.2668 3.02292 13.2668 3.02292C13.1969 3.62914 12.3575 8.17577 12.3575 8.17577C12.3575 8.17577 11.7513 8.12914 11.4715 8.12914C11.1917 8.15246 11.1917 8.38562 11.1917 8.38562C11.215 8.96852 11.215 10.3442 11.1917 11.6732L11.215 12.3493Z" fill="black"/>
<path d="M13.6399 15.5674C13.6399 15.5674 13.9897 15.4042 14.1296 15.8238L14.5259 18.1321V18.2254L14.9922 20.5104C14.9922 20.8368 14.6425 20.9068 14.6425 20.9068L13.6632 21C13.6632 21 13.3834 19.5777 13.1736 18.4119C13.1036 18.0855 12.7772 15.9871 12.7772 15.7772L13.6399 15.5674Z" fill="black"/>
</g>
<defs>
<clipPath id="clip0_335_5878">
<rect width="6.03886" height="18" fill="white" transform="translate(9 3)"/>
</clipPath>
</defs>
</svg>
