<svg width="24" height="24" viewBox="0 0 24 24" fill="none" xmlns="http://www.w3.org/2000/svg">
<path d="M15.2083 6.04167C16.2167 6.04167 17.0417 5.21667 17.0417 4.20833C17.0417 3.2 16.2167 2.375 15.2083 2.375C14.2 2.375 13.375 3.2 13.375 4.20833C13.375 5.21667 14.2 6.04167 15.2083 6.04167ZM5.58333 12C3.01667 12 1 14.0167 1 16.5833C1 19.15 3.01667 21.1667 5.58333 21.1667C8.15 21.1667 10.1667 19.15 10.1667 16.5833C10.1667 14.0167 8.15 12 5.58333 12ZM5.58333 19.7917C3.84167 19.7917 2.375 18.325 2.375 16.5833C2.375 14.8417 3.84167 13.375 5.58333 13.375C7.325 13.375 8.79167 14.8417 8.79167 16.5833C8.79167 18.325 7.325 19.7917 5.58333 19.7917ZM10.9 10.625L13.1 8.425L13.8333 9.15833C15.025 10.35 16.5833 11.0833 18.5083 11.0833V9.25C17.1333 9.25 16.0333 8.7 15.2083 7.875L13.4667 6.13333C13.0083 5.76667 12.55 5.58333 12 5.58333C11.45 5.58333 10.9917 5.76667 10.7167 6.13333L8.15 8.7C7.78333 9.06667 7.6 9.525 7.6 9.98333C7.6 10.5333 7.78333 10.9917 8.15 11.2667L11.0833 13.8333V18.4167H12.9167V12.7333L10.9 10.625ZM18.4167 12C15.85 12 13.8333 14.0167 13.8333 16.5833C13.8333 19.15 15.85 21.1667 18.4167 21.1667C20.9833 21.1667 23 19.15 23 16.5833C23 14.0167 20.9833 12 18.4167 12ZM18.4167 19.7917C16.675 19.7917 15.2083 18.325 15.2083 16.5833C15.2083 14.8417 16.675 13.375 18.4167 13.375C20.1583 13.375 21.625 14.8417 21.625 16.5833C21.625 18.325 20.1583 19.7917 18.4167 19.7917Z" fill="black"/>
</svg>
