<svg width="24" height="24" viewBox="0 0 24 24" fill="none" xmlns="http://www.w3.org/2000/svg">
<g clip-path="url(#clip0_335_5884)">
<path d="M20 11.498C20 10.398 20.9 9.49805 22 9.49805V5.49805C22 4.39805 21.1 3.49805 20 3.49805H4C2.9 3.49805 2.01 4.39805 2.01 5.49805V9.49805C3.11 9.49805 4 10.398 4 11.498C4 12.598 3.11 13.498 2 13.498V17.498C2 18.598 2.9 19.498 4 19.498H20C21.1 19.498 22 18.598 22 17.498V13.498C20.9 13.498 20 12.598 20 11.498ZM15.58 16.298L12 13.998L8.42 16.298L9.5 12.178L6.21 9.48805L10.45 9.23805L12 5.29805L13.54 9.24805L17.78 9.49805L14.49 12.188L15.58 16.298Z" fill="black"/>
</g>
<defs>
<clipPath id="clip0_335_5884">
<rect width="20" height="17" fill="white" transform="translate(2 3)"/>
</clipPath>
</defs>
</svg>
