<svg width="24" height="24" viewBox="0 0 24 24" fill="none" xmlns="http://www.w3.org/2000/svg">
<g clip-path="url(#clip0_335_5882)">
<path d="M12 22.916C16.97 22.916 21 18.886 21 13.916C16.03 13.916 12 17.946 12 22.916ZM5.6 11.166C5.6 12.546 6.72 13.666 8.1 13.666C8.63 13.666 9.11 13.506 9.52 13.226L9.5 13.416C9.5 14.796 10.62 15.916 12 15.916C13.38 15.916 14.5 14.796 14.5 13.416L14.48 13.226C14.88 13.506 15.37 13.666 15.9 13.666C17.28 13.666 18.4 12.546 18.4 11.166C18.4 10.166 17.81 9.31602 16.97 8.91602C17.81 8.51602 18.4 7.66602 18.4 6.66602C18.4 5.28602 17.28 4.16602 15.9 4.16602C15.37 4.16602 14.89 4.32602 14.48 4.60602L14.5 4.41602C14.5 3.03602 13.38 1.91602 12 1.91602C10.62 1.91602 9.5 3.03602 9.5 4.41602L9.52 4.60602C9.12 4.32602 8.63 4.16602 8.1 4.16602C6.72 4.16602 5.6 5.28602 5.6 6.66602C5.6 7.66602 6.19 8.51602 7.03 8.91602C6.19 9.31602 5.6 10.166 5.6 11.166ZM12 6.41602C13.38 6.41602 14.5 7.53602 14.5 8.91602C14.5 10.296 13.38 11.416 12 11.416C10.62 11.416 9.5 10.296 9.5 8.91602C9.5 7.53602 10.62 6.41602 12 6.41602ZM3 13.916C3 18.886 7.03 22.916 12 22.916C12 17.946 7.97 13.916 3 13.916Z" fill="black"/>
</g>
<defs>
<clipPath id="clip0_335_5882">
<rect width="18" height="22" fill="white" transform="translate(3 1)"/>
</clipPath>
</defs>
</svg>
