<svg width="49" height="16" viewBox="0 0 49 16" fill="none" xmlns="http://www.w3.org/2000/svg">
<g clip-path="url(#clip0_430_5842)">
<path d="M21.4541 7.17805C20.2486 8.38353 19.7555 10.0274 19.9747 11.5616C20.139 12.6027 20.6322 13.6438 21.4541 14.4657C23.4815 16.4931 26.7144 16.4931 28.7418 14.4657C29.5637 13.6438 30.0568 12.6027 30.2212 11.5616C30.4404 10.0274 29.9473 8.38353 28.7966 7.17805C26.7692 5.20545 23.4815 5.15065 21.4541 7.17805Z" fill="black"/>
<path d="M48.5226 10.2466L42.6596 6.24655V9.04107H35.8103C35.4267 6.90409 34.4404 4.8219 32.7966 3.17806C28.5774 -1.09591 21.7281 -1.09591 17.4541 3.12327C15.8103 4.7671 14.7692 6.84929 14.4404 8.98628H0.74176V11.5616H14.276H16.5774C16.5774 10.6849 16.6322 9.86299 16.8513 8.98628C17.2349 7.61642 17.9472 6.30135 19.0431 5.20546C22.3856 1.86299 27.7555 1.91779 31.0979 5.26025C32.1938 6.35614 32.9061 7.67121 33.2897 9.04107C33.5089 9.86299 33.6185 10.7397 33.5637 11.6164H35.865H42.6048V14.2466L48.5226 10.2466Z" fill="black"/>
</g>
<defs>
<clipPath id="clip0_430_5842">
<rect width="47.7808" height="16" fill="white" transform="translate(0.74176)"/>
</clipPath>
</defs>
</svg>
