<svg width="27" height="26" viewBox="0 0 27 26" fill="none" xmlns="http://www.w3.org/2000/svg">
<path d="M25.9009 23.3003C25.9009 23.7511 25.7218 24.1834 25.403 24.5022C25.0843 24.8209 24.6519 25 24.2011 25H2.69972C2.24892 25 1.81659 24.8209 1.49784 24.5022C1.17908 24.1834 1 23.7511 1 23.3003V2.69972C1 2.24892 1.17908 1.81659 1.49784 1.49784C1.81659 1.17908 2.24892 1 2.69972 1H24.1841C24.6349 1 25.0673 1.17908 25.386 1.49784C25.7048 1.81659 25.8839 2.24892 25.8839 2.69972L25.9009 23.3003Z" fill="#03A550"/>
<path d="M25.9009 23.3003C25.9009 23.7511 25.7218 24.1834 25.403 24.5022C25.0843 24.8209 24.6519 25 24.2011 25H2.69972C2.24892 25 1.81659 24.8209 1.49784 24.5022C1.17908 24.1834 1 23.7511 1 23.3003V2.69972C1 2.24892 1.17908 1.81659 1.49784 1.49784C1.81659 1.17908 2.24892 1 2.69972 1H24.1841C24.6349 1 25.0673 1.17908 25.386 1.49784C25.7048 1.81659 25.8839 2.24892 25.8839 2.69972L25.9009 23.3003Z" stroke="white" stroke-width="0.45"/>
<path d="M13.4419 2.68274C12.7791 2.68274 4.94336 2.68274 4.94336 5.96319V20.0368C4.95102 20.3233 5.06483 20.5967 5.26269 20.804C5.46056 21.0113 5.72838 21.1377 6.01418 21.1587V21.9745C6.01418 22.5014 6.89803 22.9264 7.96886 22.9264C9.03968 22.9264 9.90653 22.5014 9.90653 21.9745V21.1757H17.0963V21.9745C17.0963 22.5014 17.9802 22.9264 19.051 22.9264C20.1218 22.9264 20.9887 22.5014 20.9887 21.9745V21.1417C21.2546 21.1016 21.4978 20.9686 21.6751 20.7664C21.8525 20.5642 21.9525 20.3058 21.9575 20.0368V5.96319C21.9575 2.66574 14.0878 2.68274 13.4589 2.68274M8.47877 18.3881C8.17805 18.4148 7.87506 18.3786 7.5891 18.2818C7.30313 18.185 7.04044 18.0297 6.81774 17.8259C6.59504 17.622 6.41719 17.3741 6.29552 17.0978C6.17385 16.8215 6.11102 16.5229 6.11102 16.221C6.11102 15.9191 6.17385 15.6205 6.29552 15.3442C6.41719 15.0679 6.59504 14.8199 6.81774 14.6161C7.04044 14.4123 7.30313 14.257 7.5891 14.1602C7.87506 14.0634 8.17805 14.0272 8.47877 14.0538C8.77949 14.0272 9.08248 14.0634 9.36844 14.1602C9.65441 14.257 9.9171 14.4123 10.1398 14.6161C10.3625 14.8199 10.5403 15.0679 10.662 15.3442C10.7837 15.6205 10.8465 15.9191 10.8465 16.221C10.8465 16.5229 10.7837 16.8215 10.662 17.0978C10.5403 17.3741 10.3625 17.622 10.1398 17.8259C9.9171 18.0297 9.65441 18.185 9.36844 18.2818C9.08248 18.3786 8.77949 18.4148 8.47877 18.3881ZM18.4391 18.3881C18.0137 18.3682 17.6035 18.2238 17.2594 17.9729C16.9153 17.7221 16.6524 17.3757 16.5032 16.9768C16.3541 16.5779 16.3253 16.1441 16.4204 15.729C16.5155 15.3139 16.7304 14.9358 17.0383 14.6417C17.3463 14.3475 17.7337 14.1502 18.1528 14.0742C18.5718 13.9982 19.0039 14.0468 19.3955 14.214C19.7872 14.3813 20.1211 14.6598 20.356 15.015C20.5908 15.3703 20.7163 15.7866 20.7167 16.2125C20.7101 16.5049 20.6459 16.7932 20.5279 17.0608C20.4098 17.3284 20.2402 17.5702 20.0287 17.7722C19.8172 17.9742 19.5679 18.1326 19.2952 18.2383C19.0224 18.344 18.7315 18.3949 18.4391 18.3881ZM20.7167 11.4193C20.7167 11.6402 20.2578 11.8272 19.6969 11.8272H7.22098C6.67707 11.8272 6.21815 11.6402 6.21815 11.4193V6.40512C6.21815 6.18416 6.67707 6.01419 7.22098 6.01419H19.6969C20.2578 6.01419 20.7167 6.18416 20.7167 6.40512V11.4193Z" fill="white"/>
</svg>
