<svg xmlns="http://www.w3.org/2000/svg" viewBox="0 0 54 54"><defs><style>.cls-1{fill:#fff;}.cls-2{fill:#6e6d71;}.cls-3{fill:#ec2030;}.cls-4,.cls-7{fill:none;stroke-miterlimit:10;}.cls-4{stroke:#414142;}.cls-5{fill:#414142;}.cls-6{fill:#f04e30;}.cls-7{stroke:#f04e30;stroke-width:3px;}</style></defs><g id="Layer_2" data-name="Layer 2"><g id="Header"><circle class="cls-1" cx="27" cy="27" r="24.33"/><rect class="cls-2" x="20.68" y="22.03" width="18" height="2.11"/><path class="cls-3" d="M36.57,16.34A2.78,2.78,0,0,1,33.83,14H29.72a6.85,6.85,0,0,0,6.85,6.46,6.64,6.64,0,0,0,2.1-.33V15.38A2.76,2.76,0,0,1,36.57,16.34Z"/><path class="cls-4" d="M38.67,14.91v9.86a.93.93,0,0,1-.93.93H21.68a.94.94,0,0,1-.94-.94V14.91a.93.93,0,0,1,.94-.93H37.74A.93.93,0,0,1,38.67,14.91Z"/><path class="cls-5" d="M18.32,13.64h1.74a0,0,0,0,1,0,0V42.84a.87.87,0,0,1-.87.87h0a.87.87,0,0,1-.87-.87V13.64a0,0,0,0,1,0,0Z" transform="translate(38.38 57.35) rotate(180)"/><path class="cls-5" d="M18.63,42.83h1.11a1.31,1.31,0,0,1,1.31,1.31v0a0,0,0,0,1,0,0H17.32a0,0,0,0,1,0,0v0A1.31,1.31,0,0,1,18.63,42.83Z"/><path class="cls-6" d="M27,3A24,24,0,1,1,3,27,24,24,0,0,1,27,3m0-3A27,27,0,1,0,54,27,27,27,0,0,0,27,0Z"/><line class="cls-7" x1="7.4" y1="8.44" x2="45.57" y2="46.61"/></g></g></svg>