<svg width="27" height="26" viewBox="0 0 27 26" fill="none" xmlns="http://www.w3.org/2000/svg">
<path d="M25.8167 23.3039C25.8167 23.7537 25.638 24.1851 25.3199 24.5032C25.0019 24.8213 24.5704 25 24.1206 25H2.59693C2.14709 25 1.71568 24.8213 1.3976 24.5032C1.07952 24.1851 0.900818 23.7537 0.900818 23.3039V2.69611C0.900818 2.24628 1.07952 1.81486 1.3976 1.49678C1.71568 1.1787 2.14709 1 2.59693 1H24.0697C24.5196 1 24.951 1.1787 25.2691 1.49678C25.5871 1.81486 25.7658 2.24628 25.7658 2.69611L25.8167 23.3039Z" fill="#EB2227"/>
<path d="M25.8167 23.3039C25.8167 23.7537 25.638 24.1851 25.3199 24.5032C25.0019 24.8213 24.5704 25 24.1206 25H2.59693C2.14709 25 1.71568 24.8213 1.3976 24.5032C1.07952 24.1851 0.900818 23.7537 0.900818 23.3039V2.69611C0.900818 2.24628 1.07952 1.81486 1.3976 1.49678C1.71568 1.1787 2.14709 1 2.59693 1H24.0697C24.5196 1 24.951 1.1787 25.2691 1.49678C25.5871 1.81486 25.7658 2.24628 25.7658 2.69611L25.8167 23.3039Z" stroke="white" stroke-width="0.45"/>
<path d="M13.3335 2.96753C12.689 2.96753 4.85297 2.96753 4.85297 6.22407V20.1492C4.85673 20.4317 4.96722 20.7024 5.16227 20.9069C5.35732 21.1114 5.62248 21.2345 5.90456 21.2516V22.0658C5.90456 22.5916 6.76957 23.0156 7.83813 23.0156C8.90668 23.0156 9.75473 22.5916 9.75473 22.0658V21.2856H16.9632V22.0658C16.9632 22.5916 17.8113 23.0156 18.8798 23.0156C19.9484 23.0156 20.8304 22.5916 20.8304 22.0658V21.2347C21.0927 21.198 21.333 21.0681 21.5074 20.8688C21.6818 20.6695 21.7787 20.414 21.7802 20.1492V6.22407C21.7802 2.95057 13.995 2.96753 13.2996 2.96753M8.43177 18.5209C7.86047 18.5209 7.31258 18.2939 6.90861 17.89C6.50465 17.486 6.2777 16.9381 6.2777 16.3668C6.2777 15.7955 6.50465 15.2476 6.90861 14.8437C7.31258 14.4397 7.86047 14.2128 8.43177 14.2128C8.72956 14.1863 9.02961 14.222 9.31283 14.3178C9.59604 14.4136 9.85622 14.5673 10.0768 14.7691C10.2974 14.9709 10.4735 15.2165 10.594 15.4901C10.7145 15.7637 10.7768 16.0594 10.7768 16.3583C10.7768 16.6573 10.7145 16.953 10.594 17.2266C10.4735 17.5002 10.2974 17.7458 10.0768 17.9476C9.85622 18.1494 9.59604 18.3031 9.31283 18.3989C9.02961 18.4947 8.72956 18.5304 8.43177 18.5039M18.2862 18.5039C17.8642 18.4873 17.4563 18.347 17.1134 18.1004C16.7705 17.8538 16.5077 17.5119 16.3576 17.1171C16.2075 16.7223 16.1767 16.2922 16.2692 15.88C16.3616 15.4679 16.5732 15.0921 16.8775 14.7993C17.1819 14.5064 17.5656 14.3095 17.981 14.2331C18.3963 14.1566 18.825 14.2039 19.2137 14.3692C19.6024 14.5344 19.9339 14.8102 20.1671 15.1624C20.4002 15.5146 20.5247 15.9275 20.5251 16.3499C20.5117 16.9317 20.2688 17.4847 19.8494 17.8882C19.43 18.2917 18.8681 18.513 18.2862 18.5039ZM20.5251 11.6007C20.5251 11.8212 20.0841 12.0078 19.5243 12.0078H7.26145C6.70173 12.0078 6.26074 11.8212 6.26074 11.6007V6.66506C6.26074 6.44456 6.70173 6.25799 7.26145 6.25799H19.5922C20.1519 6.25799 20.5929 6.44456 20.5929 6.66506L20.5251 11.6007Z" fill="white"/>
<path d="M23.442 20.9971L15.165 12.9915L23.442 5.05366C23.6657 4.8281 23.7912 4.52329 23.7912 4.2056C23.7912 3.88791 23.6657 3.58309 23.442 3.35754C23.1956 3.1212 22.8675 2.98923 22.5261 2.98923C22.1847 2.98923 21.8565 3.1212 21.6102 3.35754L13.3332 11.2275L5.05612 3.2897C4.80978 3.05335 4.48161 2.92139 4.14022 2.92139C3.79883 2.92139 3.47066 3.05335 3.22432 3.2897C3.0006 3.51525 2.87506 3.82007 2.87506 4.13775C2.87506 4.45544 3.0006 4.76026 3.22432 4.98581L11.5014 12.9915L3.22432 20.9971C3.0006 21.2227 2.87506 21.5275 2.87506 21.8452C2.87506 22.1629 3.0006 22.4677 3.22432 22.6932C3.47066 22.9296 3.79883 23.0615 4.14022 23.0615C4.48161 23.0615 4.80978 22.9296 5.05612 22.6932L13.3332 14.7554L21.6102 22.6932C21.8565 22.9296 22.1847 23.0615 22.5261 23.0615C22.8675 23.0615 23.1956 22.9296 23.442 22.6932C23.6657 22.4677 23.7912 22.1629 23.7912 21.8452C23.7912 21.5275 23.6657 21.2227 23.442 20.9971Z" fill="#EB2227"/>
<path d="M23.578 20.9973L15.3009 12.9916L23.578 5.05379C23.8017 4.82824 23.9272 4.52342 23.9272 4.20574C23.9272 3.88805 23.8017 3.58323 23.578 3.35768C23.3288 3.12022 22.9978 2.98777 22.6536 2.98777C22.3094 2.98777 21.9784 3.12022 21.7292 3.35768L13.4522 11.2276L5.1921 3.28984C4.94292 3.05238 4.61192 2.91992 4.26772 2.91992C3.92352 2.91992 3.59252 3.05238 3.34334 3.28984C3.11961 3.51539 2.99408 3.8202 2.99408 4.13789C2.99408 4.45558 3.11961 4.7604 3.34334 4.98595L11.6204 12.9916L3.34334 20.9973C3.11961 21.2228 2.99408 21.5276 2.99408 21.8453C2.99408 22.163 3.11961 22.4678 3.34334 22.6934C3.59252 22.9308 3.92352 23.0633 4.26772 23.0633C4.61192 23.0633 4.94292 22.9308 5.1921 22.6934L13.4522 14.7556L21.7292 22.6934C21.9784 22.9308 22.3094 23.0633 22.6536 23.0633C22.9978 23.0633 23.3288 22.9308 23.578 22.6934C23.8017 22.4678 23.9272 22.163 23.9272 21.8453C23.9272 21.5276 23.8017 21.2228 23.578 20.9973Z" stroke="white" stroke-width="0.34"/>
</svg>
