<svg width="26" height="26" viewBox="0 0 26 26" fill="none" xmlns="http://www.w3.org/2000/svg">
<path d="M25.7417 23.3181C25.7417 23.7642 25.5645 24.192 25.2491 24.5074C24.9337 24.8228 24.5059 25 24.0599 25H2.49856C2.05251 25 1.62472 24.8228 1.30931 24.5074C0.993906 24.192 0.816711 23.7642 0.816711 23.3181V2.68185C0.816711 2.2358 0.993906 1.80801 1.30931 1.4926C1.62472 1.17719 2.05251 1 2.49856 1H24.0094C24.4555 1 24.8833 1.17719 25.1987 1.4926C25.5141 1.80801 25.6913 2.2358 25.6913 2.68185L25.7417 23.3181Z" fill="#808184"/>
<path d="M25.7417 23.3181C25.7417 23.7642 25.5645 24.192 25.2491 24.5074C24.9337 24.8228 24.5059 25 24.0599 25H2.49856C2.05251 25 1.62472 24.8228 1.30931 24.5074C0.993906 24.192 0.816711 23.7642 0.816711 23.3181V2.68185C0.816711 2.2358 0.993906 1.80801 1.30931 1.4926C1.62472 1.17719 2.05251 1 2.49856 1H24.0094C24.4555 1 24.8833 1.17719 25.1987 1.4926C25.5141 1.80801 25.6913 2.2358 25.6913 2.68185L25.7417 23.3181Z" stroke="white" stroke-width="0.45"/>
<path d="M13.2456 2.86689C12.5897 2.86689 4.70184 2.86689 4.70184 6.23059V20.3413C4.70977 20.6275 4.82474 20.9003 5.02403 21.1058C5.22332 21.3113 5.49244 21.4346 5.77823 21.4513V22.2754C5.77823 22.7968 6.65279 23.2341 7.72917 23.2341C8.80556 23.2341 9.68012 22.7968 9.68012 22.2754V21.485H16.9121V22.2754C16.9121 22.7968 17.7866 23.2341 18.863 23.2341C19.9394 23.2341 20.814 22.7968 20.814 22.2754V21.4345C21.0802 21.3985 21.3248 21.2685 21.5036 21.0681C21.6825 20.8676 21.7838 20.6099 21.7894 20.3413V6.1465C21.7894 2.7828 13.9016 2.86689 13.2456 2.86689ZM8.28418 18.609C7.98208 18.6356 7.67775 18.599 7.39054 18.5016C7.10333 18.4042 6.83951 18.2482 6.61587 18.0433C6.39223 17.8385 6.21364 17.5894 6.09147 17.3118C5.9693 17.0342 5.9062 16.7343 5.9062 16.431C5.9062 16.1277 5.9693 15.8278 6.09147 15.5502C6.21364 15.2726 6.39223 15.0235 6.61587 14.8187C6.83951 14.6138 7.10333 14.4578 7.39054 14.3604C7.67775 14.263 7.98208 14.2264 8.28418 14.253C8.58629 14.2264 8.89062 14.263 9.17783 14.3604C9.46504 14.4578 9.72885 14.6138 9.9525 14.8187C10.1761 15.0235 10.3547 15.2726 10.4769 15.5502C10.5991 15.8278 10.6622 16.1277 10.6622 16.431C10.6622 16.7343 10.5991 17.0342 10.4769 17.3118C10.3547 17.5894 10.1761 17.8385 9.9525 18.0433C9.72885 18.2482 9.46504 18.4042 9.17783 18.5016C8.89062 18.599 8.58629 18.6356 8.28418 18.609ZM18.2576 18.609C17.8309 18.586 17.4203 18.4385 17.0766 18.1847C16.7329 17.9309 16.471 17.5819 16.3234 17.1809C16.1759 16.78 16.149 16.3445 16.2462 15.9284C16.3434 15.5124 16.5604 15.1339 16.8703 14.8398C17.1803 14.5457 17.5696 14.3488 17.9902 14.2735C18.4108 14.1983 18.8442 14.2479 19.2369 14.4163C19.6296 14.5847 19.9644 14.8645 20.1998 15.221C20.4353 15.5776 20.5611 15.9953 20.5617 16.4226C20.5573 16.7156 20.495 17.0048 20.3783 17.2736C20.2616 17.5424 20.0929 17.7854 19.8818 17.9887C19.6707 18.1919 19.4215 18.3514 19.1485 18.4579C18.8755 18.5643 18.5841 18.6157 18.2912 18.609M20.5617 11.6293C20.5617 11.848 20.1076 12.033 19.5526 12.033H7.10689C6.55188 12.033 6.09778 11.848 6.09778 11.6293V6.58378C6.09778 6.36514 6.55188 6.18013 7.10689 6.18013H19.603C20.158 6.18013 20.6121 6.36514 20.6121 6.58378L20.5617 11.6293Z" fill="white"/>
</svg>
