<svg width="21" height="24" viewBox="0 0 21 24" fill="none" xmlns="http://www.w3.org/2000/svg">
<g clip-path="url(#clip0_509_6675)">
<path d="M6.3375 0.829688C6.59062 0.31875 7.11094 0 7.67813 0H13.3219C13.8891 0 14.4094 0.31875 14.6625 0.829688L15 1.5H19.5C20.3297 1.5 21 2.17031 21 3C21 3.82969 20.3297 4.5 19.5 4.5H1.5C0.670312 4.5 0 3.82969 0 3C0 2.17031 0.670312 1.5 1.5 1.5H6L6.3375 0.829688ZM1.5 6H19.5V21C19.5 22.6547 18.1547 24 16.5 24H4.5C2.84531 24 1.5 22.6547 1.5 21V6ZM6 9C5.5875 9 5.25 9.3375 5.25 9.75V20.25C5.25 20.6625 5.5875 21 6 21C6.4125 21 6.75 20.6625 6.75 20.25V9.75C6.75 9.3375 6.4125 9 6 9ZM10.5 9C10.0875 9 9.75 9.3375 9.75 9.75V20.25C9.75 20.6625 10.0875 21 10.5 21C10.9125 21 11.25 20.6625 11.25 20.25V9.75C11.25 9.3375 10.9125 9 10.5 9ZM15 9C14.5875 9 14.25 9.3375 14.25 9.75V20.25C14.25 20.6625 14.5875 21 15 21C15.4125 21 15.75 20.6625 15.75 20.25V9.75C15.75 9.3375 15.4125 9 15 9Z" fill="black"/>
</g>
<defs>
<clipPath id="clip0_509_6675">
<rect width="21" height="24" fill="white"/>
</clipPath>
</defs>
</svg>
