<svg width="24" height="24" viewBox="0 0 24 24" fill="none" xmlns="http://www.w3.org/2000/svg">
<rect width="24" height="24" rx="2" fill="#016B9D"/>
<path d="M9.01367 17.5H3.25781V7.50586H9.01367V9.24219H5.37695V11.4365H8.76074V13.1729H5.37695V15.75H9.01367V17.5ZM19.9717 17.5H17.2783L12.9307 9.93945H12.8691C12.8874 10.2539 12.9033 10.5706 12.917 10.8896C12.9307 11.2087 12.9443 11.5277 12.958 11.8467C12.9717 12.1611 12.9854 12.4779 12.999 12.7969V17.5H11.1055V7.50586H13.7783L18.1191 14.9912H18.167C18.1579 14.6813 18.1465 14.3737 18.1328 14.0684C18.1191 13.763 18.1055 13.4577 18.0918 13.1523C18.0827 12.847 18.0736 12.5417 18.0645 12.2363V7.50586H19.9717V17.5Z" fill="white"/>
</svg>
