<svg width="24" height="24" viewBox="0 0 24 24" fill="none" xmlns="http://www.w3.org/2000/svg">
<rect width="24" height="24" rx="2" fill="#016B9D"/>
<path d="M6.84277 17.5H4.75781V7.50586H10.4863V9.24219H6.84277V11.8193H10.2334V13.5488H6.84277V17.5ZM15.3535 7.50586C16.2604 7.50586 17.0078 7.61523 17.5957 7.83398C18.1882 8.05273 18.6279 8.38314 18.915 8.8252C19.2021 9.26725 19.3457 9.82552 19.3457 10.5C19.3457 10.9557 19.2591 11.3545 19.0859 11.6963C18.9128 12.0381 18.6849 12.3275 18.4023 12.5645C18.1198 12.8014 17.8145 12.9951 17.4863 13.1455L20.4258 17.5H18.0742L15.6885 13.665H14.5605V17.5H12.4414V7.50586H15.3535ZM15.2031 9.24219H14.5605V11.9424H15.2441C15.946 11.9424 16.4473 11.8262 16.748 11.5938C17.0534 11.3568 17.2061 11.0104 17.2061 10.5547C17.2061 10.0807 17.042 9.74349 16.7139 9.54297C16.3903 9.34245 15.8867 9.24219 15.2031 9.24219Z" fill="white"/>
</svg>
