<svg width="24" height="24" viewBox="0 0 24 24" fill="none" xmlns="http://www.w3.org/2000/svg">
<circle cx="12" cy="12" r="10.5" fill="white" stroke="white"/>
<path d="M24 12C24 18.6274 18.6274 24 12 24C5.37258 24 0 18.6274 0 12C0 5.37258 5.37258 0 12 0C18.6274 0 24 5.37258 24 12Z" fill="#65A233"/>
<path d="M15.5469 17H8.56055V15.5303L11.0693 12.9941C11.5752 12.4746 11.9808 12.0417 12.2861 11.6953C12.596 11.3444 12.8193 11.0254 12.9561 10.7383C13.0973 10.4512 13.168 10.1436 13.168 9.81543C13.168 9.41895 13.0563 9.12272 12.833 8.92676C12.6143 8.72624 12.3203 8.62598 11.9512 8.62598C11.5638 8.62598 11.1878 8.71484 10.8232 8.89258C10.4587 9.07031 10.0781 9.32324 9.68164 9.65137L8.5332 8.29102C8.82031 8.04492 9.12337 7.8125 9.44238 7.59375C9.76595 7.375 10.1396 7.19954 10.5635 7.06738C10.9919 6.93066 11.5046 6.8623 12.1016 6.8623C12.7578 6.8623 13.3206 6.98079 13.79 7.21777C14.264 7.45475 14.6286 7.77832 14.8838 8.18848C15.139 8.59408 15.2666 9.05436 15.2666 9.56934C15.2666 10.1208 15.1572 10.6243 14.9385 11.0801C14.7197 11.5358 14.4007 11.987 13.9814 12.4336C13.5667 12.8802 13.0654 13.3747 12.4775 13.917L11.1924 15.127V15.2227H15.5469V17Z" fill="white"/>
</svg>
