<svg width="35" height="24" viewBox="0 0 35 24" fill="none" xmlns="http://www.w3.org/2000/svg">
<g clip-path="url(#clip0_201_1748)">
<path d="M21.9328 3.10248H0.121521V21.6379H21.9328V3.10248Z" fill="#221F1F"/>
<path d="M34.0756 11.9956C34.0756 18.412 28.8979 23.6122 22.514 23.6122C16.13 23.6122 10.9523 18.412 10.9523 11.9956C10.9523 5.59677 16.1212 0.396618 22.514 0.396618C28.8979 0.387804 34.0756 5.58795 34.0756 11.9956Z" fill="white"/>
<path d="M22.5227 24C15.9362 24 10.5737 18.6148 10.5737 11.9956C10.5737 5.38524 15.9274 0 22.5227 0C29.1093 0 34.463 5.38524 34.463 11.9956C34.463 18.6148 29.1093 24 22.5227 24ZM22.5227 0.784429C16.3677 0.784429 11.3574 5.81711 11.3574 11.9956C11.3574 18.1829 16.3677 23.2156 22.5227 23.2156C28.6778 23.2156 33.6881 18.1829 33.6881 11.9956C33.6881 5.8083 28.6778 0.784429 22.5227 0.784429Z" fill="#109ED9"/>
<path d="M3.31793 13.5909H5.21112C6.28539 13.5909 7.01624 14.0756 7.01624 15.195C7.01624 15.9882 6.52314 16.5171 5.84511 16.6228V16.6493C6.07406 16.6845 6.32061 16.7903 6.51433 17.3544L7.30683 19.6724H6.12689L5.52811 17.6981C5.37842 17.2222 5.09664 17.0635 4.68279 17.0635H4.43623V19.6724H3.31793V13.5909ZM4.88531 16.235C5.47528 16.235 5.88033 15.9265 5.88033 15.3096C5.88033 14.6133 5.51931 14.437 4.88531 14.437H4.43623V16.2262H4.88531V16.235Z" fill="white"/>
<path d="M6.6552 9.72161C6.79609 9.67755 7.41248 9.65992 7.298 7.85309L7.1395 5.64964C7.12189 5.49099 7.03384 5.35878 6.91937 5.27064C6.72565 5.09437 5.87151 4.96216 5.18468 4.96216H5.14066H5.09663C4.4098 4.96216 3.55566 5.09437 3.36194 5.27064C3.25628 5.36759 3.15942 5.49099 3.14181 5.64964L2.98331 7.85309C2.86884 9.65992 3.48522 9.67755 3.62611 9.72161L2.86884 10.8498H3.36194L3.4588 10.7088H4.83246H5.19349H6.82251L6.91937 10.8498H7.41248L6.6552 9.72161ZM6.91937 8.76972C6.91937 8.95481 6.76967 9.10465 6.58476 9.10465C6.39984 9.10465 6.25015 8.95481 6.25015 8.76972C6.25015 8.58463 6.39984 8.4348 6.58476 8.4348C6.76967 8.44361 6.91937 8.59345 6.91937 8.76972ZM5.14066 9.72161H6.17971L6.32059 9.94196H5.20229H4.84127H3.96952L4.11041 9.72161H5.14066ZM3.70536 5.79066C3.89908 5.64964 4.5771 5.54387 5.11424 5.54387H5.14066H5.16707C5.70421 5.54387 6.38223 5.64964 6.57595 5.79066C6.66401 5.86117 6.74326 5.94049 6.75206 6.09033L6.72565 7.19205C6.68162 7.96767 6.57595 8.02055 6.36462 8.04699C6.36462 8.04699 5.80987 8.12632 5.13185 8.12632C4.45383 8.12632 3.89908 8.04699 3.89908 8.04699C3.69655 8.02055 3.59089 7.95885 3.53805 7.19205L3.51164 6.09033C3.53805 5.94049 3.6173 5.86117 3.70536 5.79066ZM3.37075 8.76972C3.37075 8.58463 3.52044 8.4348 3.70536 8.4348C3.89027 8.4348 4.03997 8.58463 4.03997 8.76972C4.03997 8.95481 3.89027 9.10465 3.70536 9.10465C3.52044 9.10465 3.37075 8.95481 3.37075 8.76972ZM5.20229 10.4267H4.84127H3.64372L3.81983 10.1623H4.84127H5.20229H6.47029L6.6464 10.4267H5.20229Z" fill="white"/>
</g>
<defs>
<clipPath id="clip0_201_1748">
<rect width="34.3415" height="24" fill="white" transform="translate(0.121521)"/>
</clipPath>
</defs>
</svg>
