<svg width="36" height="24" viewBox="0 0 36 24" fill="none" xmlns="http://www.w3.org/2000/svg">
<g clip-path="url(#clip0_201_1710)">
<path d="M22.6296 3.10246H0.797791V21.6379H22.6296V3.10246Z" fill="#221F1F"/>
<path d="M34.7838 11.9956C34.7838 18.412 29.6013 23.6122 23.2113 23.6122C16.8213 23.6122 11.6387 18.412 11.6387 11.9956C11.6387 5.59677 16.8124 0.396618 23.2113 0.396618C29.6013 0.387804 34.7838 5.58795 34.7838 11.9956Z" fill="white"/>
<path d="M23.2201 24C16.6274 24 11.2598 18.6148 11.2598 11.9956C11.2598 5.38524 16.6186 0 23.2201 0C29.8128 0 35.1716 5.38524 35.1716 11.9956C35.1716 18.6148 29.8128 24 23.2201 24ZM23.2201 0.784429C17.0593 0.784429 12.0442 5.81711 12.0442 11.9956C12.0442 18.1829 17.0593 23.2156 23.2201 23.2156C29.381 23.2156 34.396 18.1829 34.396 11.9956C34.396 5.8083 29.381 0.784429 23.2201 0.784429Z" fill="#D30F1D"/>
<path d="M3.99719 13.5909H5.89216C6.96745 13.5909 7.69899 14.0757 7.69899 15.195C7.69899 15.9883 7.20542 16.5171 6.52676 16.6228V16.6493C6.75591 16.6845 7.0027 16.7903 7.1966 17.3544L7.98985 19.6724H6.8088L6.20946 17.6981C6.05962 17.2222 5.77758 17.0635 5.36333 17.0635H5.11655V19.6724H3.99719V13.5909ZM5.56605 16.235C6.15658 16.235 6.56201 15.9266 6.56201 15.3096C6.56201 14.6133 6.20064 14.437 5.56605 14.437H5.11655V16.2262H5.56605V16.235Z" fill="white"/>
<path d="M7.33767 9.72163C7.47869 9.67756 8.09565 9.65993 7.98107 7.8531L7.82243 5.64965C7.8048 5.491 7.71666 5.35879 7.60208 5.27066C7.40818 5.09438 6.55324 4.96217 5.86576 4.96217H5.82169H5.77762C5.09015 4.96217 4.23521 5.09438 4.0413 5.27066C3.93554 5.36761 3.83858 5.491 3.82096 5.64965L3.66231 7.8531C3.54773 9.65993 4.1647 9.67756 4.30572 9.72163L3.54773 10.8498H4.0413L4.13825 10.7088H5.51321H5.87457H7.50513L7.60208 10.8498H8.09565L7.33767 9.72163ZM7.60208 8.76974C7.60208 8.95483 7.45225 9.10466 7.26716 9.10466C7.08207 9.10466 6.93223 8.95483 6.93223 8.76974C6.93223 8.58465 7.08207 8.43481 7.26716 8.43481C7.45225 8.44363 7.60208 8.59346 7.60208 8.76974ZM5.82169 9.72163H6.86172L7.00274 9.94198H5.88339H5.52202H4.64946L4.79048 9.72163H5.82169ZM4.38504 5.79067C4.57894 5.64965 5.25761 5.54389 5.79525 5.54389H5.82169H5.84813C6.38578 5.54389 7.06444 5.64965 7.25834 5.79067C7.34648 5.86118 7.4258 5.94051 7.43462 6.09034L7.40818 7.19207C7.36411 7.96768 7.25834 8.02057 7.04681 8.04701C7.04681 8.04701 6.49154 8.12633 5.81288 8.12633C5.13421 8.12633 4.57895 8.04701 4.57895 8.04701C4.37623 8.02057 4.27046 7.95887 4.21758 7.19207L4.19114 6.09034C4.21758 5.94051 4.2969 5.86118 4.38504 5.79067ZM4.05012 8.76974C4.05012 8.58465 4.19995 8.43481 4.38504 8.43481C4.57013 8.43481 4.71997 8.58465 4.71997 8.76974C4.71997 8.95483 4.57013 9.10466 4.38504 9.10466C4.19995 9.10466 4.05012 8.95483 4.05012 8.76974ZM5.88339 10.4267H5.52202H4.32334L4.49962 10.1623H5.52202H5.88339H7.15258L7.32885 10.4267H5.88339Z" fill="white"/>
</g>
<defs>
<clipPath id="clip0_201_1710">
<rect width="34.3739" height="24" fill="white" transform="translate(0.797791)"/>
</clipPath>
</defs>
</svg>
