<svg width="24" height="24" viewBox="0 0 24 24" fill="none" xmlns="http://www.w3.org/2000/svg">
<circle cx="12" cy="12" r="11.5" fill="#009DDB" stroke="#009DDB"/>
<path d="M12.5049 11.5928V13.2881H10.0986L11.9307 10.5195C12.0583 10.3281 12.1699 10.1458 12.2656 9.97266C12.3613 9.79492 12.4525 9.61263 12.5391 9.42578H12.5938C12.5892 9.49414 12.5801 9.61491 12.5664 9.78809C12.5573 9.95671 12.5482 10.1504 12.5391 10.3691L12.5117 11.0254C12.5072 11.2441 12.5049 11.4333 12.5049 11.5928Z" fill="#009DDB"/>
<path fill-rule="evenodd" clip-rule="evenodd" d="M24 12C24 18.6274 18.6274 24 12 24C5.37258 24 0 18.6274 0 12C0 5.37258 5.37258 0 12 0C18.6274 0 24 5.37258 24 12ZM14.5693 14.9287H15.7725V13.2881H14.5693V7.00586H12.6211L8.23926 13.459V14.9287H12.5049V17H14.5693V14.9287Z" fill="#009DDB"/>
</svg>
