<svg width="26" height="26" viewBox="0 0 26 26" fill="none" xmlns="http://www.w3.org/2000/svg">
<circle cx="13" cy="13" r="12.5" fill="white" stroke="white"/>
<path d="M25 13C25 19.6274 19.6274 25 13 25C6.37258 25 1 19.6274 1 13C1 6.37258 6.37258 1 13 1C19.6274 1 25 6.37258 25 13Z" fill="#65A233"/>
<path d="M16.5469 18H9.56055V16.5303L12.0693 13.9941C12.5752 13.4746 12.9808 13.0417 13.2861 12.6953C13.596 12.3444 13.8193 12.0254 13.9561 11.7383C14.0973 11.4512 14.168 11.1436 14.168 10.8154C14.168 10.4189 14.0563 10.1227 13.833 9.92676C13.6143 9.72624 13.3203 9.62598 12.9512 9.62598C12.5638 9.62598 12.1878 9.71484 11.8232 9.89258C11.4587 10.0703 11.0781 10.3232 10.6816 10.6514L9.5332 9.29102C9.82031 9.04492 10.1234 8.8125 10.4424 8.59375C10.766 8.375 11.1396 8.19954 11.5635 8.06738C11.9919 7.93066 12.5046 7.8623 13.1016 7.8623C13.7578 7.8623 14.3206 7.98079 14.79 8.21777C15.264 8.45475 15.6286 8.77832 15.8838 9.18848C16.139 9.59408 16.2666 10.0544 16.2666 10.5693C16.2666 11.1208 16.1572 11.6243 15.9385 12.0801C15.7197 12.5358 15.4007 12.987 14.9814 13.4336C14.5667 13.8802 14.0654 14.3747 13.4775 14.917L12.1924 16.127V16.2227H16.5469V18Z" fill="white"/>
</svg>
