<svg width="35" height="24" viewBox="0 0 35 24" fill="none" xmlns="http://www.w3.org/2000/svg">
<g clip-path="url(#clip0_201_1707)">
<path d="M22.0551 3.10246H0.223328V21.6379H22.0551V3.10246Z" fill="#221F1F"/>
<path d="M34.2093 11.9956C34.2093 18.412 29.0268 23.6122 22.6368 23.6122C16.2468 23.6122 11.0643 18.412 11.0643 11.9956C11.0643 5.59677 16.238 0.396618 22.6368 0.396618C29.0268 0.387804 34.2093 5.58795 34.2093 11.9956Z" fill="white"/>
<path d="M22.6457 24C16.053 24 10.6854 18.6148 10.6854 11.9956C10.6854 5.38524 16.0442 0 22.6457 0C29.2384 0 34.5972 5.38524 34.5972 11.9956C34.5972 18.6148 29.2384 24 22.6457 24ZM22.6457 0.784429C16.4848 0.784429 11.4698 5.81711 11.4698 11.9956C11.4698 18.1829 16.4848 23.2156 22.6457 23.2156C28.8066 23.2156 33.8216 18.1829 33.8216 11.9956C33.8216 5.8083 28.8066 0.784429 22.6457 0.784429Z" fill="#65A233"/>
<path d="M3.42279 13.5909H5.31776C6.39304 13.5909 7.12459 14.0757 7.12459 15.195C7.12459 15.9883 6.63102 16.5171 5.95235 16.6228V16.6493C6.18151 16.6845 6.4283 16.7903 6.6222 17.3544L7.41545 19.6724H6.2344L5.63506 17.6981C5.48522 17.2222 5.20318 17.0635 4.78893 17.0635H4.54214V19.6724H3.42279V13.5909ZM4.99165 16.235C5.58217 16.235 5.98761 15.9266 5.98761 15.3096C5.98761 14.6133 5.62624 14.437 4.99165 14.437H4.54214V16.2262H4.99165V16.235Z" fill="white"/>
<path d="M6.76314 9.72163C6.90416 9.67756 7.52113 9.65993 7.40655 7.8531L7.2479 5.64965C7.23027 5.491 7.14214 5.35879 7.02756 5.27066C6.83365 5.09438 5.97871 4.96217 5.29124 4.96217H5.24717H5.2031C4.51562 4.96217 3.66068 5.09438 3.46678 5.27066C3.36101 5.36761 3.26406 5.491 3.24643 5.64965L3.08778 7.8531C2.97321 9.65993 3.59017 9.67756 3.73119 9.72163L2.97321 10.8498H3.46678L3.56373 10.7088H4.93868H5.30005H6.9306L7.02756 10.8498H7.52113L6.76314 9.72163ZM7.02756 8.76974C7.02756 8.95483 6.87772 9.10466 6.69263 9.10466C6.50754 9.10466 6.35771 8.95483 6.35771 8.76974C6.35771 8.58465 6.50754 8.43481 6.69263 8.43481C6.87772 8.44363 7.02756 8.59346 7.02756 8.76974ZM5.24717 9.72163H6.2872L6.42822 9.94198H5.30886H4.9475H4.07493L4.21595 9.72163H5.24717ZM3.81052 5.79067C4.00442 5.64965 4.68308 5.54389 5.22073 5.54389H5.24717H5.27361C5.81125 5.54389 6.48991 5.64965 6.68382 5.79067C6.77196 5.86118 6.85128 5.94051 6.86009 6.09034L6.83365 7.19207C6.78958 7.96768 6.68382 8.02057 6.47229 8.04701C6.47229 8.04701 5.91702 8.12633 5.23835 8.12633C4.55969 8.12633 4.00442 8.04701 4.00442 8.04701C3.8017 8.02057 3.69594 7.95887 3.64305 7.19207L3.61661 6.09034C3.64305 5.94051 3.72238 5.86118 3.81052 5.79067ZM3.47559 8.76974C3.47559 8.58465 3.62543 8.43481 3.81052 8.43481C3.99561 8.43481 4.14544 8.58465 4.14544 8.76974C4.14544 8.95483 3.99561 9.10466 3.81052 9.10466C3.62543 9.10466 3.47559 8.95483 3.47559 8.76974ZM5.30886 10.4267H4.9475H3.74882L3.9251 10.1623H4.9475H5.30886H6.57805L6.75433 10.4267H5.30886Z" fill="white"/>
</g>
<defs>
<clipPath id="clip0_201_1707">
<rect width="34.3739" height="24" fill="white" transform="translate(0.223328)"/>
</clipPath>
</defs>
</svg>
