<svg width="35" height="24" viewBox="0 0 35 24" fill="none" xmlns="http://www.w3.org/2000/svg">
<g clip-path="url(#clip0_201_1747)">
<path d="M22.429 3.10246H0.597168V21.6379H22.429V3.10246Z" fill="#221F1F"/>
<path d="M34.5832 11.9956C34.5832 18.412 29.4007 23.6122 23.0106 23.6122C16.6206 23.6122 11.4381 18.412 11.4381 11.9956C11.4381 5.59677 16.6118 0.396618 23.0106 0.396618C29.4007 0.387804 34.5832 5.58795 34.5832 11.9956Z" fill="white"/>
<path d="M23.0195 24C16.4268 24 11.0592 18.6148 11.0592 11.9956C11.0592 5.38524 16.418 0 23.0195 0C29.6123 0 34.9711 5.38524 34.9711 11.9956C34.9711 18.6148 29.6123 24 23.0195 24ZM23.0195 0.784429C16.8587 0.784429 11.8436 5.81711 11.8436 11.9956C11.8436 18.1829 16.8587 23.2156 23.0195 23.2156C29.1804 23.2156 34.1954 18.1829 34.1954 11.9956C34.1954 5.8083 29.1804 0.784429 23.0195 0.784429Z" fill="#8F7200"/>
<path d="M3.79663 13.5909H5.6916C6.76688 13.5909 7.49843 14.0757 7.49843 15.195C7.49843 15.9883 7.00486 16.5171 6.32619 16.6228V16.6493C6.55535 16.6845 6.80214 16.7903 6.99604 17.3544L7.78929 19.6724H6.60824L6.0089 17.6981C5.85906 17.2222 5.57702 17.0635 5.16277 17.0635H4.91598V19.6724H3.79663V13.5909ZM5.36549 16.235C5.95601 16.235 6.36145 15.9266 6.36145 15.3096C6.36145 14.6133 6.00008 14.437 5.36549 14.437H4.91598V16.2262H5.36549V16.235Z" fill="white"/>
<path d="M19.4763 16.0059C19.9435 16.235 20.7632 16.614 21.9266 16.614C23.1958 16.614 24.1565 15.8649 24.1565 14.5957C24.1565 13.1855 22.9049 12.7712 21.8032 12.7712C21.4683 12.7712 21.1598 12.7888 20.913 12.8241V11.1318H21.2744C22.6669 11.1318 24.0948 10.7969 24.0948 9.28976C24.0948 8.17921 23.1341 7.66801 22.1293 7.66801C21.3978 7.66801 20.5604 7.9148 19.8113 8.25854L19.6879 6.39883C20.296 6.20492 21.2391 5.89644 22.6141 5.89644C24.7558 5.89644 26.2542 6.97172 26.2542 8.95483C26.2542 11.1142 24.6853 11.6695 23.9009 11.7752V11.8105C25.0114 12.1278 26.4393 12.5773 26.4393 14.7543C26.4393 17.1869 24.4385 18.3944 22.2263 18.3944C21.0276 18.3944 20.1021 18.13 19.3353 17.8744L19.4763 16.0059Z" fill="#8F7200"/>
<path d="M7.13698 9.72163C7.278 9.67756 7.89497 9.65993 7.78039 7.8531L7.62174 5.64965C7.60411 5.491 7.51598 5.35879 7.4014 5.27066C7.20749 5.09438 6.35255 4.96217 5.66508 4.96217H5.62101H5.57694C4.88946 4.96217 4.03452 5.09438 3.84062 5.27066C3.73485 5.36761 3.6379 5.491 3.62027 5.64965L3.46163 7.8531C3.34705 9.65993 3.96401 9.67756 4.10503 9.72163L3.34705 10.8498H3.84062L3.93757 10.7088H5.31252H5.67389H7.30445L7.4014 10.8498H7.89497L7.13698 9.72163ZM7.4014 8.76974C7.4014 8.95483 7.25156 9.10466 7.06647 9.10466C6.88138 9.10466 6.73155 8.95483 6.73155 8.76974C6.73155 8.58465 6.88138 8.43481 7.06647 8.43481C7.25156 8.44363 7.4014 8.59346 7.4014 8.76974ZM5.62101 9.72163H6.66104L6.80206 9.94198H5.6827H5.32134H4.44877L4.58979 9.72163H5.62101ZM4.18436 5.79067C4.37826 5.64965 5.05692 5.54389 5.59457 5.54389H5.62101H5.64745C6.18509 5.54389 6.86376 5.64965 7.05766 5.79067C7.1458 5.86118 7.22512 5.94051 7.23394 6.09034L7.20749 7.19207C7.16342 7.96768 7.05766 8.02057 6.84613 8.04701C6.84613 8.04701 6.29086 8.12633 5.61219 8.12633C4.93353 8.12633 4.37826 8.04701 4.37826 8.04701C4.17554 8.02057 4.06978 7.95887 4.0169 7.19207L3.99045 6.09034C4.0169 5.94051 4.09622 5.86118 4.18436 5.79067ZM3.84943 8.76974C3.84943 8.58465 3.99927 8.43481 4.18436 8.43481C4.36945 8.43481 4.51928 8.58465 4.51928 8.76974C4.51928 8.95483 4.36945 9.10466 4.18436 9.10466C3.99927 9.10466 3.84943 8.95483 3.84943 8.76974ZM5.6827 10.4267H5.32134H4.12266L4.29894 10.1623H5.32134H5.6827H6.95189L7.12817 10.4267H5.6827Z" fill="white"/>
</g>
<defs>
<clipPath id="clip0_201_1747">
<rect width="34.3739" height="24" fill="white" transform="translate(0.597168)"/>
</clipPath>
</defs>
</svg>
