<svg width="25" height="24" viewBox="0 0 25 24" fill="none" xmlns="http://www.w3.org/2000/svg">
<path d="M24.1653 12C24.1653 18.6274 18.7928 24 12.1653 24C5.53793 24 0.165344 18.6274 0.165344 12C0.165344 5.37258 5.53793 0 12.1653 0C18.7928 0 24.1653 5.37258 24.1653 12Z" fill="#8F7200"/>
<path d="M15.3226 9.24121C15.3226 9.7015 15.2269 10.1003 15.0355 10.4375C14.8441 10.7747 14.5843 11.0505 14.2562 11.2646C13.9326 11.4788 13.568 11.6361 13.1624 11.7363V11.7773C13.9645 11.8776 14.5729 12.1237 14.9876 12.5156C15.4069 12.9076 15.6165 13.4316 15.6165 14.0879C15.6165 14.6712 15.473 15.193 15.1859 15.6533C14.9033 16.1136 14.4658 16.4759 13.8734 16.7402C13.2809 17.0046 12.5176 17.1367 11.5833 17.1367C11.0319 17.1367 10.5169 17.0911 10.0384 17C9.56443 16.9134 9.11782 16.779 8.69855 16.5967V14.7988C9.12693 15.0176 9.57583 15.1839 10.0452 15.2979C10.5146 15.4072 10.9521 15.4619 11.3577 15.4619C12.1142 15.4619 12.6429 15.332 12.9437 15.0723C13.249 14.8079 13.4017 14.4388 13.4017 13.9648C13.4017 13.6868 13.331 13.4521 13.1898 13.2607C13.0485 13.0693 12.8024 12.9235 12.4515 12.8232C12.1051 12.723 11.6198 12.6729 10.9954 12.6729H10.2366V11.0527H11.0091C11.6243 11.0527 12.0915 10.9958 12.4105 10.8818C12.734 10.7633 12.9528 10.6038 13.0667 10.4033C13.1852 10.1982 13.2444 9.96582 13.2444 9.70605C13.2444 9.35059 13.1351 9.07259 12.9163 8.87207C12.6976 8.67155 12.333 8.57129 11.8226 8.57129C11.5036 8.57129 11.2119 8.6123 10.9476 8.69434C10.6878 8.77181 10.4531 8.86751 10.2435 8.98145C10.0338 9.09082 9.84926 9.19792 9.68976 9.30273L8.71222 7.84668C9.10415 7.56413 9.56215 7.32943 10.0862 7.14258C10.6149 6.95573 11.2438 6.8623 11.973 6.8623C13.0029 6.8623 13.8187 7.06966 14.4202 7.48438C15.0218 7.89909 15.3226 8.4847 15.3226 9.24121Z" fill="white"/>
</svg>
