<svg width="24" height="24" viewBox="0 0 24 24" fill="none" xmlns="http://www.w3.org/2000/svg">
<path d="M24 12C24 18.6274 18.6274 24 12 24C5.37258 24 0 18.6274 0 12C0 5.37258 5.37258 0 12 0C18.6274 0 24 5.37258 24 12Z" fill="#8F7200"/>
<path d="M15.1572 9.24121C15.1572 9.7015 15.0615 10.1003 14.8701 10.4375C14.6787 10.7747 14.4189 11.0505 14.0908 11.2646C13.7673 11.4788 13.4027 11.6361 12.9971 11.7363V11.7773C13.7992 11.8776 14.4076 12.1237 14.8223 12.5156C15.2415 12.9076 15.4512 13.4316 15.4512 14.0879C15.4512 14.6712 15.3076 15.193 15.0205 15.6533C14.738 16.1136 14.3005 16.4759 13.708 16.7402C13.1156 17.0046 12.3522 17.1367 11.418 17.1367C10.8665 17.1367 10.3516 17.0911 9.87305 17C9.39909 16.9134 8.95247 16.779 8.5332 16.5967V14.7988C8.96159 15.0176 9.41048 15.1839 9.87988 15.2979C10.3493 15.4072 10.7868 15.4619 11.1924 15.4619C11.9489 15.4619 12.4775 15.332 12.7783 15.0723C13.0837 14.8079 13.2363 14.4388 13.2363 13.9648C13.2363 13.6868 13.1657 13.4521 13.0244 13.2607C12.8831 13.0693 12.637 12.9235 12.2861 12.8232C11.9398 12.723 11.4544 12.6729 10.8301 12.6729H10.0713V11.0527H10.8438C11.459 11.0527 11.9261 10.9958 12.2451 10.8818C12.5687 10.7633 12.7874 10.6038 12.9014 10.4033C13.0199 10.1982 13.0791 9.96582 13.0791 9.70605C13.0791 9.35059 12.9697 9.07259 12.751 8.87207C12.5322 8.67155 12.1676 8.57129 11.6572 8.57129C11.3382 8.57129 11.0465 8.6123 10.7822 8.69434C10.5225 8.77181 10.2878 8.86751 10.0781 8.98145C9.86849 9.09082 9.68392 9.19792 9.52441 9.30273L8.54688 7.84668C8.9388 7.56413 9.39681 7.32943 9.9209 7.14258C10.4495 6.95573 11.0785 6.8623 11.8076 6.8623C12.8376 6.8623 13.6533 7.06966 14.2549 7.48438C14.8564 7.89909 15.1572 8.4847 15.1572 9.24121Z" fill="white"/>
</svg>
