<svg width="24" height="24" viewBox="0 0 24 24" fill="none" xmlns="http://www.w3.org/2000/svg">
<circle cx="12" cy="12" r="12" fill="white"/>
<path d="M24 12C24 18.6274 18.6274 24 12 24C5.37258 24 0 18.6274 0 12C0 5.37258 5.37258 0 12 0C18.6274 0 24 5.37258 24 12Z" fill="#D30F1D"/>
<path d="M12.7832 17H10.6709V11.2168C10.6709 11.0573 10.6732 10.8613 10.6777 10.6289C10.6823 10.3919 10.6891 10.1504 10.6982 9.9043C10.7074 9.65365 10.7165 9.42806 10.7256 9.22754C10.6755 9.28678 10.5729 9.38932 10.418 9.53516C10.2676 9.67643 10.1263 9.80404 9.99414 9.91797L8.8457 10.8408L7.82715 9.56934L11.0469 7.00586H12.7832V17Z" fill="white"/>
</svg>
