<svg width="26" height="26" viewBox="0 0 26 26" fill="none" xmlns="http://www.w3.org/2000/svg">
<circle cx="13" cy="13" r="12.5" fill="white" stroke="white"/>
<path d="M13.5049 12.5928V14.2881H11.0986L12.9307 11.5195C13.0583 11.3281 13.1699 11.1458 13.2656 10.9727C13.3613 10.7949 13.4525 10.6126 13.5391 10.4258H13.5938C13.5892 10.4941 13.5801 10.6149 13.5664 10.7881C13.5573 10.9567 13.5482 11.1504 13.5391 11.3691L13.5117 12.0254C13.5072 12.2441 13.5049 12.4333 13.5049 12.5928Z" fill="#109ED9"/>
<path fill-rule="evenodd" clip-rule="evenodd" d="M25 13C25 19.6274 19.6274 25 13 25C6.37258 25 1 19.6274 1 13C1 6.37258 6.37258 1 13 1C19.6274 1 25 6.37258 25 13ZM15.5693 15.9287H16.7725V14.2881H15.5693V8.00586H13.6211L9.23926 14.459V15.9287H13.5049V18H15.5693V15.9287Z" fill="#109ED9"/>
</svg>
