<svg width="22" height="22" viewBox="0 0 22 22" fill="none" xmlns="http://www.w3.org/2000/svg">
<g clip-path="url(#clip0_443_18319)">
<path d="M21.4266 10.6611C21.4526 16.5782 16.6825 21.4005 10.7654 21.4265C4.84836 21.4526 0.0260811 16.6824 1.47693e-05 10.7915C-0.0260516 4.84833 4.74409 0.0260506 10.6612 -1.57483e-05C16.5782 -0.0260821 21.4005 4.74406 21.4266 10.6611Z" fill="#999999"/>
<path d="M21.3223 10.7654L10.7394 0.677734L0.286743 10.8957L6.69907 10.8436L6.7512 22L15.1446 21.9479L15.0664 10.8175L21.3223 10.7654Z" fill="white"/>
<path d="M8.49764 7.16823C8.49764 6.69903 8.47157 6.38624 8.4455 6.25591C8.41944 6.15164 8.34124 6.09951 8.13271 6.07344L7.84598 6.04738V5.63031C8.15877 5.63031 8.47157 5.65638 8.7583 5.65638C8.9929 5.65638 9.20143 5.63031 9.40996 5.63031C9.67062 6.12558 9.93129 6.6469 10.218 7.1161L12.6422 11.1824L12.6161 7.16823C12.6161 6.69903 12.6161 6.38624 12.564 6.25591C12.5379 6.15164 12.4597 6.09951 12.2512 6.07344L11.9645 6.04738V5.63031C12.2512 5.63031 12.564 5.65638 12.8507 5.65638C13.1374 5.65638 13.4502 5.63031 13.737 5.60425V6.02131L13.4502 6.04738C13.2417 6.07344 13.1635 6.12557 13.1374 6.22984C13.0853 6.36017 13.0853 6.67297 13.0853 7.14216L13.1114 12.2251C13.1114 12.6161 13.1374 13.0332 13.1374 13.346L13.0853 13.3981L12.4597 13.2678C12.1469 12.7464 11.8081 12.2251 11.5213 11.7038L8.9929 7.35069V11.7298C8.9929 12.199 8.9929 12.5118 9.04503 12.6422C9.09716 12.7464 9.17536 12.8246 9.35783 12.8246L9.64456 12.8507V13.2678C9.35783 13.2417 9.0711 13.2417 8.7583 13.2417C8.47157 13.2417 8.15877 13.2678 7.87204 13.2678V12.8507L8.15877 12.8246C8.3673 12.7986 8.4455 12.7464 8.47157 12.6422C8.5237 12.5118 8.5237 12.199 8.5237 11.7298L8.49764 7.16823Z" fill="#999999" stroke="#999999" stroke-width="1.0781" stroke-miterlimit="2"/>
</g>
<defs>
<clipPath id="clip0_443_18319">
<rect width="21.4265" height="22" fill="white"/>
</clipPath>
</defs>
</svg>
