<svg width="24" height="24" viewBox="0 0 24 24" fill="none" xmlns="http://www.w3.org/2000/svg">
<path d="M20.8 1H7.6C6.39 1 5.4 1.99 5.4 3.2V16.4C5.4 17.61 6.39 18.6 7.6 18.6H20.8C22.01 18.6 23 17.61 23 16.4V3.2C23 1.99 22.01 1 20.8 1ZM11.45 9.25C11.45 10.163 10.713 10.9 9.8 10.9H8.7V13.1H7.05V6.5H9.8C10.713 6.5 11.45 7.237 11.45 8.15V9.25ZM16.95 11.45C16.95 12.363 16.213 13.1 15.3 13.1H12.55V6.5H15.3C16.213 6.5 16.95 7.237 16.95 8.15V11.45ZM21.35 8.15H19.7V9.25H21.35V10.9H19.7V13.1H18.05V6.5H21.35V8.15ZM8.7 9.25H9.8V8.15H8.7V9.25ZM3.2 5.4H1V20.8C1 22.01 1.99 23 3.2 23H18.6V20.8H3.2V5.4ZM14.2 11.45H15.3V8.15H14.2V11.45Z" fill="#3D3A4D"/>
</svg>
