<svg width="35" height="24" viewBox="0 0 35 24" fill="none" xmlns="http://www.w3.org/2000/svg">
<g clip-path="url(#clip0_336_15110)">
<path d="M22.8133 2.58447H0.597168V21.1196H22.8133V2.58447Z" fill="#231F20"/>
<path d="M34.2389 12C34.2389 18.4133 29.0526 23.6171 22.6653 23.6171C16.2781 23.6171 11.0917 18.4133 11.0917 12C11.0917 5.59536 16.2694 0.391586 22.6653 0.391586C29.0613 0.391586 34.2389 5.59536 34.2389 12Z" fill="white"/>
<path d="M22.6741 24C16.078 24 10.7089 18.6135 10.7089 11.9913C10.7089 5.37781 16.078 0 22.6741 0C29.2701 0 34.6392 5.37781 34.6392 12C34.6305 18.6135 29.2701 24 22.6741 24ZM22.6741 0.783176C16.5131 0.783176 11.492 5.81291 11.492 12C11.492 18.1871 16.5044 23.2255 22.6741 23.2255C28.835 23.2255 33.8561 18.1871 33.8561 12C33.8474 5.81291 28.835 0.783176 22.6741 0.783176Z" fill="#1A559B"/>
<path d="M3.46881 19.0051V13.14H4.2955L6.17512 16.1073C6.61022 16.7948 6.94959 17.4126 7.22806 18.0131L7.24546 18.0043C7.17585 17.2212 7.15844 16.5076 7.15844 15.5939V13.14H7.872V19.0051H7.10623L5.24401 16.029C4.83502 15.3764 4.44343 14.7063 4.14756 14.0711L4.12146 14.0798C4.16497 14.8194 4.18237 15.5243 4.18237 16.4989V19.0051H3.46881Z" fill="#FFD100"/>
<path d="M2.95542 8.37128C2.60734 6.76142 3.72119 5.16026 5.43547 4.78607C6.73207 4.50761 7.99385 5.00362 8.69001 5.95214C8.08957 5.69108 7.38471 5.61276 6.67985 5.7694C4.97427 6.14358 3.86042 7.74474 4.2085 9.3546C4.29552 9.75489 4.46086 10.1117 4.68711 10.4249C3.82561 10.0508 3.16426 9.3198 2.95542 8.37128Z" fill="#FFD100"/>
<path d="M7.83717 6.81363L7.56741 7.34445L6.98438 7.43147L7.41077 7.84916L7.30635 8.43219L7.83717 8.15373L8.35928 8.43219L8.25486 7.84916L8.68126 7.43147L8.09823 7.34445L7.83717 6.81363Z" fill="#FFD100"/>
<path d="M5.74874 7.23132L5.64432 7.44887L5.40936 7.48368L5.5747 7.64902L5.53989 7.88397L5.74874 7.77085L5.95759 7.88397L5.91408 7.64902L6.08812 7.48368L5.85316 7.44887L5.74874 7.23132Z" fill="#FFD100"/>
<path d="M6.13161 8.8934L5.99238 9.18057L5.67041 9.22408L5.90536 9.45033L5.84445 9.7723L6.13161 9.62437L6.41878 9.7723L6.36657 9.45033L6.59282 9.22408L6.27955 9.18057L6.13161 8.8934Z" fill="#FFD100"/>
</g>
<defs>
<clipPath id="clip0_336_15110">
<rect width="34.0421" height="24" fill="white" transform="translate(0.597168)"/>
</clipPath>
</defs>
</svg>
