<svg width="33" height="18" viewBox="0 0 33 18" fill="none" xmlns="http://www.w3.org/2000/svg">
<g clip-path="url(#clip0_201_4287)">
<path d="M22.751 18H9.47056C4.51274 18 0.165344 13.8015 0.165344 9.00744C0.165344 4.19851 4.51274 0 9.47056 0H22.751C27.7088 0 32.0562 4.19851 32.0562 9.00744C32.0562 13.8015 27.7088 18 22.751 18ZM9.47056 1.07196C5.0785 1.07196 1.2373 4.77916 1.2373 9.00744C1.2373 13.2357 5.0785 16.9429 9.47056 16.9429H22.751C27.143 16.9429 30.9842 13.2357 30.9842 9.00744C30.9842 4.77916 27.143 1.07196 22.751 1.07196H9.47056Z" fill="#AC5B8C"/>
</g>
<defs>
<clipPath id="clip0_201_4287">
<rect width="31.8908" height="18" fill="white" transform="translate(0.165344)"/>
</clipPath>
</defs>
</svg>
