<svg width="24" height="24" viewBox="0 0 24 24" fill="none" xmlns="http://www.w3.org/2000/svg">
<mask id="mask0_335_5867" style="mask-type:luminance" maskUnits="userSpaceOnUse" x="4" y="0" width="16" height="24">
<path d="M19.7 0H4.28998V24H19.7V0Z" fill="white"/>
</mask>
<g mask="url(#mask0_335_5867)">
<path d="M15.61 6.84001C15.6094 6.95687 15.5783 7.07155 15.5198 7.17268C15.4612 7.27381 15.3772 7.35786 15.2761 7.41649C15.175 7.47512 15.0604 7.50629 14.9435 7.50691C14.8266 7.50752 14.7117 7.47757 14.61 7.42001C13.7448 6.93581 12.7714 6.67784 11.78 6.67001C10.9363 6.67402 10.1037 6.8617 9.33996 7.22001C9.17818 7.29825 8.99194 7.30901 8.82222 7.24994C8.6525 7.19087 8.5132 7.06679 8.43496 6.90501C8.35672 6.74323 8.34595 6.55699 8.40503 6.38727C8.4641 6.21755 8.58818 6.07825 8.74996 6.00001C9.68717 5.55371 10.7119 5.32143 11.75 5.32001C12.9746 5.31938 14.178 5.64006 15.24 6.25001C15.3408 6.30942 15.4244 6.39424 15.4823 6.496C15.5402 6.59777 15.5704 6.71293 15.57 6.83001" fill="#EC1C2E"/>
<path d="M16.8299 4.48C16.8296 4.59287 16.7985 4.70352 16.7399 4.8C16.699 4.87857 16.6427 4.94811 16.5744 5.00447C16.5061 5.06082 16.4271 5.10285 16.3422 5.12805C16.2573 5.15324 16.1682 5.16109 16.0802 5.15111C15.9922 5.14114 15.9071 5.11356 15.8299 5.07C14.6039 4.4006 13.2268 4.05633 11.8299 4.07C10.5409 4.08703 9.27379 4.40553 8.12993 5C7.9708 5.0809 7.78605 5.09526 7.61633 5.03994C7.44661 4.98461 7.30582 4.86413 7.22493 4.705C7.14404 4.54587 7.12967 4.36113 7.185 4.19141C7.24032 4.02169 7.3608 3.8809 7.51993 3.8C8.87115 3.13936 10.3558 2.79726 11.8599 2.8C13.467 2.80902 15.047 3.21433 16.4599 3.98C16.566 4.03768 16.6546 4.12295 16.7162 4.22681C16.7778 4.33067 16.8102 4.44925 16.8099 4.57" fill="#EC1C2E"/>
<path d="M18.15 2.06C18.1532 2.17199 18.1255 2.2827 18.07 2.38C18.0282 2.45773 17.9713 2.52629 17.9026 2.58163C17.8338 2.63698 17.7547 2.67799 17.6699 2.70223C17.585 2.72647 17.4962 2.73345 17.4086 2.72276C17.321 2.71207 17.2365 2.68393 17.16 2.64C15.6273 1.7978 13.9088 1.351 12.16 1.34C10.2892 1.34172 8.45283 1.84225 6.83996 2.79C6.76445 2.83531 6.68076 2.8653 6.59366 2.87826C6.50656 2.89122 6.41776 2.8869 6.33233 2.86554C6.2469 2.84418 6.16651 2.80621 6.09576 2.75378C6.025 2.70136 5.96527 2.63551 5.91996 2.56C5.87466 2.48449 5.84467 2.4008 5.8317 2.3137C5.81874 2.2266 5.82307 2.1378 5.84442 2.05237C5.86578 1.96694 5.90376 1.88655 5.95618 1.8158C6.0086 1.74504 6.07445 1.68531 6.14996 1.64C7.96768 0.567465 10.0394 0.00119029 12.15 0C14.1334 0.00652282 16.0832 0.512045 17.82 1.47C17.9249 1.52815 18.012 1.61381 18.0719 1.71777C18.1318 1.82172 18.1623 1.94004 18.16 2.06" fill="#EC1C2E"/>
<path d="M14.8899 16.35C14.8955 16.7296 14.8242 17.1065 14.6806 17.4579C14.5369 17.8094 14.3237 18.1282 14.0539 18.3953C13.784 18.6624 13.463 18.8722 13.11 19.0122C12.7571 19.1522 12.3795 19.2195 11.9999 19.21C11.6165 19.2235 11.2343 19.1594 10.8762 19.0215C10.5182 18.8837 10.1916 18.675 9.91613 18.408C9.64066 18.1409 9.42195 17.821 9.27311 17.4673C9.12427 17.1137 9.04837 16.7337 9.04995 16.35C9.03916 15.9573 9.10772 15.5665 9.25152 15.2009C9.39531 14.8354 9.61139 14.5026 9.88682 14.2225C10.1622 13.9424 10.4914 13.7208 10.8544 13.5708C11.2175 13.4209 11.6071 13.3458 11.9999 13.35C12.3864 13.3537 12.7681 13.4349 13.1226 13.5888C13.4771 13.7426 13.7972 13.966 14.0638 14.2457C14.3305 14.5254 14.5383 14.8558 14.6751 15.2172C14.8118 15.5786 14.8747 15.9638 14.8599 16.35M4.25995 16.25C4.25995 18.2922 5.0712 20.2507 6.51523 21.6947C7.95926 23.1387 9.91778 23.95 11.9599 23.95C14.0021 23.95 15.9606 23.1387 17.4047 21.6947C18.8487 20.2507 19.6599 18.2922 19.6599 16.25C19.6599 14.2078 18.8487 12.2493 17.4047 10.8053C15.9606 9.36124 14.0021 8.54999 11.9599 8.54999C9.91778 8.54999 7.95926 9.36124 6.51523 10.8053C5.0712 12.2493 4.25995 14.2078 4.25995 16.25Z" fill="#EC1C2E"/>
</g>
</svg>
