<svg width="24" height="24" viewBox="0 0 24 24" fill="none" xmlns="http://www.w3.org/2000/svg">
<g clip-path="url(#clip0_335_5864)">
<g clip-path="url(#clip1_335_5864)">
<path d="M24 0H0V24H24V0Z" fill="#FFDF1C"/>
<path d="M4.48999 16.985H5.83999V17.375H5.40499V18.46H4.91999V17.375H4.48999" fill="#020202"/>
<path d="M6.5 17.33H6.725C6.84 17.33 6.92 17.38 6.92 17.48C6.92 17.58 6.84 17.625 6.69 17.625H6.5M6.645 17.945C6.875 17.945 6.905 18.01 6.905 18.205C6.90236 18.2907 6.91077 18.3764 6.93 18.46H7.43V18.415C7.375 18.415 7.38 18.35 7.38 18.16C7.38 17.86 7.285 17.825 7.13 17.765C7.20651 17.7431 7.27293 17.6951 7.31769 17.6294C7.36246 17.5636 7.38274 17.4842 7.375 17.405C7.375 17.12 7.215 16.985 6.72 16.985H6.03V18.485H6.53V17.985L6.645 17.945Z" fill="#020202"/>
<path d="M8.445 17.96H8.14L8.29 17.43M8 18.46L8.06 18.27H8.56L8.615 18.46H9.115L8.59 16.96H8.09L7.56 18.46H8Z" fill="#020202"/>
<path d="M10.21 17.79L10.195 17.455V16.985H10.655V18.46H10.205L9.67999 17.655L9.69499 17.995V18.46H9.23499V16.985H9.68499" fill="#020202"/>
<path d="M11.705 17.415C11.7025 17.3945 11.6954 17.3748 11.6841 17.3574C11.6729 17.3401 11.6578 17.3256 11.64 17.315C11.6011 17.2962 11.5581 17.2876 11.515 17.29C11.405 17.29 11.36 17.32 11.36 17.37C11.36 17.595 12.205 17.455 12.205 17.99C12.205 18.335 11.925 18.49 11.515 18.49C11.3627 18.5085 11.2093 18.4665 11.0877 18.373C10.9661 18.2794 10.8862 18.1419 10.865 17.99H11.325C11.3348 18.039 11.3636 18.0821 11.405 18.11C11.4475 18.1344 11.496 18.1465 11.545 18.145C11.665 18.145 11.745 18.11 11.745 18.035C11.745 17.815 10.9 17.965 10.9 17.405C10.9 17.09 11.17 16.935 11.535 16.935C11.9 16.935 12.13 17.145 12.165 17.4" fill="#020202"/>
<path d="M12.43 18.46V16.985H13.635V17.33H12.915V17.545H13.52V17.885H12.915V18.12H13.66V18.46" fill="#020202"/>
<path d="M14.815 17.55C14.8144 17.5165 14.807 17.4835 14.7931 17.453C14.7793 17.4224 14.7593 17.3951 14.7345 17.3726C14.7097 17.3501 14.6805 17.3329 14.6487 17.3222C14.617 17.3114 14.5834 17.3073 14.55 17.31C14.38 17.31 14.28 17.455 14.28 17.74C14.28 17.945 14.325 18.14 14.57 18.14C14.725 18.14 14.8 18.03 14.82 17.89H15.28C15.2743 17.9761 15.2516 18.0602 15.2133 18.1375C15.175 18.2148 15.1218 18.2838 15.0568 18.3405C14.9917 18.3971 14.9161 18.4404 14.8343 18.4678C14.7525 18.4952 14.6661 18.5061 14.58 18.5C14.3745 18.5066 14.1747 18.4313 14.0247 18.2907C13.8746 18.15 13.7866 17.9555 13.78 17.75C13.7734 17.5445 13.8487 17.3447 13.9893 17.1947C14.13 17.0446 14.3245 16.9566 14.53 16.95C14.6188 16.9374 14.7092 16.9432 14.7957 16.967C14.8822 16.9909 14.9628 17.0322 15.0327 17.0884C15.1025 17.1447 15.16 17.2147 15.2017 17.2941C15.2434 17.3735 15.2684 17.4606 15.275 17.55" fill="#020202"/>
<path d="M15.5 17H16V17.885C16 18.03 16.03 18.155 16.23 18.155C16.43 18.155 16.455 18.045 16.455 17.885V17H16.955V17.835C16.955 18.335 16.74 18.515 16.25 18.515C15.76 18.515 15.5 18.325 15.5 17.82" fill="#020202"/>
<path d="M17.655 17.33H17.885C17.995 17.33 18.08 17.38 18.08 17.48C18.08 17.58 18 17.625 17.85 17.625H17.655M17.805 17.945C18.03 17.945 18.065 18.01 18.065 18.205C18.0517 18.2895 18.0517 18.3755 18.065 18.46H18.565V18.415C18.51 18.415 18.515 18.35 18.515 18.16C18.515 17.86 18.42 17.825 18.265 17.765C18.3424 17.7441 18.41 17.6965 18.4557 17.6306C18.5015 17.5648 18.5225 17.4848 18.515 17.405C18.515 17.12 18.355 16.985 17.86 16.985H17.175V18.485H17.675V17.985L17.805 17.945Z" fill="#020202"/>
<path d="M18.805 18.46V16.985H20.005V17.33H19.285V17.545H19.89V17.885H19.285V18.12H20.03V18.46" fill="#020202"/>
<path d="M11.115 8.12C10.9454 8.13458 10.7874 8.21228 10.6722 8.33772C10.5571 8.46316 10.4933 8.62723 10.4933 8.79749C10.4933 8.96776 10.5571 9.13182 10.6722 9.25727C10.7874 9.38271 10.9454 9.46041 11.115 9.475C11.2045 9.47462 11.293 9.4559 11.375 9.42C11.2977 9.40919 11.2268 9.3709 11.1754 9.31214C11.124 9.25338 11.0954 9.17807 11.095 9.1C11.0994 9.02104 11.1321 8.94631 11.187 8.8894C11.2419 8.83249 11.3154 8.79719 11.3941 8.78992C11.4729 8.78265 11.5516 8.8039 11.616 8.8498C11.6804 8.89569 11.7262 8.96319 11.745 9.04C11.7753 8.96362 11.7905 8.88214 11.79 8.8C11.7907 8.71093 11.7737 8.62262 11.7401 8.54015C11.7064 8.45768 11.6568 8.38267 11.5941 8.31946C11.5313 8.25625 11.4567 8.20608 11.3745 8.17185C11.2922 8.13762 11.2041 8.11999 11.115 8.12Z" fill="black"/>
<path d="M11.115 8.12C10.9454 8.13458 10.7874 8.21228 10.6722 8.33772C10.5571 8.46316 10.4933 8.62723 10.4933 8.79749C10.4933 8.96776 10.5571 9.13182 10.6722 9.25727C10.7874 9.38271 10.9454 9.46041 11.115 9.475C11.2045 9.47462 11.293 9.4559 11.375 9.42C11.2977 9.40919 11.2268 9.3709 11.1754 9.31214C11.124 9.25338 11.0954 9.17807 11.095 9.1C11.0994 9.02104 11.1321 8.94631 11.187 8.8894C11.2419 8.83249 11.3154 8.79719 11.3941 8.78992C11.4729 8.78265 11.5516 8.8039 11.616 8.8498C11.6804 8.89569 11.7262 8.96319 11.745 9.04C11.7753 8.96362 11.7905 8.88214 11.79 8.8C11.7907 8.71093 11.7737 8.62262 11.7401 8.54015C11.7064 8.45768 11.6568 8.38267 11.5941 8.31946C11.5313 8.25625 11.4567 8.20608 11.3745 8.17185C11.2922 8.13762 11.2041 8.11999 11.115 8.12Z" fill="black"/>
<path d="M16.13 15.635C15.77 14.635 17.035 15.75 17.035 15.75C17.24 15.93 16.89 15.03 17.035 15.16C19.225 17.05 16.925 14.39 17.735 14.78C18.325 15.065 19.395 16.235 19.395 16.03C19.395 15.825 20.335 14.17 18.065 11.8C15.795 9.43001 12.66 10.875 12.66 10.875C12.99 9.01501 12.525 8.09501 12.525 8.09501C12.3574 7.76743 12.0845 7.50573 11.7502 7.35199C11.4159 7.19825 11.0396 7.16142 10.6818 7.2474C10.324 7.33338 10.0055 7.53719 9.77759 7.82605C9.54964 8.11491 9.42546 8.47204 9.42501 8.84001C9.42611 8.46557 9.29904 8.10202 9.06492 7.8098C8.8308 7.51757 8.50374 7.31426 8.13807 7.23365C7.77241 7.15304 7.39017 7.19998 7.05488 7.36669C6.71959 7.53339 6.45145 7.80981 6.29501 8.15001C5.94963 9.04551 5.87658 10.0231 6.08501 10.96C1.23501 12.96 6.20001 16.485 6.48001 16.335C6.76001 16.185 6.36501 14.71 6.44001 14.63C6.51501 14.55 6.51501 14.915 6.74501 14.835C6.97501 14.755 6.74501 13.495 7.02501 14.045C7.554 15.0358 8.38628 15.8313 9.40001 16.315C10.0779 15.9916 10.6666 15.5076 11.115 14.905C11.27 15.435 14.285 16.775 14.615 15.225C14.615 15.225 16.47 16.555 16.115 15.64M6.61501 8.85001C6.61402 8.62708 6.67928 8.40889 6.80252 8.22312C6.92576 8.03735 7.1014 7.89238 7.30717 7.80661C7.51294 7.72084 7.73956 7.69814 7.95825 7.74139C8.17694 7.78464 8.37786 7.89189 8.53549 8.04952C8.69313 8.20716 8.80037 8.40807 8.84362 8.62676C8.88687 8.84546 8.86417 9.07207 8.7784 9.27784C8.69264 9.48361 8.54767 9.65926 8.3619 9.7825C8.17613 9.90573 7.95793 9.971 7.73501 9.97001C7.43797 9.97001 7.15309 9.85201 6.94305 9.64197C6.73301 9.43193 6.61501 9.14705 6.61501 8.85001ZM10.255 10.945V10.99C10.05 10.615 9.93001 10.64 9.72001 10.8C9.51001 10.96 9.18001 11.12 8.94001 10.845V10.905C9.51501 12.17 10.1 11.46 10.1 11.46C9.74001 12.485 9.26001 11.925 9.10001 11.605V11.57C8.71001 11.48 8.67501 11.385 8.53501 10.965C8.39501 10.545 8.65501 10.24 9.00501 10.365V10.335C9.05795 10.2167 9.14338 10.1159 9.25135 10.0442C9.35933 9.97247 9.48543 9.93289 9.61501 9.93001C9.80645 9.93782 9.98701 10.0211 10.1172 10.1616C10.2475 10.3022 10.3168 10.4885 10.31 10.68C10.3126 10.77 10.299 10.8598 10.27 10.945M11.12 9.94501C10.8971 9.946 10.6789 9.88073 10.4931 9.7575C10.3073 9.63426 10.1624 9.45861 10.0766 9.25284C9.99084 9.04707 9.96814 8.82046 10.0114 8.60177C10.0546 8.38307 10.1619 8.18216 10.3195 8.02452C10.4772 7.86689 10.6781 7.75964 10.8968 7.71639C11.1155 7.67314 11.3421 7.69584 11.5478 7.78161C11.7536 7.86738 11.9293 8.01235 12.0525 8.19812C12.1757 8.38389 12.241 8.60208 12.24 8.82501C12.24 8.97209 12.211 9.11773 12.1548 9.25361C12.0985 9.3895 12.016 9.51297 11.912 9.61697C11.808 9.72097 11.6845 9.80347 11.5486 9.85975C11.4127 9.91604 11.2671 9.94501 11.12 9.94501Z" fill="black"/>
<path d="M7.72999 8.17999C7.55097 8.17999 7.37928 8.25111 7.2527 8.3777C7.12611 8.50428 7.05499 8.67597 7.05499 8.85499C7.05499 9.03401 7.12611 9.2057 7.2527 9.33229C7.37928 9.45888 7.55097 9.52999 7.72999 9.52999C7.79452 9.53019 7.85866 9.52006 7.91999 9.49999C7.84449 9.48703 7.776 9.44781 7.7266 9.38926C7.6772 9.33071 7.65007 9.2566 7.64999 9.17999C7.64999 9.09247 7.68476 9.00853 7.74665 8.94665C7.80853 8.88476 7.89247 8.84999 7.97999 8.84999C8.06751 8.84999 8.15145 8.88476 8.21334 8.94665C8.27523 9.00853 8.30999 9.09247 8.30999 9.17999C8.36601 9.07807 8.39474 8.9634 8.39339 8.84711C8.39205 8.73081 8.36069 8.61684 8.30234 8.51623C8.24398 8.41563 8.16063 8.33181 8.06035 8.2729C7.96008 8.21399 7.84628 8.18198 7.72999 8.17999Z" fill="black"/>
<path d="M13.18 5.70001C13.135 5.54001 12.845 5.78501 12.8 5.82001C12.7504 5.85191 12.6986 5.88031 12.645 5.90501L12.735 5.87001C12.735 5.87001 11.3 6.50001 10.845 6.73501C10.4935 6.93742 10.1872 7.20969 9.945 7.53501C10.2085 7.04639 10.6272 6.65938 11.135 6.43501C11.56 6.27501 11.975 6.15501 12.235 6.05501C11.9785 6.14996 11.6965 6.14996 11.44 6.05501C10.8217 5.72801 10.1387 5.54189 9.44 5.51001C8.74408 5.55167 8.06377 5.73365 7.44 6.04501C7.23143 6.12462 7.00698 6.15374 6.785 6.13001C6.885 6.17001 7.23 6.26001 7.73 6.45501C8.22397 6.69772 8.63087 7.08715 8.895 7.57001C8.61031 7.21618 8.26284 6.91786 7.87 6.69001C7.49 6.46501 6.94 6.19001 6.78 6.12501C6.48874 6.10434 6.2134 5.98432 6 5.78501C5.79 5.53001 5.665 5.68001 5.665 5.68001C5.305 6.42501 6.1 7.91501 6.1 7.91501C6.22731 7.5968 6.45344 7.32788 6.74509 7.14785C7.03673 6.96782 7.37848 6.8862 7.72 6.91501C9.36 7.09501 9.42 9.23001 9.42 9.23001C9.52 7.90501 10.12 7.03001 11.13 6.89501C12.14 6.76001 12.75 7.93501 12.75 7.93501C13.1707 7.2786 13.3246 6.48616 13.18 5.72001" fill="black"/>
<path d="M16 11.555C16.001 11.6434 15.9756 11.7302 15.9271 11.8041C15.8786 11.8781 15.8091 11.9359 15.7276 11.9702C15.6461 12.0045 15.5562 12.0137 15.4694 11.9967C15.3826 11.9797 15.3029 11.9372 15.2404 11.8747C15.1778 11.8121 15.1353 11.7324 15.1183 11.6456C15.1013 11.5588 15.1105 11.4689 15.1448 11.3874C15.1791 11.3059 15.237 11.2364 15.3109 11.1879C15.3848 11.1394 15.4716 11.114 15.56 11.115C15.6767 11.115 15.7886 11.1614 15.8711 11.2439C15.9536 11.3264 16 11.4383 16 11.555Z" fill="#FFDF1C"/>
<path d="M15.56 12C15.468 12 15.3781 11.9727 15.3017 11.9216C15.2252 11.8705 15.1656 11.7979 15.1304 11.713C15.0952 11.628 15.086 11.5345 15.1039 11.4443C15.1219 11.3541 15.1662 11.2712 15.2312 11.2062C15.2962 11.1412 15.3791 11.0969 15.4693 11.0789C15.5595 11.061 15.653 11.0702 15.7379 11.1054C15.8229 11.1406 15.8955 11.2002 15.9466 11.2767C15.9977 11.3531 16.025 11.443 16.025 11.535C16.025 11.6583 15.976 11.7766 15.8888 11.8638C15.8016 11.951 15.6833 12 15.56 12ZM15.56 11.12C15.5055 11.12 15.4515 11.1307 15.4012 11.1516C15.3508 11.1725 15.3051 11.203 15.2666 11.2416C15.228 11.2801 15.1974 11.3258 15.1766 11.3762C15.1557 11.4265 15.145 11.4805 15.145 11.535C15.145 11.5895 15.1557 11.6435 15.1766 11.6938C15.1974 11.7442 15.228 11.7899 15.2666 11.8285C15.3051 11.867 15.3508 11.8976 15.4012 11.9184C15.4515 11.9393 15.5055 11.95 15.56 11.95C15.6701 11.95 15.7756 11.9063 15.8535 11.8285C15.9313 11.7506 15.975 11.6451 15.975 11.535C15.975 11.4249 15.9313 11.3194 15.8535 11.2416C15.7756 11.1637 15.6701 11.12 15.56 11.12Z" fill="black"/>
<path d="M16.31 14.125V12.815H16.21V16.415C16.21 16.415 16.21 16.61 15.935 16.6C15.66 16.59 15.665 16.415 15.665 16.415V14.385H15.55V16.42C15.55 16.42 15.55 16.61 15.275 16.605C15 16.6 15.01 16.425 15.01 16.425V12.825H14.905V14.14C14.905 14.14 14.905 14.29 14.705 14.29C14.505 14.29 14.505 14.14 14.505 14.14C14.505 14.04 14.505 12.605 14.505 12.605C14.4997 12.538 14.5091 12.4707 14.5323 12.4076C14.5556 12.3446 14.5922 12.2873 14.6398 12.2398C14.6873 12.1922 14.7445 12.1556 14.8076 12.1323C14.8707 12.1091 14.938 12.0997 15.005 12.105H16.245C16.3732 12.1114 16.4941 12.1669 16.5825 12.26C16.6709 12.3531 16.7202 12.4766 16.72 12.605C16.72 13.01 16.72 14.105 16.72 14.105C16.715 14.1479 16.6933 14.1872 16.6596 14.2143C16.626 14.2414 16.583 14.2542 16.54 14.25C16.345 14.25 16.335 14.105 16.335 14.105" fill="#FFDF1C"/>
<path d="M15.28 16.63C15 16.63 14.99 16.425 14.99 16.425V12.85H14.935V14.14C14.935 14.14 14.935 14.31 14.71 14.31C14.485 14.31 14.485 14.145 14.485 14.14C14.485 14.045 14.485 12.665 14.485 12.605C14.4852 12.4717 14.5351 12.3434 14.625 12.245C14.6756 12.1958 14.7361 12.1579 14.8025 12.1337C14.8688 12.1096 14.9396 12.0998 15.01 12.105H16.25C16.3806 12.1111 16.5043 12.1657 16.5968 12.2582C16.6893 12.3507 16.7439 12.4743 16.75 12.605C16.75 13.005 16.75 14.105 16.75 14.105C16.7481 14.1293 16.7414 14.153 16.7303 14.1747C16.7192 14.1965 16.7039 14.2158 16.6854 14.2316C16.6668 14.2474 16.6452 14.2594 16.622 14.2668C16.5988 14.2743 16.5743 14.277 16.55 14.275C16.33 14.275 16.32 14.105 16.32 14.105V12.84H16.27V16.415C16.27 16.415 16.27 16.625 15.98 16.625C15.705 16.625 15.685 16.42 15.685 16.42V14.42H15.62V16.42C15.62 16.42 15.62 16.63 15.335 16.63M15 12.785V12.81V16.425C15 16.425 15 16.575 15.24 16.58C15.46 16.58 15.475 16.425 15.48 16.42V14.36H15.645V16.415C15.645 16.415 15.645 16.57 15.89 16.575C16.115 16.575 16.13 16.42 16.13 16.415V12.79H16.28V14.125C16.28 14.125 16.28 14.245 16.46 14.245C16.4784 14.2471 16.497 14.2455 16.5148 14.2403C16.5326 14.2351 16.5492 14.2265 16.5636 14.2148C16.578 14.2032 16.59 14.1888 16.5988 14.1726C16.6076 14.1563 16.6131 14.1384 16.615 14.12C16.615 14.12 16.615 13.015 16.615 12.62C16.6096 12.4999 16.5611 12.3859 16.4785 12.2987C16.3958 12.2114 16.2846 12.1569 16.165 12.145H14.97C14.9058 12.1413 14.8416 12.1509 14.7814 12.1733C14.7211 12.1957 14.6662 12.2303 14.62 12.275C14.5407 12.3648 14.4964 12.4802 14.495 12.6C14.495 12.6 14.495 14.035 14.495 14.135C14.495 14.135 14.495 14.26 14.67 14.26C14.845 14.26 14.845 14.14 14.845 14.135V12.785H15Z" fill="black"/>
<path d="M13.715 12.9C13.715 12.9643 13.6959 13.0271 13.6602 13.0806C13.6245 13.134 13.5738 13.1757 13.5144 13.2003C13.455 13.2249 13.3896 13.2313 13.3266 13.2188C13.2636 13.2062 13.2056 13.1753 13.1602 13.1298C13.1147 13.0844 13.0838 13.0265 13.0712 12.9634C13.0587 12.9004 13.0651 12.835 13.0897 12.7756C13.1143 12.7163 13.156 12.6655 13.2094 12.6298C13.2629 12.5941 13.3257 12.575 13.39 12.575C13.4762 12.575 13.5589 12.6093 13.6198 12.6702C13.6808 12.7312 13.715 12.8138 13.715 12.9Z" fill="#FFDF1C"/>
<path d="M13.39 13.24C13.2998 13.24 13.2133 13.2042 13.1496 13.1404C13.0858 13.0767 13.05 12.9902 13.05 12.9C13.05 12.8098 13.0858 12.7233 13.1496 12.6596C13.2133 12.5958 13.2998 12.56 13.39 12.56C13.4802 12.56 13.5666 12.5958 13.6304 12.6596C13.6942 12.7233 13.73 12.8098 13.73 12.9C13.73 12.9902 13.6942 13.0767 13.6304 13.1404C13.5666 13.2042 13.4802 13.24 13.39 13.24ZM13.39 12.595C13.3502 12.595 13.3107 12.6029 13.274 12.6183C13.2373 12.6337 13.204 12.6562 13.1761 12.6846C13.1481 12.713 13.1262 12.7467 13.1114 12.7837C13.0966 12.8206 13.0893 12.8602 13.09 12.9C13.09 12.9605 13.108 13.0197 13.1418 13.07C13.1755 13.1202 13.2234 13.1593 13.2795 13.1822C13.3355 13.2052 13.3971 13.2109 13.4564 13.1987C13.5156 13.1865 13.57 13.157 13.6124 13.1138C13.6549 13.0707 13.6835 13.0159 13.6947 12.9564C13.7059 12.8969 13.6992 12.8354 13.6753 12.7798C13.6515 12.7241 13.6116 12.6769 13.5608 12.644C13.51 12.611 13.4505 12.594 13.39 12.595Z" fill="black"/>
<path d="M13.94 14.775V13.82H13.87V16.445C13.87 16.445 13.87 16.585 13.665 16.58C13.46 16.575 13.47 16.445 13.47 16.445V14.945H13.385V16.445C13.385 16.445 13.385 16.58 13.185 16.575C12.985 16.57 13 16.45 13 16.45V13.815H12.9V14.775C12.9 14.775 12.9 14.88 12.755 14.88C12.61 14.88 12.61 14.775 12.61 14.775C12.61 14.7 12.61 13.655 12.61 13.655C12.6085 13.6078 12.6169 13.5608 12.6346 13.517C12.6523 13.4732 12.679 13.4335 12.7128 13.4006C12.7467 13.3677 12.7871 13.3422 12.8313 13.3257C12.8756 13.3092 12.9228 13.3022 12.97 13.305H13.88C13.9733 13.3101 14.0611 13.3508 14.1253 13.4187C14.1894 13.4866 14.2251 13.5765 14.225 13.67C14.225 13.965 14.225 14.775 14.225 14.775C14.2238 14.7906 14.2194 14.8058 14.2121 14.8196C14.2048 14.8334 14.1948 14.8456 14.1826 14.8555C14.1704 14.8653 14.1564 14.8725 14.1413 14.8768C14.1263 14.881 14.1105 14.8821 14.095 14.88C13.95 14.88 13.945 14.775 13.945 14.775" fill="#FFDF1C"/>
<path d="M13.19 16.605C12.98 16.605 12.97 16.455 12.97 16.45V13.84H12.94V14.775C12.94 14.775 12.94 14.905 12.77 14.905C12.6 14.905 12.6 14.775 12.6 14.775C12.6 14.775 12.6 13.695 12.6 13.655C12.5991 13.5558 12.6347 13.4597 12.7 13.385C12.7379 13.3491 12.7827 13.3213 12.8317 13.3032C12.8807 13.2852 12.9328 13.2773 12.985 13.28H13.89C13.9895 13.285 14.0835 13.3275 14.1531 13.3989C14.2226 13.4703 14.2626 13.5654 14.265 13.665C14.265 13.96 14.265 14.765 14.265 14.775C14.2612 14.8126 14.2429 14.8472 14.2139 14.8715C14.185 14.8958 14.1477 14.9078 14.11 14.905C13.945 14.905 13.935 14.775 13.935 14.775V13.845V16.445C13.935 16.445 13.935 16.605 13.72 16.605C13.515 16.605 13.5 16.45 13.5 16.445V15H13.465V16.45C13.465 16.45 13.465 16.605 13.25 16.605M13 13.79V13.815V16.45C13 16.45 13 16.555 13.17 16.56C13.325 16.56 13.335 16.45 13.335 16.445V14.945H13.5V16.445C13.5 16.445 13.5 16.55 13.67 16.555C13.825 16.555 13.84 16.45 13.84 16.445V13.795H13.96V14.795C13.96 14.795 13.96 14.875 14.085 14.875C14.0975 14.8764 14.1101 14.8753 14.1222 14.8718C14.1342 14.8682 14.1455 14.8623 14.1552 14.8544C14.165 14.8465 14.1731 14.8368 14.1791 14.8257C14.185 14.8146 14.1887 14.8025 14.19 14.79C14.19 14.79 14.19 13.98 14.19 13.69C14.1901 13.6024 14.1563 13.5181 14.0958 13.4547C14.0352 13.3914 13.9525 13.3539 13.865 13.35H12.96C12.9144 13.3475 12.8688 13.3541 12.8258 13.3696C12.7829 13.385 12.7435 13.409 12.71 13.44C12.6537 13.5052 12.6234 13.5889 12.625 13.675C12.625 14.035 12.625 14.735 12.625 14.79C12.625 14.845 12.625 14.875 12.745 14.875C12.865 14.875 12.865 14.795 12.865 14.795V13.795L13 13.79Z" fill="black"/>
</g>
</g>
<defs>
<clipPath id="clip0_335_5864">
<rect width="24" height="24" rx="2" fill="white"/>
</clipPath>
<clipPath id="clip1_335_5864">
<rect width="24" height="24" fill="white"/>
</clipPath>
</defs>
</svg>
