<svg width="24" height="24" viewBox="0 0 24 24" fill="none" xmlns="http://www.w3.org/2000/svg">
<rect width="24" height="24" rx="2" fill="#3C1A53"/>
<g clip-path="url(#clip0_335_5866)">
<mask id="mask0_335_5866" style="mask-type:luminance" maskUnits="userSpaceOnUse" x="1" y="0" width="22" height="24">
<path d="M23 0H1V23.261H23V0Z" fill="white"/>
</mask>
<g mask="url(#mask0_335_5866)">
<path d="M21.7778 23.261H2.22222C1.54321 23.261 1 22.7566 1 22.1164V1.14462C1 0.504409 1.54321 0 2.22222 0H21.7778C22.4568 0 23 0.504409 23 1.14462V22.1164C23 22.7372 22.4374 23.261 21.7778 23.261Z" fill="#3C1A53"/>
</g>
<mask id="mask1_335_5866" style="mask-type:luminance" maskUnits="userSpaceOnUse" x="1" y="0" width="22" height="24">
<path d="M23 0H1V23.261H23V0Z" fill="white"/>
</mask>
<g mask="url(#mask1_335_5866)">
<path d="M4.10406 9.66138C4.14287 10.0688 4.20107 10.4568 4.29807 10.8448C4.22047 10.4374 4.14287 10.0494 4.10406 9.66138ZM19.6825 10.806C19.7601 10.4762 19.8378 10.127 19.8766 9.77778C19.8378 10.127 19.7796 10.4762 19.6825 10.806Z" fill="#ED1C2E"/>
</g>
<mask id="mask2_335_5866" style="mask-type:luminance" maskUnits="userSpaceOnUse" x="1" y="0" width="22" height="24">
<path d="M23 0H1V23.261H23V0Z" fill="white"/>
</mask>
<g mask="url(#mask2_335_5866)">
<path d="M19.9154 9.11817C19.9154 9.15697 19.9154 9.17637 19.9154 9.21517C19.9154 9.33157 19.9154 9.46737 19.896 9.58378C19.896 9.58378 19.896 9.58378 19.896 9.60318C19.896 9.62258 19.896 9.64198 19.896 9.68078C19.896 9.71958 19.896 9.75838 19.8766 9.79718C19.8378 10.1464 19.7796 10.4762 19.6825 10.8254C18.4021 15.9859 12 21.515 12 21.515C12 21.515 5.61729 16.0053 4.31747 10.8642V10.8448C4.22047 10.4374 4.14287 10.0494 4.12347 9.66138C4.12347 9.64198 4.12347 9.62258 4.12347 9.60318C4.12347 9.48677 4.10406 9.35097 4.10406 9.23457C4.10406 9.19577 4.10406 9.17637 4.10406 9.13757C4.10406 5.04409 7.63493 1.76543 12 1.74603C16.3651 1.76543 19.8766 5.04409 19.9154 9.11817Z" fill="white"/>
</g>
<mask id="mask3_335_5866" style="mask-type:luminance" maskUnits="userSpaceOnUse" x="1" y="0" width="22" height="24">
<path d="M23 0H1V23.261H23V0Z" fill="white"/>
</mask>
<g mask="url(#mask3_335_5866)">
<path d="M8.11994 13.0952C8.19754 13.0952 8.23634 13.037 8.23634 12.9788V6.3827C8.23634 6.3245 8.17814 6.2663 8.11994 6.2663C8.04234 6.2663 8.00354 6.3245 8.00354 6.3827V12.9788C8.00354 13.0564 8.06174 13.0952 8.11994 13.0952Z" fill="#3C1A53"/>
</g>
<mask id="mask4_335_5866" style="mask-type:luminance" maskUnits="userSpaceOnUse" x="1" y="0" width="22" height="24">
<path d="M23 0H1V23.261H23V0Z" fill="white"/>
</mask>
<g mask="url(#mask4_335_5866)">
<path d="M6.19932 8.16752H7.86775V6.38269H6.19932C6.10232 6.38269 6.02472 6.46029 6.02472 6.55729V8.01232C6.02472 8.08992 6.10232 8.16752 6.19932 8.16752Z" fill="#3C1A53"/>
</g>
<mask id="mask5_335_5866" style="mask-type:luminance" maskUnits="userSpaceOnUse" x="1" y="0" width="22" height="24">
<path d="M23 0H1V23.261H23V0Z" fill="white"/>
</mask>
<g mask="url(#mask5_335_5866)">
<path d="M8.72131 7.99295V8.67196C8.72131 8.78836 8.81832 8.88536 8.95412 8.88536H9.07052H9.18692H9.74953V11.0194V11.1164C9.74953 11.388 9.92414 11.8148 10.1763 12.0476V12.7072C10.1763 12.9206 10.3509 13.0758 10.5837 13.0758H10.7584C10.9718 13.0758 11.1658 12.9012 11.1658 12.7072V12.2028H15.1622V12.7072C15.1622 12.9206 15.3368 13.0758 15.5696 13.0758H15.7442C15.9576 13.0758 16.1516 12.9012 16.1516 12.7072V12.164L16.3651 11.7954C16.5009 11.582 16.5785 11.3298 16.5785 11.1358V11.0388V8.90476H17.1605H17.2769H17.3933C17.5291 8.90476 17.6261 8.80776 17.6261 8.69136V8.01235C17.6261 7.89595 17.5291 7.79894 17.3933 7.79894H17.1605C17.0247 7.79894 16.9277 7.89595 16.9277 8.01235V8.65256H16.5785V6.71252C16.6949 6.65432 16.7725 6.53792 16.7725 6.42152V5.4321C16.7725 5.2381 16.6173 5.10229 16.4233 5.10229H10.3121C10.1181 5.10229 9.73013 5.1023 9.73013 5.4321V6.40212C9.73013 6.49912 9.78833 6.57672 9.86593 6.63492L9.76893 8.65256H9.41973V8.01235C9.41973 7.89595 9.32272 7.79894 9.18692 7.79894H8.95412C8.81832 7.77954 8.72131 7.87655 8.72131 7.99295ZM16.0352 8.30335C16.0352 8.49736 15.8606 8.65256 15.6472 8.65256H10.6225C10.4091 8.65256 10.2927 8.49736 10.3121 8.30335L10.5449 7.02293C10.6031 6.80953 10.7196 6.67372 10.933 6.67372H15.4144C15.6278 6.67372 15.8024 6.82893 15.8024 7.02293L16.0352 8.30335ZM14.8324 11.097L15.1428 10.5538C15.1428 10.5538 15.2592 10.3598 15.4338 10.3598H15.8218C15.9382 10.3598 16.0158 10.4374 16.0158 10.5344V11.0776C16.0158 11.1746 15.9188 11.2522 15.8218 11.2522H15.0264C14.91 11.2716 14.8324 11.194 14.8324 11.097ZM11.4956 10.5344C11.4956 10.4374 11.5732 10.3598 11.6896 10.3598H14.5802C14.6772 10.3598 14.7742 10.4374 14.7742 10.5344L14.425 11.097C14.3474 11.2134 14.3474 11.2716 14.231 11.2716H12.0388C11.9418 11.2716 11.903 11.2134 11.8448 11.097L11.4956 10.5344ZM10.2539 10.4762C10.2539 10.3792 10.3509 10.3016 10.4479 10.3016H10.836C11.0106 10.3016 11.127 10.4956 11.127 10.4956L11.4374 11.0388C11.4374 11.1358 11.3404 11.2134 11.2434 11.2134H10.4479C10.3315 11.2134 10.2539 11.1358 10.2539 11.0388V10.4762Z" fill="#3C1A53"/>
</g>
</g>
<defs>
<clipPath id="clip0_335_5866">
<rect width="22" height="23.261" fill="white" transform="translate(1)"/>
</clipPath>
</defs>
</svg>
