<svg width="24" height="24" viewBox="0 0 24 24" fill="none" xmlns="http://www.w3.org/2000/svg">
<g clip-path="url(#clip0_442_8468)">
<path d="M12 24C18.6274 24 24 18.6274 24 12C24 5.37258 18.6274 0 12 0C5.37258 0 0 5.37258 0 12C0 18.6274 5.37258 24 12 24Z" fill="#FCFCFC"/>
<path d="M5.3505 8.47422C5.3505 8.4433 5.3505 8.41237 5.3505 8.35051C5.3505 5.38144 8.25772 2.96907 11.8144 2.96907C15.3711 2.96907 18.2474 5.38144 18.2474 8.35051C18.2474 8.38144 18.2474 8.41237 18.2474 8.47422H18.5876C18.5876 8.4433 18.5876 8.41237 18.5876 8.35051C18.5876 5.2268 15.5567 2.65979 11.7835 2.65979C8.04123 2.65979 4.97937 5.19587 4.97937 8.35051C4.97937 8.38144 4.97937 8.41237 4.97937 8.47422H5.3505Z" fill="#8DC63F" stroke="#45A041" stroke-miterlimit="10"/>
<path fill-rule="evenodd" clip-rule="evenodd" d="M9.71134 16.3299C9.71134 16.3299 7.91753 16.0206 7.26804 13.5773C6.24742 10.1443 9.71134 10.9175 11.1959 6.86599C11.1959 6.86599 12.866 9.49485 16.6082 10.9175C16.8247 12.2784 16.6082 15.2165 14.3814 16.299C14.3814 16.299 18.5258 16.3299 18.5258 10.0516C18.5258 7.14434 16.0206 3.09279 11.1959 3.80413C11.1959 3.80413 5.75258 3.95877 4.91753 10.0206C4.54639 13.0825 6.68041 15.8351 9.71134 16.3299Z" fill="#808285"/>
<path fill-rule="evenodd" clip-rule="evenodd" d="M9.92781 11.567C9.92781 11.9382 9.61854 12.2165 9.27833 12.2165C8.9072 12.2165 8.62885 11.9072 8.62885 11.567C8.62885 11.1959 8.93812 10.9175 9.27833 10.9175C9.61854 10.9175 9.92781 11.1959 9.92781 11.567Z" fill="#27AAE1"/>
<path fill-rule="evenodd" clip-rule="evenodd" d="M14.9691 11.5051C14.9691 11.8763 14.6598 12.1546 14.3196 12.1546C13.9485 12.1546 13.6701 11.8453 13.6701 11.5051C13.6701 11.134 13.9794 10.8557 14.3196 10.8557C14.6907 10.8247 14.9691 11.134 14.9691 11.5051Z" fill="#27AAE1"/>
<path fill-rule="evenodd" clip-rule="evenodd" d="M10.0206 14.4124C10.0206 14.4124 11.8763 16.6392 13.9794 14.4124H10.0206Z" fill="#808285"/>
<path d="M11.4124 15.1546C11.4124 15.6185 11.0412 16.0206 10.5464 16.0206C10.0825 16.0206 9.68042 15.6495 9.68042 15.1546C9.68042 14.6907 10.0516 14.2886 10.5464 14.2886C11.0103 14.3196 11.4124 14.6907 11.4124 15.1546Z" fill="#45A041" stroke="white" stroke-width="0.4977" stroke-miterlimit="10"/>
<path d="M10.7629 15.6186C7.20617 15.6186 4.29895 12.3093 4.29895 9.15466H4.60823C4.60823 12.5258 7.36081 15.2784 10.7319 15.2784" fill="#45A041"/>
<path d="M18.0618 12.9588C18.0618 13.299 18.3402 13.6082 18.7113 13.6082C19.0515 13.6082 19.3608 13.3299 19.3608 12.9588V8.75257C19.3608 8.41237 19.0824 8.10309 18.7113 8.10309C18.3711 8.10309 18.0618 8.38144 18.0618 8.75257V12.9588Z" fill="#45A041"/>
<path d="M19.1443 11.8454C19.1443 12.0309 19.2989 12.1546 19.4536 12.1546C19.6391 12.1546 19.7628 12 19.7628 11.8454V9.74226C19.7628 9.55669 19.6082 9.43298 19.4536 9.43298C19.268 9.43298 19.1443 9.58762 19.1443 9.74226V11.8454Z" fill="#45A041"/>
<path d="M5.53603 12.9897C5.53603 13.3299 5.25768 13.6392 4.88655 13.6392C4.54634 13.6392 4.23706 13.3609 4.23706 12.9897V8.81446C4.23706 8.47426 4.51541 8.16498 4.88655 8.16498C5.22675 8.16498 5.53603 8.44333 5.53603 8.81446V12.9897Z" fill="#45A041"/>
<path d="M4.45358 11.8763C4.45358 12.0619 4.29894 12.1856 4.1443 12.1856C3.95873 12.1856 3.83502 12.0309 3.83502 11.8763V9.77321C3.83502 9.58764 3.98966 9.46393 4.1443 9.46393C4.32987 9.46393 4.45358 9.61857 4.45358 9.77321V11.8763Z" fill="#45A041"/>
<path d="M12.0309 24C14.4433 24 16.6701 23.2886 18.5567 22.0515C17.7835 19.6701 15.7732 17.8763 13.299 17.4124L12.1856 20.567H11.6598L10.6392 17.4433C8.19588 17.9381 6.21649 19.701 5.4433 22.0206C7.3299 23.2577 9.58763 24 12.0309 24Z" fill="#666666"/>
</g>
<defs>
<clipPath id="clip0_442_8468">
<rect width="24" height="24" fill="white"/>
</clipPath>
</defs>
</svg>
