<svg width="24" height="24" viewBox="0 0 24 24" fill="none" xmlns="http://www.w3.org/2000/svg">
<g clip-path="url(#clip0_335_5867)">
<path d="M17.4293 9.5983C17.3704 9.69923 17.2861 9.783 17.1848 9.8413C17.0835 9.8996 16.9688 9.93039 16.8519 9.93062C16.735 9.93085 16.6202 9.90052 16.5186 9.84262C16.4171 9.78473 16.3325 9.70129 16.2732 9.60059C15.7661 8.74868 15.0521 8.03857 14.1974 7.53607C13.4648 7.11774 12.6499 6.86396 11.8093 6.79239C11.6301 6.77925 11.4634 6.69546 11.3459 6.55944C11.2285 6.42342 11.1699 6.24632 11.183 6.06709C11.1962 5.88786 11.28 5.72119 11.416 5.60375C11.552 5.4863 11.7291 5.4277 11.9083 5.44084C12.9431 5.52293 13.9467 5.83415 14.8464 6.35194C15.9073 6.96372 16.7891 7.84313 17.4038 8.90234C17.4615 9.00424 17.4914 9.11947 17.4907 9.23655C17.49 9.35363 17.4586 9.46848 17.3996 9.56964" fill="#EC1C2E"/>
<path d="M19.6655 8.16458C19.6088 8.26217 19.5265 8.34243 19.4275 8.39671C19.3528 8.4443 19.2693 8.47638 19.182 8.49102C19.0946 8.50567 19.0052 8.50258 18.9191 8.48194C18.8329 8.4613 18.7518 8.42354 18.6806 8.3709C18.6094 8.31825 18.5495 8.25181 18.5044 8.17553C17.7773 6.98277 16.7569 5.99609 15.5403 5.30951C14.4155 4.67975 13.1589 4.32201 11.8711 4.26491C11.6928 4.2554 11.5256 4.17547 11.4063 4.0427C11.287 3.90992 11.2253 3.73519 11.2348 3.55693C11.2443 3.37868 11.3242 3.2115 11.457 3.09218C11.5898 2.97286 11.7645 2.91117 11.9428 2.92068C13.4433 3.02416 14.9001 3.47024 16.2013 4.22466C17.5886 5.03599 18.7542 6.177 19.595 7.54657C19.6581 7.64956 19.6921 7.76768 19.6935 7.88843C19.695 8.00918 19.6637 8.12806 19.6032 8.23252" fill="#EC1C2E"/>
<path d="M22.0183 6.72902C21.9651 6.82762 21.8857 6.90966 21.789 6.96615C21.714 7.01258 21.6304 7.04349 21.5432 7.05707C21.456 7.07064 21.367 7.06659 21.2814 7.04516C21.1958 7.02374 21.1154 6.98536 21.0449 6.93232C20.9744 6.87927 20.9152 6.81262 20.8709 6.73631C19.9646 5.2406 18.6998 3.99441 17.1908 3.11048C15.5698 2.17662 13.7292 1.69188 11.8585 1.70622C11.7705 1.7077 11.683 1.69182 11.6011 1.6595C11.5192 1.62717 11.4444 1.57903 11.3811 1.51782C11.3178 1.45661 11.2672 1.38353 11.2321 1.30275C11.1971 1.22197 11.1783 1.13508 11.1768 1.04703C11.1753 0.958985 11.1912 0.871508 11.2235 0.789597C11.2558 0.707686 11.304 0.632944 11.3652 0.569638C11.4264 0.506332 11.4995 0.455703 11.5802 0.42064C11.661 0.385578 11.7479 0.366769 11.836 0.365288C13.9464 0.345303 16.0237 0.890762 17.8521 1.94501C19.5665 2.94235 21.0024 4.35508 22.0275 6.05306C22.0893 6.1559 22.1219 6.27364 22.1218 6.39362C22.1217 6.5136 22.0889 6.63128 22.0269 6.73402" fill="#EC1C2E"/>
<path d="M12.05 17.4743C11.8649 17.8058 11.6148 18.0966 11.3147 18.3291C11.0145 18.5616 10.6705 18.7312 10.3033 18.8275C9.93601 18.9239 9.55308 18.9451 9.17743 18.8899C8.80179 18.8346 8.44116 18.7041 8.11718 18.5061C7.77838 18.3261 7.47942 18.0795 7.23823 17.7811C6.99703 17.4827 6.81857 17.1387 6.71354 16.7696C6.60851 16.4006 6.57907 16.0142 6.62699 15.6335C6.67491 15.2529 6.79919 14.8858 6.9924 14.5543C7.1794 14.2088 7.43418 13.9047 7.74149 13.66C8.0488 13.4153 8.40233 13.2351 8.7809 13.1303C9.15947 13.0254 9.55531 12.998 9.94472 13.0497C10.3341 13.1014 10.7091 13.2312 11.0472 13.4312C11.38 13.6277 11.67 13.8889 11.9001 14.1993C12.1301 14.5098 12.2956 14.8633 12.3867 15.2389C12.4778 15.6144 12.4926 16.0044 12.4303 16.3858C12.368 16.7672 12.2298 17.1322 12.024 17.4593M2.89414 12.0727C1.87306 13.8413 1.59636 15.943 2.12491 17.9156C2.65346 19.8882 3.94397 21.57 5.71254 22.5911C7.4811 23.6122 9.58286 23.8889 11.5554 23.3603C13.528 22.8318 15.2098 21.5413 16.2309 19.7727C17.252 18.0041 17.5287 15.9024 17.0002 13.9298C16.4716 11.9572 15.1811 10.2754 13.4125 9.2543C11.644 8.23321 9.54221 7.95651 7.56963 8.48506C5.59705 9.01362 3.91522 10.3041 2.89414 12.0727Z" fill="#EC1C2E"/>
</g>
<defs>
<clipPath id="clip0_335_5867">
<rect width="24" height="24" fill="white"/>
</clipPath>
</defs>
</svg>
