<svg width="27" height="27" viewBox="0 0 27 27" fill="none" xmlns="http://www.w3.org/2000/svg">
<path d="M26.7 0H0V26.7H26.7V0Z" fill="black"/>
<path d="M22.9 10.5V20.9H3.09998V10.3L12.8 4.5L22.9 10.5Z" fill="#079247"/>
<path d="M25.1 10.6L12.9 3.79999L0.799988 10.6V12.2L12.9 5.39999L25.1 12.2V10.6Z" fill="white"/>
<path d="M19.5 15.4C19 14.9 18.3 14.6 17.5 14.6C17.2 14.6 16.9 14.7 16.6 14.7L16.2 13.8L15.8 13L16.2 12.1H16.3H16.8C17 12.1 17 12 17 11.8C17 11.6 17 11.5 16.8 11.5H16.3H15.8H14.9C14.8 11.5 14.7 11.5 14.7 11.6C14.6 11.7 14.6 11.7 14.6 11.8C14.6 11.9 14.6 12 14.7 12C14.8 12.1 14.8 12.1 14.9 12.1H15.6L15.4 12.7H14.7H10.5H10.4L10.5 12.5L10.7 12C10.7 12 10.8 11.7 11.1 11.7H11.8C12 11.7 12 11.6 12 11.4C12 11.2 12 11.1 11.8 11.1H11C10.8 11.1 10.6 11.2 10.4 11.3C10.2 11.4 10 11.7 10 11.8C10 11.8 9.80001 12.5 9.50001 13.5C9.40001 13.9 9.20001 14.4 9.10001 14.8C8.90001 14.8 8.70001 14.7 8.50001 14.7C6.90001 14.7 5.70001 16 5.70001 17.5C5.70001 18.3 6.00001 19 6.50001 19.5C7.00001 20 7.80001 20.3 8.50001 20.3C9.20001 20.3 9.90001 20 10.4 19.5L10.5 19.4C11 18.9 11.3 18.1 11.3 17.4C11.3 16.6 11 15.9 10.5 15.4L10.4 15.3C10.2 15.1 9.90001 14.9 9.60001 14.8L9.90001 14L10.4 14.5L13.5 17.6C13.5 17.6 13.5 17.6 13.6 17.6C13.6 17.6 13.6 17.6 13.7 17.6H14.6H14.7C14.8 18.3 15 18.9 15.5 19.4C15.6 19.5 15.6 19.5 15.7 19.6C15.9 19.7 16 19.8 16.2 19.9C16.6 20.1 17.1 20.2 17.5 20.2C18.3 20.2 19 19.9 19.5 19.4C20 18.9 20.3 18.1 20.3 17.4C20.4 16.7 20.1 16 19.5 15.4ZM10 15.9C10.1 16 10.3 16.2 10.3 16.4C10.5 16.7 10.6 17.1 10.6 17.5C10.6 17.9 10.5 18.3 10.3 18.6C9.90001 19.3 9.20001 19.7 8.40001 19.7C7.80001 19.7 7.20001 19.5 6.80001 19C6.40001 18.6 6.10001 18 6.10001 17.4C6.10001 16.8 6.30001 16.2 6.80001 15.8C7.20001 15.4 7.80001 15.1 8.40001 15.1C8.50001 15.1 8.70001 15.1 8.80001 15.1C8.40001 16.3 8.10001 17.3 8.10001 17.3C8.00001 17.5 8.10001 17.6 8.30001 17.7C8.50001 17.7 8.60001 17.7 8.70001 17.5L9.40001 15.3C9.60001 15.6 9.90001 15.7 10 15.9ZM16.3 15.6L17 17.1H16.1H15.6H15.2C15.3 16.8 15.4 16.5 15.6 16.2C15.7 16.1 15.8 16 15.9 15.9C16 15.8 16.1 15.7 16.2 15.7C16.2 15.6 16.3 15.6 16.3 15.6ZM13.5 16.8L10.3 13.6L10 13.3V13.2H10.3H14.5H15L14.6 14.3L13.5 16.8ZM14.6 17.1H14.2L14.6 16L15.5 13.7L15.7 14.2L16.1 15C16 15.1 15.8 15.2 15.7 15.3C15.2 15.7 14.8 16.4 14.7 17.1H14.6ZM17.5 19.7C17 19.7 16.6 19.5 16.2 19.3C16.1 19.2 16 19.2 15.9 19.1C15.8 19 15.7 18.9 15.6 18.8C15.4 18.5 15.3 18.1 15.2 17.8H15.6H16.1H17.5C17.6 17.8 17.7 17.7 17.8 17.7C17.9 17.6 17.9 17.5 17.8 17.4L16.9 15.5C17.1 15.4 17.3 15.4 17.5 15.4C18.1 15.4 18.7 15.6 19.1 16.1C19.5 16.5 19.8 17.1 19.8 17.7C19.7 18.7 18.7 19.7 17.5 19.7Z" fill="white"/>
<path d="M23.6 21.8H2.39996V10.5H3.69996V20.4H22.3V10.7H23.6V21.8Z" fill="white"/>
<path d="M23.4 17.9C24.7807 17.9 25.9 16.7807 25.9 15.4C25.9 14.0193 24.7807 12.9 23.4 12.9C22.0193 12.9 20.9 14.0193 20.9 15.4C20.9 16.7807 22.0193 17.9 23.4 17.9Z" fill="#010101" stroke="white" stroke-width="0.3636" stroke-miterlimit="10"/>
<path d="M22.3 14.4C21.8 14.4 21.4 14.8 21.4 15.3C21.4 15.8 21.8 16.2 22.3 16.2C22.8 16.2 23.2 15.8 23.2 15.3C23.2 14.8 22.8 14.4 22.3 14.4ZM22.3 15.9C22 15.9 21.7 15.6 21.7 15.3C21.7 15 21.9 14.7 22.3 14.7C22.6 14.7 22.9 15 22.9 15.3C22.9 15.6 22.6 15.9 22.3 15.9Z" fill="white"/>
<path d="M25.1999 15.2H22.9999V15.6H25.1999C25.2999 15.6 25.3999 15.5 25.3999 15.4C25.3999 15.3 25.2999 15.2 25.1999 15.2Z" fill="white"/>
<path d="M24.2999 16V15.3H23.9999V16C23.9999 16.1 24.0999 16.2 24.1999 16.2C24.2999 16.2 24.2999 16.1 24.2999 16Z" fill="white"/>
<path d="M24.8999 16V15.4H24.4999V15.9C24.4999 16 24.5999 16.1 24.6999 16.1C24.7999 16.1 24.8999 16.1 24.8999 16Z" fill="white"/>
</svg>
