<svg width="24" height="24" viewBox="0 0 24 24" fill="none" xmlns="http://www.w3.org/2000/svg">
<path d="M4.44 11.03L5.645 6.03003H8C9.41 6.03003 9.93 6.69503 9.685 7.72503C9.44 8.75503 8.645 9.50003 7.235 9.50003H6.425L6.05 11.055L4.44 11.03ZM7.375 8.30503C7.55529 8.32326 7.73586 8.27331 7.88115 8.16504C8.02645 8.05676 8.12593 7.898 8.16 7.72003C8.27 7.25503 7.77 7.19003 7.43 7.19003H6.97L6.705 8.30503H7.375Z" fill="#231F20"/>
<path d="M11.5 11.04L11.525 10.655C11.1154 10.9937 10.5963 11.1715 10.065 11.155C9.39 11.155 8.875 10.81 9.065 10.05C9.465 8.39501 11.825 9.15001 11.985 8.47001C12.05 8.20501 11.745 8.17001 11.595 8.17001C11.4731 8.14937 11.3478 8.17079 11.2397 8.23076C11.1316 8.29072 11.047 8.38567 11 8.50001H9.625C9.81 7.73001 10.46 7.27501 11.87 7.28001C13.56 7.28001 13.505 7.92501 13.3 8.78001L12.89 10.5C12.84 10.71 12.82 10.81 12.965 10.965V11.035L11.5 11.04ZM11.745 9.42501C11.245 9.65501 10.64 9.54501 10.525 10.015C10.485 10.2 10.625 10.325 10.905 10.325C11.405 10.325 11.66 9.93001 11.745 9.42501Z" fill="#231F20"/>
<path d="M14.065 7.40003H15.35L15.175 8.14003C15.29 7.88612 15.4766 7.67134 15.712 7.5221C15.9474 7.37287 16.2213 7.29568 16.5 7.30003C16.5599 7.29485 16.6201 7.29485 16.68 7.30003L16.335 8.74503C16.2408 8.7268 16.1456 8.71345 16.05 8.70503C15.47 8.70503 15.11 8.98003 14.92 9.77003L14.62 11.03H13.19L14.065 7.40003Z" fill="#231F20"/>
<path d="M18.37 11.055V10.665C17.9632 11.0087 17.4421 11.1872 16.91 11.165C16.235 11.165 15.72 10.825 15.91 10.065C16.31 8.41 18.67 9.165 18.835 8.48C18.895 8.22 18.59 8.185 18.44 8.18C18.3176 8.16647 18.1942 8.194 18.0892 8.25827C17.9842 8.32253 17.9036 8.41988 17.86 8.535H16.5C16.685 7.76 17.33 7.31 18.74 7.31C20.43 7.31 20.375 7.955 20.17 8.81L19.775 10.5C19.725 10.71 19.705 10.815 19.855 10.97V11.04L18.37 11.055ZM18.615 9.44C18.115 9.67 17.51 9.555 17.4 10.03C17.355 10.21 17.495 10.335 17.775 10.335C18.275 10.335 18.53 9.94 18.615 9.44Z" fill="#231F20"/>
<path d="M1.61499 16.58H0.59999L1.58499 12.585H0.11499L0.32999 11.725H4.27499L4.06499 12.585H2.59999L1.61499 16.58Z" fill="#231F20"/>
<path d="M3.78002 13H4.68502L4.53002 13.62C4.64908 13.413 4.81806 13.2392 5.02156 13.1143C5.22505 12.9894 5.45658 12.9175 5.69502 12.905C5.75492 12.9001 5.81512 12.9001 5.87502 12.905L5.63502 13.865C5.54686 13.8572 5.45818 13.8572 5.37002 13.865C5.11786 13.8444 4.86724 13.9201 4.66869 14.0769C4.47013 14.2337 4.33839 14.4599 4.30002 14.71L3.84002 16.585H2.89502L3.78002 13Z" fill="#231F20"/>
<path d="M8.44999 15.88C8.34499 16.305 8.41499 16.38 8.51999 16.44L8.48499 16.58H7.48499C7.46816 16.4389 7.46816 16.2962 7.48499 16.155C7.13418 16.4796 6.67292 16.6584 6.19499 16.655C5.65499 16.655 5.19499 16.355 5.35499 15.61C5.43467 15.3102 5.60536 15.0424 5.84356 14.8436C6.08175 14.6448 6.37573 14.5248 6.68499 14.5L7.56999 14.37C7.65796 14.3698 7.74368 14.3422 7.81533 14.2912C7.88697 14.2401 7.94101 14.1681 7.96999 14.085C8.06999 13.685 7.69499 13.665 7.46999 13.665C7.31292 13.6547 7.15708 13.6987 7.02868 13.7898C6.90028 13.8809 6.80716 14.0134 6.76499 14.165H5.82999C5.94894 13.762 6.20742 13.4144 6.55919 13.1844C6.91096 12.9545 7.33307 12.8572 7.74999 12.91C8.24999 12.91 9.14499 13.065 8.92999 13.95L8.44999 15.88ZM7.77999 14.83C7.56707 14.9448 7.33151 15.0114 7.08999 15.025C6.72499 15.085 6.40999 15.175 6.31499 15.57C6.29432 15.6212 6.28747 15.6769 6.29512 15.7316C6.30277 15.7863 6.32466 15.838 6.35859 15.8816C6.39252 15.9251 6.4373 15.959 6.48844 15.9798C6.53959 16.0006 6.5953 16.0075 6.64999 16C6.8697 15.9999 7.08395 15.9315 7.2631 15.8043C7.44225 15.6771 7.57745 15.4974 7.64999 15.29L7.77999 14.83Z" fill="#231F20"/>
<path d="M12.09 16.585H11.145L11.68 14.4C11.745 14.135 11.845 13.685 11.24 13.685C11.0126 13.6925 10.7945 13.7773 10.6217 13.9255C10.449 14.0737 10.332 14.2763 10.29 14.5L9.79003 16.565H8.84003L9.72503 13H10.63L10.5 13.5C10.6439 13.3082 10.8303 13.1523 11.0446 13.0448C11.2589 12.9372 11.4952 12.8808 11.735 12.88C11.8894 12.8564 12.0472 12.874 12.1926 12.9311C12.3379 12.9882 12.4655 13.0827 12.5625 13.2051C12.6595 13.3275 12.7224 13.4734 12.7448 13.6279C12.7672 13.7824 12.7483 13.9401 12.69 14.085L12.09 16.585Z" fill="#231F20"/>
<path d="M15.265 14.08C15.265 13.85 15.265 13.605 14.765 13.605C14.265 13.605 14.135 13.805 14.095 13.96C13.955 14.525 16.31 14.115 15.985 15.46C15.725 16.51 14.665 16.695 14.105 16.695C13.285 16.695 12.47 16.415 12.68 15.455H13.65C13.575 15.755 13.71 15.98 14.305 15.98C14.805 15.98 14.965 15.745 15 15.61C15.15 15.005 12.805 15.46 13.135 14.11C13.2389 13.7357 13.4712 13.4099 13.7911 13.1896C14.111 12.9693 14.4983 12.8686 14.885 12.905C15.59 12.905 16.385 13.08 16.21 14.095L15.265 14.08Z" fill="#231F20"/>
<path d="M17.645 13.5C17.7878 13.3086 17.9734 13.1533 18.187 13.0465C18.4006 12.9397 18.6362 12.8844 18.875 12.885C19.665 12.885 20.22 13.495 19.915 14.74C19.67 15.74 18.99 16.67 17.915 16.67C17.255 16.67 17.105 16.315 17.04 16.115L16.585 18H15.635L16.865 13H17.77L17.645 13.5ZM17.885 15.895C18.495 15.895 18.83 15.23 18.93 14.805C19.07 14.235 19 13.705 18.4 13.705C17.8 13.705 17.45 14.285 17.31 14.86C17.17 15.435 17.31 15.895 17.885 15.895Z" fill="#231F20"/>
<path d="M21.5 16.675C20.535 16.675 19.81 16.08 20.13 14.785C20.2345 14.2507 20.5216 13.7694 20.9422 13.4236C21.3628 13.0778 21.8906 12.8892 22.435 12.89C23.4 12.89 24.13 13.485 23.81 14.785C23.7026 15.3184 23.4138 15.7981 22.9927 16.1427C22.5715 16.4872 22.0441 16.6753 21.5 16.675ZM22.235 13.675C21.9476 13.6969 21.6771 13.8191 21.4705 14.0201C21.264 14.2211 21.1346 14.4883 21.105 14.775C20.99 15.235 20.97 15.87 21.7 15.87C21.9872 15.8485 22.2578 15.7272 22.4651 15.5273C22.6723 15.3273 22.8032 15.0612 22.835 14.775C22.945 14.315 22.97 13.675 22.235 13.675Z" fill="#231F20"/>
</svg>
