<svg width="24" height="24" viewBox="0 0 24 24" fill="none" xmlns="http://www.w3.org/2000/svg">
<g clip-path="url(#clip0_335_5865)">
<g clip-path="url(#clip1_335_5865)">
<path d="M24 0H0V24H24V0Z" fill="#FFDF1C"/>
<path d="M15.725 8.96997C16.2195 8.96997 16.7028 8.82335 17.1139 8.54865C17.5251 8.27394 17.8455 7.8835 18.0347 7.42668C18.2239 6.96987 18.2734 6.4672 18.177 5.98225C18.0805 5.49729 17.8424 5.05184 17.4928 4.7022C17.1431 4.35257 16.6977 4.11447 16.2127 4.01801C15.7278 3.92155 15.2251 3.97105 14.7683 4.16027C14.3115 4.34949 13.921 4.66992 13.6463 5.08105C13.3716 5.49217 13.225 5.97552 13.225 6.46997C13.225 7.13301 13.4884 7.7689 13.9572 8.23774C14.4261 8.70658 15.062 8.96997 15.725 8.96997Z" fill="#FFDF1C"/>
<path d="M13.65 6.49999C13.651 6.08981 13.7735 5.68912 14.0021 5.34855C14.2307 5.00798 14.5551 4.7428 14.9344 4.58651C15.3136 4.43023 15.7307 4.38985 16.1329 4.47048C16.535 4.5511 16.9043 4.74912 17.194 5.03951C17.4837 5.32991 17.6808 5.69964 17.7605 6.10202C17.8401 6.50439 17.7988 6.92135 17.6416 7.30021C17.4844 7.67908 17.2184 8.00285 16.8773 8.23064C16.5362 8.45842 16.1352 8.57999 15.725 8.57999C15.4521 8.57999 15.1819 8.52616 14.9298 8.42157C14.6777 8.31698 14.4487 8.16369 14.256 7.97047C14.0632 7.77726 13.9105 7.54793 13.8065 7.2956C13.7025 7.04327 13.6493 6.77291 13.65 6.49999Z" fill="black"/>
<path d="M8.70501 7.38498C9.04222 7.38498 9.37187 7.28498 9.65225 7.09763C9.93264 6.91028 10.1512 6.644 10.2802 6.33245C10.4093 6.0209 10.443 5.67809 10.3772 5.34735C10.3115 5.01661 10.1491 4.71281 9.91062 4.47436C9.67218 4.23591 9.36837 4.07353 9.03764 4.00774C8.7069 3.94195 8.36408 3.97571 8.05253 4.10476C7.74098 4.23381 7.4747 4.45234 7.28735 4.73273C7.1 5.01312 7.00001 5.34276 7.00001 5.67998C6.99935 5.90407 7.043 6.12607 7.12845 6.33323C7.2139 6.54039 7.33946 6.72861 7.49792 6.88707C7.65637 7.04552 7.84459 7.17108 8.05175 7.25654C8.25891 7.34199 8.48092 7.38564 8.70501 7.38498Z" fill="black"/>
<path d="M11.12 12.64L10.315 8.69998C10.2078 8.34348 9.97183 8.03958 9.65302 7.84737C9.33421 7.65516 8.95531 7.58836 8.58999 7.65998C8.39362 7.69196 8.20587 7.76375 8.03824 7.87092C7.87062 7.97809 7.72667 8.11839 7.61523 8.28321C7.5038 8.44803 7.42722 8.63388 7.3902 8.82936C7.35319 9.02484 7.35652 9.22583 7.39999 9.41998C7.58499 10.42 8.21999 13.645 8.21999 13.645C8.52999 15.115 9.50999 15.04 10.115 15.04H13.5V19C13.4832 19.131 13.4946 19.2641 13.5333 19.3904C13.572 19.5166 13.6372 19.6332 13.7244 19.7324C13.8117 19.8315 13.9191 19.9109 14.0395 19.9653C14.1598 20.0197 14.2904 20.0478 14.4225 20.0478C14.5546 20.0478 14.6851 20.0197 14.8055 19.9653C14.9259 19.9109 15.0333 19.8315 15.1205 19.7324C15.2078 19.6332 15.273 19.5166 15.3117 19.3904C15.3504 19.2641 15.3617 19.131 15.345 19V14.035C15.3681 13.8506 15.3496 13.6634 15.291 13.487C15.2323 13.3107 15.1349 13.1498 15.0059 13.016C14.8769 12.8822 14.7196 12.779 14.5456 12.714C14.3715 12.6489 14.1851 12.6236 14 12.64H11.12Z" fill="black"/>
<path d="M7.89499 13.7C7.93547 14.1637 8.15063 14.5946 8.4969 14.9056C8.84316 15.2166 9.29466 15.3844 9.75999 15.375C10.56 15.375 11.67 15.375 12.205 15.375C12.3836 15.39 12.5502 15.4715 12.6715 15.6035C12.7929 15.7355 12.8602 15.9082 12.8602 16.0875C12.8602 16.2668 12.7929 16.4395 12.6715 16.5715C12.5502 16.7035 12.3836 16.785 12.205 16.8C10.81 16.8 10.875 16.8 9.59999 16.8C8.83568 16.775 8.10496 16.48 7.53746 15.9674C6.96997 15.4549 6.6024 14.7578 6.49999 14C6.14499 12.115 5.79999 10.435 5.79999 10.435C5.77518 10.3457 5.76848 10.2523 5.7803 10.1604C5.79212 10.0685 5.8222 9.97981 5.8688 9.89967C5.91539 9.81953 5.97754 9.74953 6.05159 9.69377C6.12564 9.63802 6.21009 9.59764 6.29999 9.57501C6.39237 9.55148 6.48858 9.54706 6.58273 9.56203C6.67688 9.577 6.76698 9.61105 6.8475 9.66208C6.92802 9.71311 6.99728 9.78004 7.05101 9.85879C7.10474 9.93754 7.14183 10.0264 7.15999 10.12L7.86999 13.69" fill="black"/>
<path d="M15.5 5.14002V6.59002C15.5 6.77502 15.655 6.81002 15.775 6.75002L17 6.17002C17.0325 6.15411 17.0573 6.12594 17.069 6.09172C17.0808 6.05749 17.0784 6.02001 17.0625 5.98752C17.0466 5.95504 17.0184 5.9302 16.9842 5.91848C16.95 5.90676 16.9125 5.90911 16.88 5.92502L15.795 6.42502V5.15503C15.7989 5.13408 15.7982 5.11252 15.7929 5.09189C15.7875 5.07125 15.7777 5.05205 15.7641 5.03565C15.7505 5.01924 15.7334 5.00604 15.7142 4.99698C15.6949 4.98791 15.6738 4.98322 15.6525 4.98322C15.6312 4.98322 15.6101 4.98791 15.5908 4.99698C15.5716 5.00604 15.5545 5.01924 15.5409 5.03565C15.5273 5.05205 15.5175 5.07125 15.5121 5.09189C15.5068 5.11252 15.5061 5.13408 15.51 5.15503" fill="#FFDF1C"/>
</g>
</g>
<defs>
<clipPath id="clip0_335_5865">
<rect width="24" height="24" rx="2" fill="white"/>
</clipPath>
<clipPath id="clip1_335_5865">
<rect width="24" height="24" fill="white"/>
</clipPath>
</defs>
</svg>
