<svg width="24" height="24" viewBox="0 0 24 24" fill="none" xmlns="http://www.w3.org/2000/svg">
<path d="M24 19.4127C24 21.9391 22.1675 24 19.9212 24H4.07882C1.83251 24 0 21.9391 0 19.4127V4.58726C0 2.06094 1.83251 0 4.07882 0H19.8621C22.1084 0 23.9409 2.06094 23.9409 4.58726V19.4127H24Z" fill="#8DC63F"/>
<path d="M2.46002 20.58C5.88002 21.66 8.64002 19.14 8.64002 19.14C9.72002 19.5 10.92 19.68 12.18 19.68C17.58 19.68 21.96 16.08 21.96 11.64C21.96 7.19998 17.58 3.59998 12.18 3.59998C6.78003 3.59998 2.40002 7.19998 2.40002 11.64C2.40002 13.8 3.66002 15.78 5.34002 17.22C5.34002 17.22 5.52002 19.32 2.46002 20.58Z" fill="white" stroke="#8DC63F" stroke-width="1.3955" stroke-miterlimit="10"/>
<path d="M15.06 10.92L18.12 9.23999C18.48 9.23999 18.78 9.53999 18.78 9.89999V13.38C18.78 13.74 18.48 14.04 18.12 14.04L15.06 12.54V10.92Z" fill="white"/>
<path d="M14.58 13.56C14.58 14.28 13.98 14.88 13.26 14.88H7.55999C6.83999 14.88 6.23999 14.28 6.23999 13.56V9.65997C6.23999 8.93997 6.83999 8.33997 7.55999 8.33997H13.26C13.98 8.33997 14.58 8.93997 14.58 9.65997V13.56Z" fill="white"/>
<path d="M14.88 11.1L17.94 9.41998C18.3 9.41998 18.6 9.71998 18.6 10.08V13.56C18.6 13.92 18.3 14.22 17.94 14.22L14.88 12.66V11.1Z" fill="#8DC63F"/>
<path d="M14.46 13.68C14.46 14.4 13.86 15 13.14 15H7.44C6.72 15 6.12 14.4 6.12 13.68V9.77996C6.12 9.05996 6.72 8.45996 7.44 8.45996H13.14C13.86 8.45996 14.46 9.05996 14.46 9.77996V13.68Z" fill="#8DC63F"/>
</svg>
