<svg width="24" height="24" viewBox="0 0 24 24" fill="none" xmlns="http://www.w3.org/2000/svg">
<path d="M6.85109 10.8298C6.14896 10.8298 5.68088 11.2979 5.68088 11.7659C5.68088 12.4681 6.14896 12.9362 6.85109 12.9362C7.55322 12.9362 8.0213 12.4681 8.0213 11.7659C7.78726 11.2979 7.31918 10.8298 6.85109 10.8298Z" fill="black"/>
<path d="M12 1C5.91489 1 1 5.91489 1 12C1 18.0851 5.91489 23 12 23C18.0851 23 23 18.0851 23 12C22.766 5.91489 17.8511 1 12 1ZM19.2553 15.5106H18.3192V17.383C18.3192 17.383 18.3192 17.617 18.0851 17.617H16.2128C16.2128 17.617 16.2128 17.617 16.2128 17.383V15.2766H8.02128C8.02128 15.2766 8.02128 17.1489 8.02128 17.383C8.02128 17.617 7.78723 17.617 7.78723 17.617H5.91489C5.68085 17.617 5.68085 17.383 5.68085 17.383V15.5106H4.74468C4.74468 15.5106 4.74468 13.4043 4.74468 11.766C4.74468 10.8298 5.91489 10.1277 5.91489 10.3617C6.14894 9.89362 7.08511 6.85106 7.31915 6.61702C7.31915 5.91489 7.78723 5.68085 8.02128 5.68085H15.9787C16.2128 5.68085 16.6809 5.91489 16.6809 6.38298C16.9149 6.61702 17.8511 9.89362 18.0851 10.1277C18.0851 10.1277 19.2553 10.8298 19.2553 11.766C19.2553 13.1702 19.2553 15.5106 19.2553 15.5106Z" fill="black"/>
<path d="M15.9787 6.617H8.02129L6.85107 9.8936H17.1489L15.9787 6.617Z" fill="black"/>
<path d="M17.1489 10.8298C16.4468 10.8298 15.9787 11.2979 15.9787 12C15.9787 12.7021 16.4468 13.1702 17.1489 13.1702C17.851 13.1702 18.3191 12.7021 18.3191 12C18.3191 11.2979 17.851 10.8298 17.1489 10.8298Z" fill="black"/>
</svg>
