<svg xmlns="http://www.w3.org/2000/svg" viewBox="0 0 22 22"><defs><style>.cls-1{fill:#231f20;}</style></defs><g id="Layer_2" data-name="Layer 2"><g id="Layer_1-2" data-name="Layer 1"><path class="cls-1" d="M10.7,17.57a13,13,0,0,1-3.59-.51l.22-2.56a8.29,8.29,0,0,0,3.37.77V12.15l-1-.34c-1.66-.55-2.9-1.43-2.9-3.47C6.76,6,8.2,4.59,10.7,4.41V2.84h.84V4.41A9.18,9.18,0,0,1,14.73,5l-.17,2.43a5.09,5.09,0,0,0-3-.82V9.49c2.22.49,4,1.44,4,4.12,0,2.22-1.47,3.79-4,4v1.6H10.7Zm0-11A1.28,1.28,0,0,0,9.49,8,1.35,1.35,0,0,0,10.7,9.31Zm.84,8.71a1.29,1.29,0,0,0,1.24-1.4,1.39,1.39,0,0,0-1.24-1.54Z"/><path class="cls-1" d="M11,1.5A9.5,9.5,0,1,1,1.5,11,9.51,9.51,0,0,1,11,1.5M11,0A11,11,0,1,0,22,11,11,11,0,0,0,11,0Z"/></g></g></svg>