<svg width="24" height="24" viewBox="0 0 24 24" fill="none" xmlns="http://www.w3.org/2000/svg">
<path fill-rule="evenodd" clip-rule="evenodd" d="M12 23C18.0751 23 23 18.0751 23 12C23 5.92487 18.0751 1 12 1C5.92487 1 1 5.92487 1 12C1 18.0751 5.92487 23 12 23ZM4.52728 16.512C5.94359 16.512 7.29246 15.4531 7.29246 13.6726V13.6524V10.4555H7.2992C7.2992 10.4252 7.29752 10.3965 7.29583 10.3679C7.29415 10.3392 7.29246 10.3105 7.29246 10.2802C7.29246 8.24341 8.66156 6.53035 10.5365 6.00429C10.6714 5.46475 11.157 5.06683 11.737 5.06683C12.317 5.06683 12.8026 5.458 12.9375 5.99755C14.8056 6.5236 16.1815 8.23666 16.1815 10.2735C16.1815 10.3342 16.1815 10.3881 16.1747 10.4488H16.1815V13.6456V13.6726C16.1815 15.271 17.2269 16.4647 18.8253 16.4647H18.8927C19.095 16.512 19.2232 16.7143 19.176 16.9099C19.1288 17.1122 18.9264 17.2066 18.7308 17.1931L4.61496 17.2471C4.40589 17.2471 4.24402 17.0717 4.24402 16.8694C4.24402 16.6603 4.41937 16.4985 4.6217 16.4985L4.52728 16.512ZM11.71 19.493C12.7216 19.493 13.5445 18.6701 13.5445 17.6585H9.87554C9.87554 18.6701 10.6983 19.493 11.71 19.493ZM6.40895 9.45739H6.36849C6.19988 9.43041 6.08522 9.28204 6.1122 9.11343C6.30104 7.79828 6.84059 6.8878 7.86573 6.15267C8.00061 6.05825 8.18945 6.08522 8.29062 6.22011C8.38504 6.355 8.35806 6.54384 8.22318 6.645C7.33292 7.28571 6.88105 8.04782 6.71919 9.2011C6.68547 9.34948 6.55733 9.45739 6.40895 9.45739ZM5.12753 8.84365H5.168C5.31637 8.84365 5.44451 8.729 5.47149 8.58063C5.63335 7.42735 6.08522 6.66524 6.98222 6.03127C7.11711 5.9301 7.14408 5.74126 7.04966 5.60638C6.9485 5.47149 6.75966 5.44451 6.62477 5.53893C5.59963 6.27407 5.06009 7.18455 4.87124 8.49969C4.84427 8.6683 4.95892 8.81668 5.12753 8.84365ZM16.9773 9.34948C16.8289 9.34948 16.7008 9.24157 16.6806 9.08645C16.512 7.93317 16.0668 7.17106 15.1766 6.53035C15.0417 6.43593 15.008 6.24034 15.1091 6.10546C15.2036 5.97057 15.3991 5.93685 15.534 6.03801C16.5592 6.77315 17.0987 7.68363 17.2876 8.99877C17.3145 9.16738 17.1931 9.31576 17.0313 9.34273C17.011 9.34948 16.9975 9.34948 16.9773 9.34948ZM17.9215 8.47272C17.9418 8.62784 18.0699 8.73574 18.2183 8.73574C18.2318 8.73574 18.2452 8.73575 18.2722 8.729C18.4341 8.70202 18.5555 8.55365 18.5285 8.38504C18.3397 7.0699 17.8001 6.15941 16.775 5.42428C16.6401 5.32311 16.4445 5.35684 16.3501 5.49172C16.2489 5.62661 16.2826 5.8222 16.4175 5.91662C17.3078 6.55733 17.7529 7.31944 17.9215 8.47272Z" fill="#FF0024"/>
</svg>
