<svg width="24" height="24" viewBox="0 0 24 24" fill="none" xmlns="http://www.w3.org/2000/svg">
<g clip-path="url(#clip0_335_5693)">
<g clip-path="url(#clip1_335_5693)">
<path d="M24 0H0V24H24V0Z" fill="black"/>
<path d="M9.12 10.09C9.12 10.2624 9.18848 10.4277 9.31038 10.5496C9.43227 10.6715 9.5976 10.74 9.77 10.74H14.555C14.7265 10.7387 14.8906 10.6696 15.0114 10.5479C15.1322 10.4261 15.2 10.2615 15.2 10.09V4.435H9.12V10.09Z" fill="#333334"/>
<path d="M15.645 4.435H8.67502V10.09C8.6764 10.3033 8.74007 10.5116 8.85821 10.6893C8.97635 10.8669 9.14381 11.0062 9.34002 11.09C9.33506 11.1566 9.33506 11.2234 9.34002 11.29V11.5C9.16212 11.3502 8.93758 11.2671 8.70502 11.265C8.42997 11.2771 8.16935 11.3915 7.97421 11.5857C7.77907 11.7799 7.66346 12.04 7.65002 12.315V16.365C7.66791 16.8143 7.78759 17.2537 8.00002 17.65L8.40502 18.35C8.57624 18.6801 8.6735 19.0435 8.69002 19.415V20H9.13502V19.415C9.11868 18.9661 9.00072 18.5267 8.79002 18.13L8.38502 17.43C8.2138 17.0999 8.11655 16.7365 8.10002 16.365V14.365C8.27528 14.5033 8.49177 14.579 8.71502 14.58C8.88358 14.5768 9.04877 14.5323 9.1961 14.4503C9.34343 14.3684 9.4684 14.2515 9.56002 14.11C9.65165 14.2515 9.77662 14.3684 9.92395 14.4503C10.0713 14.5323 10.2365 14.5768 10.405 14.58C10.6807 14.5603 10.9393 14.4389 11.1305 14.2393C11.3217 14.0398 11.4321 13.7763 11.44 13.5C11.6146 13.6401 11.8312 13.7176 12.055 13.72C12.1502 13.7201 12.2447 13.705 12.335 13.675C12.3008 13.7353 12.2588 13.7908 12.21 13.84C11.8406 14.2955 11.6377 14.8635 11.635 15.45V16.39H12.08V15.43C12.0843 14.9616 12.2405 14.5072 12.525 14.135C12.898 13.6718 13.101 13.0947 13.1 12.5V8.81C13.1 8.62302 13.1743 8.4437 13.3065 8.31149C13.4387 8.17927 13.618 8.105 13.805 8.105C13.992 8.105 14.1713 8.17927 14.3035 8.31149C14.4357 8.4437 14.51 8.62302 14.51 8.81V12.4H14.955V11.19L15.74 12.5C15.8082 12.6378 15.8457 12.7886 15.85 12.9423C15.8543 13.0959 15.8253 13.2486 15.765 13.39L14.105 16.655C13.911 17.0751 13.835 17.54 13.885 18L14.18 20H14.63L14.325 17.91C14.2969 17.5526 14.357 17.1938 14.5 16.865L16.16 13.605C16.2545 13.3965 16.3 13.1692 16.2931 12.9404C16.2862 12.7116 16.227 12.4874 16.12 12.285L15.295 10.89C15.4056 10.7882 15.4938 10.6645 15.5541 10.5268C15.6143 10.389 15.6453 10.2403 15.645 10.09V4.435Z" fill="black"/>
<path d="M9.30503 13.43C9.3175 13.6067 9.26001 13.7813 9.14496 13.9159C9.0299 14.0506 8.86651 14.1347 8.69003 14.15C8.51304 14.136 8.34886 14.0523 8.23355 13.9173C8.11824 13.7823 8.06122 13.607 8.07503 13.43V12.43C8.06256 12.2533 8.12005 12.0788 8.2351 11.9441C8.35015 11.8094 8.51355 11.7253 8.69003 11.71C8.86601 11.7266 9.02864 11.811 9.14344 11.9454C9.25825 12.0798 9.3162 12.2536 9.30503 12.43V13.43Z" fill="white"/>
<path d="M11 12.53V13.43C11.0138 13.607 10.9568 13.7823 10.8415 13.9172C10.7261 14.0522 10.562 14.136 10.385 14.15C10.2085 14.1347 10.0451 14.0506 9.93005 13.9159C9.81499 13.7812 9.7575 13.6067 9.76997 13.43V11.295C9.76751 11.2584 9.76751 11.2216 9.76997 11.185H11C11.0025 11.2216 11.0025 11.2584 11 11.295V12.53Z" fill="white"/>
<path d="M12.63 12.775C12.6027 12.9101 12.5315 13.0323 12.4275 13.1228C12.3235 13.2132 12.1925 13.2667 12.055 13.275C11.8776 13.2597 11.7134 13.1749 11.5982 13.0391C11.483 12.9033 11.4261 12.7275 11.44 12.55V11.185H12.655V12.5C12.6622 12.5865 12.6622 12.6735 12.655 12.76L12.63 12.775Z" fill="white"/>
<path d="M9.11001 20V19.415C9.09367 18.9661 8.97571 18.5267 8.76501 18.13L8.36001 17.43C8.18879 17.0999 8.09154 16.7365 8.07501 16.365V14.365C8.25026 14.5033 8.46676 14.579 8.69001 14.58C8.85857 14.5768 9.02376 14.5322 9.17109 14.4503C9.31842 14.3684 9.44338 14.2515 9.53501 14.11C9.62664 14.2515 9.7516 14.3684 9.89893 14.4503C10.0463 14.5322 10.2115 14.5768 10.38 14.58C10.6601 14.5663 10.9248 14.4475 11.1213 14.2473C11.3177 14.0472 11.4315 13.7803 11.44 13.5C11.6146 13.6401 11.8312 13.7176 12.055 13.72C12.1502 13.7201 12.2447 13.7049 12.335 13.675C12.3008 13.7353 12.2588 13.7907 12.21 13.84C11.8406 14.2955 11.6377 14.8635 11.635 15.45V16.39H12.08V15.43C12.0843 14.9615 12.2405 14.5071 12.525 14.135C12.898 13.6718 13.101 13.0947 13.1 12.5V8.80998C13.1 8.623 13.1743 8.44368 13.3065 8.31147C13.4387 8.17926 13.618 8.10498 13.805 8.10498C13.992 8.10498 14.1713 8.17926 14.3035 8.31147C14.4357 8.44368 14.51 8.623 14.51 8.80998V12.4H14.955V11.19L15.735 12.5C15.8053 12.637 15.8444 12.7878 15.8496 12.9416C15.8547 13.0955 15.8259 13.2486 15.765 13.39L14.105 16.655C13.911 17.0751 13.835 17.54 13.885 18L14.18 20H9.11001Z" fill="white"/>
<path d="M7.95001 4V4.445H9.12001V10.09C9.12001 10.2624 9.18849 10.4277 9.31039 10.5496C9.43229 10.6715 9.59762 10.74 9.77001 10.74H12.655V8.81C12.655 8.505 12.7762 8.21249 12.9918 7.99683C13.2075 7.78116 13.5 7.66 13.805 7.66C14.11 7.66 14.4025 7.78116 14.6182 7.99683C14.8339 8.21249 14.955 8.505 14.955 8.81V10.595C15.0312 10.5357 15.0928 10.4599 15.1352 10.3733C15.1777 10.2866 15.1998 10.1915 15.2 10.095V4.435H16.37V4H7.95001Z" fill="white"/>
</g>
</g>
<defs>
<clipPath id="clip0_335_5693">
<rect width="24" height="24" rx="2" fill="white"/>
</clipPath>
<clipPath id="clip1_335_5693">
<rect width="24" height="24" fill="white"/>
</clipPath>
</defs>
</svg>
