<svg width="24" height="24" viewBox="0 0 24 24" fill="none" xmlns="http://www.w3.org/2000/svg">
<g clip-path="url(#clip0_335_5686)">
<g clip-path="url(#clip1_335_5686)">
<path d="M24 0H0V24H24V0Z" fill="black"/>
<path fill-rule="evenodd" clip-rule="evenodd" d="M6.90001 12.9V12.5H6.10001V12.95H6.90001V12.9ZM9.40001 18.4C10.05 18.4 9.95001 17.9 10 17.35V9.55001L12.95 6.60001C13.25 6.15001 12.7 5.60001 12.2 5.90001L10 8.05001H7.50001C6.75001 8.05001 6.25001 8.65001 6.25001 9.90001V12.15C5.90001 12.2 5.85001 12.15 5.85001 12.5V12.95H5.45001V15.6H7.40001V17.45C7.40001 18.15 7.40001 18.45 8.00001 18.45C8.45001 18.45 8.60001 18.25 8.55001 17.4V12.9H8.80001V17.4C8.80001 18.1 8.80001 18.45 9.40001 18.4ZM8.80001 5.70001C9.40001 5.70001 9.85001 6.15001 9.85001 6.75001C9.85001 7.30001 9.40001 7.80001 8.80001 7.80001C8.20001 7.80001 7.75001 7.35001 7.75001 6.75001C7.75001 6.15001 8.20001 5.70001 8.80001 5.70001ZM5.20001 12.85C4.25001 12.85 4.35001 13.4 4.35001 14.2C4.35001 15 4.25001 15.5 5.20001 15.5V12.85ZM17.05 10.05C17.3 10.05 17.55 10.25 17.55 10.55C17.55 10.8 17.35 11.05 17.05 11.05C16.8 11.05 16.55 10.85 16.55 10.55C16.55 10.3 16.75 10.05 17.05 10.05ZM18.2 12.3C17.85 12.3 17.6 12.6 17.6 12.95C17.6 13.3 17.85 13.55 18.2 13.55C18.55 13.55 18.8 13.25 18.8 12.95C18.85 12.6 18.6 12.3 18.2 12.3ZM12.7 12.3C12.35 12.3 12.1 12.6 12.1 12.95C12.1 13.3 12.4 13.55 12.7 13.55C13.05 13.55 13.35 13.25 13.35 12.95C13.3 12.6 13.05 12.3 12.7 12.3ZM16.25 11.6L15.05 10.9C14.95 10.75 15 10.65 15.05 10.6C15.1 10.55 15.2 10.5 15.4 10.6L16.65 11.2H17.5C17.8 11.25 17.9 11.35 18 11.55H18.3L17.55 9.80001H13.4L12.65 11.55H16.25V11.6ZM7.40001 9.65001H7.20001V12.9H7.40001V9.65001ZM17.6 15.5V14.65H13.3V15.5C13.3 15.8 13.05 16.05 12.8 16.05C12.5 16.05 12.25 15.8 12.25 15.5V14.65H12.05H11.3V12.25V12.2C11.35 11.8 11.7 11.6 12.1 11.6L13.1 9.50001C13.25 9.30001 13.4 9.25001 13.65 9.25001H17.45C17.75 9.25001 17.85 9.30001 17.95 9.50001L18.95 11.6C19.3 11.6 19.7 11.8 19.75 12.2V12.25V14.65H18.95H18.7V15.5C18.7 15.8 18.45 16.05 18.2 16.05C17.85 16.05 17.6 15.8 17.6 15.5Z" fill="white"/>
</g>
</g>
<defs>
<clipPath id="clip0_335_5686">
<rect width="24" height="24" rx="2" fill="white"/>
</clipPath>
<clipPath id="clip1_335_5686">
<rect width="24" height="24" fill="white"/>
</clipPath>
</defs>
</svg>
