<svg width="24" height="24" viewBox="0 0 24 24" fill="none" xmlns="http://www.w3.org/2000/svg">
<path d="M12 19.1667C11.4167 19.1667 10.9236 18.9653 10.5208 18.5625C10.1181 18.1597 9.91667 17.6667 9.91667 17.0833C9.91667 16.5 10.1181 16.0069 10.5208 15.6042C10.9236 15.2014 11.4167 15 12 15C12.5833 15 13.0764 15.2014 13.4792 15.6042C13.8819 16.0069 14.0833 16.5 14.0833 17.0833C14.0833 17.6667 13.8819 18.1597 13.4792 18.5625C13.0764 18.9653 12.5833 19.1667 12 19.1667ZM7.29167 14.4583L5.54167 12.6667C6.36111 11.8472 7.32306 11.1981 8.4275 10.7192C9.53194 10.2403 10.7228 10.0006 12 10C13.2772 9.99944 14.4683 10.2425 15.5733 10.7292C16.6783 11.2158 17.64 11.8756 18.4583 12.7083L16.7083 14.4583C16.0972 13.8472 15.3889 13.3681 14.5833 13.0208C13.7778 12.6736 12.9167 12.5 12 12.5C11.0833 12.5 10.2222 12.6736 9.41667 13.0208C8.61111 13.3681 7.90278 13.8472 7.29167 14.4583ZM3.75 10.9167L2 9.16667C3.27778 7.86111 4.77083 6.84028 6.47917 6.10417C8.1875 5.36806 10.0278 5 12 5C13.9722 5 15.8125 5.36806 17.5208 6.10417C19.2292 6.84028 20.7222 7.86111 22 9.16667L20.25 10.9167C19.1806 9.84722 17.9411 9.01056 16.5317 8.40667C15.1222 7.80278 13.6117 7.50056 12 7.5C10.3883 7.49944 8.87806 7.80167 7.46917 8.40667C6.06028 9.01167 4.82056 9.84833 3.75 10.9167Z" fill="black"/>
</svg>
