<svg width="24" height="24" viewBox="0 0 24 24" fill="none" xmlns="http://www.w3.org/2000/svg">
<g clip-path="url(#clip0_335_5684)">
<g clip-path="url(#clip1_335_5684)">
<path d="M24 0H0V24H24V0Z" fill="#4D4D4F"/>
<path fill-rule="evenodd" clip-rule="evenodd" d="M3.95002 15.95C2.70002 15.95 2.30002 16.55 2.30002 17.3C2.30002 18 2.80002 18.7 3.90002 18.7H6.30002C7.65002 18.65 7.60002 18.65 8.90002 17.6L15.5 11.9C15.95 11.45 16.45 11.3 17.2 11.35H20.05C21.15 11.35 21.65 10.75 21.65 10C21.65 9.15001 21.15 8.60001 20.05 8.60001H16.8C15.95 8.60001 15.35 8.65001 14.8 9.10001L7.90002 15.15C7.05002 15.9 7.25002 15.9 6.15002 16L3.95002 15.95ZM10.7 4.20001C11.55 4.20001 12.2 4.85001 12.2 5.70001C12.2 6.50001 11.5 7.20001 10.7 7.20001C9.85002 7.20001 9.20002 6.55001 9.20002 5.70001C9.20002 4.90001 9.90002 4.20001 10.7 4.20001ZM9.10002 12.65V8.95001C9.10002 8.10001 9.65002 7.40001 10.75 7.40001C11.8 7.40001 12.35 8.10001 12.35 8.95001V9.85001L14 8.40001C14.6 7.95001 15.05 7.55001 15.9 7.50001H20.2C21.95 7.50001 22.8 8.80001 22.8 10C22.8 11.1 22 12.4 20.1 12.4H17.4C16.2 12.35 16.1 12.75 15.5 13.25L9.75002 18.35C8.80002 19.15 8.40002 19.7 6.60002 19.75H3.50002C2.15002 19.75 1.15002 18.55 1.15002 17.3C1.15002 16 2.40002 14.95 3.35002 14.95H5.85002C6.60002 14.95 6.70002 14.8 7.70002 13.85L9.10002 12.65Z" fill="white"/>
</g>
</g>
<defs>
<clipPath id="clip0_335_5684">
<rect width="24" height="24" rx="2" fill="white"/>
</clipPath>
<clipPath id="clip1_335_5684">
<rect width="24" height="24" fill="white"/>
</clipPath>
</defs>
</svg>
