<svg width="24" height="24" viewBox="0 0 24 24" fill="none" xmlns="http://www.w3.org/2000/svg">
<g clip-path="url(#clip0_335_5697)">
<g clip-path="url(#clip1_335_5697)">
<path d="M24 0H0V24H24V0Z" fill="#EC1C24"/>
<path d="M14.45 17.2C13.4 17.2 12.5 18.05 12.55 19.2C12.5 20.25 13.4 21.15 14.45 21.15C15.55 21.15 16.4 20.3 16.4 19.2C16.4 18.05 15.55 17.2 14.45 17.2Z" fill="white"/>
<path d="M14.5 13.95C16.1 13.95 17.55 14.7 18.5 15.9V13.2H5.5V21.75H10.05C9.6 21 9.35 20.1 9.35 19.15C9.35 16.3 11.65 14 14.5 13.95Z" fill="white" stroke="white" stroke-width="0.15" stroke-miterlimit="10"/>
<path d="M11.7 5.99999C12.75 5.99999 13.55 5.14999 13.55 4.14999C13.55 3.09999 12.7 2.29999 11.7 2.29999C10.65 2.29999 9.85001 3.14999 9.85001 4.14999C9.85001 5.14999 10.65 5.99999 11.7 5.99999Z" fill="white"/>
<path d="M9.44999 8.65C9.54999 8.5 9.64999 8.55 9.64999 8.7V12.95H13.75V8.9C13.75 8.75 13.9 8.6 14.05 8.95L15.45 12.9H17.05L15.15 7.65C14.95 7.05 14.45 6.5 13.5 6.5H11.55C11.55 6.5 10.25 6.5 9.59999 6.5C8.89999 6.5 8.39999 7.3 8.29999 7.6L6.54999 12.95H8.09999L9.44999 8.65Z" fill="white"/>
<path d="M18.5 15.9C17.55 14.7 16.1 13.95 14.5 13.95C11.65 13.95 9.35001 16.3 9.35001 19.2C9.35001 20.15 9.60001 21 10.05 21.8H18.5V15.9ZM14.45 21.1C13.4 21.1 12.5 20.25 12.55 19.15C12.5 18.05 13.4 17.15 14.45 17.15C15.55 17.15 16.4 18 16.4 19.15C16.4 20.25 15.55 21.15 14.45 21.1Z" fill="#EC1C24" stroke="white" stroke-width="0.15" stroke-miterlimit="10"/>
</g>
</g>
<defs>
<clipPath id="clip0_335_5697">
<rect width="24" height="24" rx="2" fill="white"/>
</clipPath>
<clipPath id="clip1_335_5697">
<rect width="24" height="24" fill="white"/>
</clipPath>
</defs>
</svg>
