<svg width="24" height="24" viewBox="0 0 24 24" fill="none" xmlns="http://www.w3.org/2000/svg">
<path d="M22.9999 11.9656C23.0067 14.1427 22.3673 16.2728 21.1628 18.0862C19.9582 19.8997 18.2427 21.3149 16.2333 22.1528C14.2239 22.9906 12.0111 23.2134 9.87508 22.7928C7.73904 22.3723 5.77582 21.3273 4.234 19.7903C2.69219 18.2533 1.64112 16.2934 1.21389 14.1587C0.786665 12.024 1.00249 9.81048 1.83403 7.79849C2.66557 5.78651 4.07543 4.06652 5.88511 2.8563C7.69478 1.64608 9.82287 1.00006 11.9999 1.00005C13.4428 0.995531 14.8725 1.27583 16.2068 1.82487C17.5412 2.37392 18.7541 3.18092 19.776 4.19962C20.7979 5.21832 21.6087 6.42869 22.1619 7.76134C22.7151 9.09399 22.9999 10.5227 22.9999 11.9656Z" fill="#00AEEF"/>
<path d="M12.1098 7.36625C11.8846 7.36814 11.6612 7.32482 11.453 7.23885C11.2448 7.15288 11.0559 7.02601 10.8975 6.86576C10.7392 6.7055 10.6146 6.51512 10.5312 6.30586C10.4477 6.09661 10.4071 5.87274 10.4117 5.64751C10.4131 5.30864 10.515 4.97781 10.7046 4.69691C10.8941 4.41602 11.1627 4.19769 11.4765 4.06959C11.7902 3.94149 12.1349 3.90939 12.4668 3.97734C12.7988 4.04528 13.1032 4.21023 13.3413 4.45129C13.5795 4.69235 13.7408 4.99866 13.8047 5.33144C13.8686 5.66422 13.8324 6.00849 13.7005 6.32064C13.5686 6.63279 13.3471 6.89879 13.0639 7.08492C12.7807 7.27106 12.4487 7.36897 12.1098 7.36625ZM10.6592 20.085V8.70687H13.588V20.085H10.6592Z" fill="white"/>
</svg>
