<svg width="24" height="24" viewBox="0 0 24 24" fill="none" xmlns="http://www.w3.org/2000/svg">
<g clip-path="url(#clip0_335_5696)">
<path d="M24 0H0V24H24V0Z" fill="#1E8668"/>
<path d="M18.9 5.35001H8.70001C8.40001 4.40001 7.50001 3.70001 6.45001 3.70001C5.55001 3.70001 4.80001 4.15001 4.40001 4.85001H5.95001C6.35001 4.85001 6.70001 5.20001 6.70001 5.60001V6.60001C6.70001 7.00001 6.35001 7.35001 5.95001 7.35001H4.35001C4.75001 8.05001 5.55001 8.50001 6.40001 8.50001C7.45001 8.50001 8.35001 7.80001 8.65001 6.85001H18.85C19.3 6.85001 19.65 6.50001 19.65 6.05001C19.65 5.60001 19.3 5.35001 18.9 5.35001Z" fill="white"/>
<path d="M19.05 15C18.45 14.4 17.7 14.1 16.9 14.1C16.55 14.1 16.25 14.15 15.95 14.25L15.45 13.25L15 12.35L15.4 11.35H15.45H16.05C16.25 11.35 16.25 11.2 16.25 11C16.25 10.8 16.25 10.65 16.05 10.65H15.45H14.9H13.9C13.8 10.65 13.75 10.7 13.65 10.75C13.6 10.8 13.55 10.9 13.55 11C13.55 11.1 13.6 11.2 13.65 11.25C13.7 11.3 13.8 11.35 13.9 11.35H14.65L14.45 12H13.7H9.19999H9.09999L9.19999 11.75L9.39999 11.2C9.39999 11.15 9.54999 10.9 9.84999 10.9H10.65C10.85 10.9 10.85 10.75 10.85 10.55C10.85 10.35 10.85 10.2 10.65 10.2H9.84999C9.59999 10.2 9.39999 10.3 9.24999 10.4C8.99999 10.55 8.84999 10.8 8.79999 10.95C8.79999 10.95 8.54999 11.75 8.24999 12.75C8.09999 13.2 7.94999 13.7 7.79999 14.2C7.59999 14.15 7.39999 14.15 7.19999 14.15C5.49999 14.15 4.14999 15.55 4.14999 17.2C4.14999 18 4.44999 18.8 5.04999 19.35C5.64999 19.95 6.39999 20.25 7.19999 20.25C7.99999 20.25 8.69999 19.95 9.29999 19.45C9.34999 19.4 9.34999 19.4 9.39999 19.35C9.99999 18.75 10.3 18 10.3 17.2C10.3 16.4 9.99999 15.6 9.39999 15.05C9.34999 15 9.34999 15 9.29999 14.95C9.04999 14.7 8.74999 14.55 8.44999 14.4L8.74999 13.5L9.29999 14.05L12.6 17.35C12.6 17.35 12.6 17.35 12.65 17.35C12.7 17.35 12.7 17.4 12.75 17.4H12.8C12.85 17.4 12.85 17.4 12.9 17.4H13.85H14C14.05 18.15 14.35 18.8 14.9 19.3C14.95 19.35 15.05 19.4 15.1 19.5C15.25 19.65 15.45 19.75 15.65 19.85C16.1 20.1 16.55 20.2 17.1 20.2C17.9 20.2 18.7 19.9 19.25 19.3C19.85 18.7 20.15 17.95 20.15 17.15C19.95 16.35 19.65 15.6 19.05 15ZM8.79999 15.5C8.94999 15.65 9.09999 15.8 9.19999 16C9.39999 16.35 9.54999 16.8 9.54999 17.2C9.54999 17.65 9.44999 18.05 9.19999 18.4C8.79999 19.1 7.99999 19.6 7.09999 19.6C6.44999 19.6 5.84999 19.35 5.39999 18.9C4.94999 18.45 4.69999 17.85 4.69999 17.2C4.69999 16.55 4.94999 15.95 5.39999 15.5C5.84999 15.05 6.44999 14.8 7.09999 14.8C7.24999 14.8 7.34999 14.8 7.49999 14.85C7.09999 16.1 6.74999 17.2 6.74999 17.2C6.69999 17.4 6.79999 17.55 6.94999 17.6C7.14999 17.65 7.29999 17.55 7.34999 17.4L8.09999 15.05C8.39999 15.15 8.59999 15.3 8.79999 15.5ZM15.65 15.15L16.45 16.8H15.5H14.95H14.55C14.6 16.45 14.75 16.1 14.95 15.85C15.05 15.75 15.1 15.6 15.2 15.5C15.3 15.4 15.4 15.35 15.5 15.25C15.5 15.2 15.55 15.2 15.65 15.15ZM12.6 16.5L9.19999 13.1L8.84999 12.75L8.89999 12.65H9.19999H13.7H14.15L13.7 13.8L12.6 16.5ZM13.7 16.8H13.25L13.7 15.65L14.7 13.2L14.95 13.7L15.35 14.55C15.2 14.65 15.05 14.75 14.95 14.85C14.4 15.35 14 16 13.9 16.8H13.7ZM16.9 19.6C16.4 19.6 15.9 19.45 15.45 19.15C15.35 19.1 15.25 19 15.15 18.9C15.05 18.8 14.95 18.7 14.9 18.6C14.65 18.25 14.5 17.9 14.5 17.45H14.9H15.45H16.95C17.05 17.45 17.15 17.4 17.25 17.3C17.3 17.2 17.3 17.1 17.25 17L16.25 14.9C16.45 14.85 16.7 14.8 16.9 14.8C17.55 14.8 18.15 15.05 18.6 15.5C19.05 15.95 19.3 16.55 19.3 17.2C19.3 18.5 18.2 19.6 16.9 19.6Z" fill="white"/>
</g>
<defs>
<clipPath id="clip0_335_5696">
<rect width="24" height="24" rx="2" fill="white"/>
</clipPath>
</defs>
</svg>
