<svg width="24" height="24" viewBox="0 0 24 24" fill="none" xmlns="http://www.w3.org/2000/svg">
<g clip-path="url(#clip0_335_5687)">
<g clip-path="url(#clip1_335_5687)">
<path d="M24 0H0V24H24V0Z" fill="black"/>
<path d="M7.15002 8.35C7.60002 8.45 8.05002 8.15 8.15002 7.75C8.25002 7.3 7.95002 6.85 7.55002 6.75C7.10002 6.65 6.65002 6.95 6.55002 7.35C6.45002 7.85 6.70002 8.25 7.15002 8.35Z" fill="white"/>
<path d="M16.75 11.15C17.2 11.15 17.55 10.8 17.55 10.35C17.55 9.89999 17.2 9.54999 16.75 9.54999C16.3 9.54999 15.95 9.89999 15.95 10.35C15.95 10.8 16.3 11.15 16.75 11.15Z" fill="white"/>
<path d="M7.35 16.7C7.35 17 7.2 17.2 6.9 17.2C6.6 17.2 6.45 17 6.45 16.7C6.45 15.9 6.45 13.3 6.45 13.05C6.45 12.9 6.1 12.9 6.1 13.05C6.1 13.3 6.1 15.9 6.1 16.7C6.1 17 5.95 17.2 5.65 17.2C5.35 17.2 5.2 17 5.2 16.7C5.2 16.7 5.2 12.4 5.2 12.1C5.3 11.7 5.55 10.75 5.55 10.6C5.6 10.4 5.55 10.4 5.5 10.5L4.95 11.75C4.8 12.15 4.1 11.9 4.25 11.45C4.4 11.15 5.2 9.30001 5.4 8.80001C5.6 8.30001 6 8.20001 6.35 8.30001L7.65 8.60001C7.95 8.65001 8 8.75001 8.25 9.10001C8.45 9.45001 9.3 11.5 9.5 12.05C9.7 12.65 9.05 13 8.8 12.4L7.85 10.3C7.8 10.15 7.75 10.15 7.7 10.4C7.7 10.5 7.5 11.35 7.25 12.4C7.35 12.45 7.35 16.5 7.35 16.7Z" fill="white"/>
<path d="M19.2 11.7C19.2 11.7 18.65 10.4 18.4 9.84999C18.15 9.29999 17.8 8.89999 17.2 8.89999H16.8L16.6 8.64999L16.35 7.54999H13.45L13.2 8.64999L13 8.89999H12.5C11.85 8.89999 11.55 9.34999 11.3 9.84999C11.05 10.4 10.5 11.7 10.5 11.7C10.15 11.8 10 12.25 10 12.75C10 13.35 10 15.7 10 15.7H10.5C10.5 15.7 10.5 16.5 10.5 16.8C10.5 17.25 10.75 17.3 11.25 17.3C11.8 17.3 12.05 17.25 12.05 16.8C12.05 16.35 12.05 15.7 12.05 15.7H17.65C17.65 15.7 17.65 16.4 17.65 16.8C17.65 17.2 17.9 17.3 18.4 17.3C18.95 17.3 19.15 17.25 19.15 16.8C19.15 16.5 19.15 15.7 19.15 15.7H19.7C19.7 15.7 19.7 13.35 19.7 12.75C19.7 12.25 19.55 11.85 19.2 11.7ZM11.2 13.9C10.85 13.9 10.55 13.6 10.55 13.25C10.55 12.9 10.85 12.6 11.2 12.6C11.55 12.6 11.85 12.9 11.85 13.25C11.85 13.6 11.55 13.9 11.2 13.9ZM10.85 11.75C10.85 11.75 11.35 10.55 11.6 10.05C11.85 9.49999 12.1 9.29999 12.5 9.29999H17.25C17.65 9.29999 17.85 9.49999 18.15 10.05C18.4 10.55 18.9 11.75 18.9 11.75H18.3L18.2 11.6C17.9 11.3 17.8 11.25 17.55 11.25H16.2C15.9 11.25 15.6 11.4 15.45 11.8H10.85V11.75ZM18.3 13.9C17.95 13.9 17.65 13.6 17.65 13.25C17.65 12.9 17.95 12.6 18.3 12.6C18.65 12.6 18.95 12.9 18.95 13.25C18.95 13.6 18.65 13.9 18.3 13.9ZM14.9 8.74999L13.85 7.89999H15.85L14.9 8.74999Z" fill="white"/>
</g>
</g>
<defs>
<clipPath id="clip0_335_5687">
<rect width="24" height="24" rx="2" fill="white"/>
</clipPath>
<clipPath id="clip1_335_5687">
<rect width="24" height="24" fill="white"/>
</clipPath>
</defs>
</svg>
