<svg width="24" height="24" viewBox="0 0 24 24" fill="none" xmlns="http://www.w3.org/2000/svg">
<g clip-path="url(#clip0_335_5698)">
<path d="M24 0H0V24H24V0Z" fill="#A14097"/>
<path d="M15.5898 16.4103C16 16.4103 20.1026 15.5897 20.1026 13.3333C20.1026 12.7179 19.8975 12.1026 19.4872 11.8974C18.8718 11.4872 17.8462 11.6923 17.4359 11.8974V11.282C17.4359 10.6667 17.0257 10.2564 16.4103 10.2564H6.76925C6.15386 10.2564 5.7436 10.6667 5.7436 11.282V11.8974C5.7436 13.9487 6.76925 15.7949 8.20514 17.0256H4.10258C3.89745 17.0256 3.89745 17.0256 3.69232 17.2308C3.69232 17.4359 3.69232 17.4359 3.69232 17.641L4.51283 18.4615C4.92309 18.8718 5.53848 19.0769 6.15386 19.0769H16.8205C17.4359 19.0769 18.0513 18.8718 18.4616 18.4615L19.2821 17.641C19.2821 17.641 19.4872 17.4359 19.2821 17.2308C19.2821 17.0256 19.0769 17.0256 18.8718 17.0256H14.9744C15.1795 17.0256 15.3846 16.6154 15.5898 16.4103ZM17.4359 12.5128C17.8462 12.3077 18.6667 12.1026 19.2821 12.5128C19.4872 12.7179 19.6923 12.9231 19.6923 13.3333C19.6923 14.5641 17.8462 15.1795 16.4103 15.5897C17.0257 14.7692 17.4359 13.7436 17.4359 12.5128Z" fill="white"/>
<path d="M14.359 7.38461C14.9744 6.76923 14.9744 5.53846 14.359 4.92307C14.1538 4.71794 13.9487 4.71794 13.9487 4.92307C13.7436 5.1282 13.7436 5.33333 13.9487 5.33333C14.359 5.74358 14.359 6.5641 13.9487 6.97435C13.3333 7.58974 13.3333 8.82051 13.9487 9.43589L14.1538 9.64102H14.359C14.359 9.43589 14.359 9.23076 14.359 9.02564C13.9487 8.61538 13.9487 7.79487 14.359 7.38461Z" fill="white"/>
<path d="M12.3077 7.38461C12.9231 6.76923 12.9231 5.53846 12.3077 4.92307C12.1026 4.71794 11.8975 4.71794 11.8975 4.92307C11.6923 5.1282 11.6923 5.33333 11.8975 5.33333C12.3077 5.74358 12.3077 6.5641 11.8975 6.97435C11.2821 7.58974 11.2821 8.82051 11.8975 9.43589L12.1026 9.64102H12.3077C12.3077 9.43589 12.3077 9.23076 12.3077 9.02564C11.8975 8.61538 11.8975 7.79487 12.3077 7.38461Z" fill="white"/>
<path d="M10.2564 7.38461C10.8718 6.76923 10.8718 5.53846 10.2564 4.92307C10.0513 4.71794 9.84618 4.71794 9.84618 4.92307C9.64105 5.1282 9.64105 5.33333 9.84618 5.33333C10.2564 5.74358 10.2564 6.5641 9.84618 6.97435C9.2308 7.58974 9.2308 8.82051 9.84618 9.43589L10.0513 9.64102H10.2564C10.2564 9.43589 10.2564 9.23076 10.2564 9.02564C9.84618 8.61538 9.84618 7.79487 10.2564 7.38461Z" fill="white"/>
</g>
<defs>
<clipPath id="clip0_335_5698">
<rect width="24" height="24" rx="2" fill="white"/>
</clipPath>
</defs>
</svg>
