<svg width="24" height="24" viewBox="0 0 24 24" fill="none" xmlns="http://www.w3.org/2000/svg">
<g clip-path="url(#clip0_335_5689)">
<g clip-path="url(#clip1_335_5689)">
<path d="M24 0H0V24H24V0Z" fill="black"/>
<path d="M7.20002 16.35C7.20002 16.35 7.20002 18.65 7.20002 18.75C7.20002 18.9 7.00002 18.9 7.00002 18.9C7.00002 18.9 4.95002 18.9 4.85002 18.9C4.75002 18.9 4.70002 18.6 4.70002 18.6V16.35H3.65002C3.65002 16.35 3.65002 13.85 3.65002 11.95C3.65002 10.95 4.95002 10.15 4.90002 10.2C5.10002 9.74999 6.30002 6.14999 6.45002 5.74999C6.65002 5.34999 7.05002 5.04999 7.35002 5.04999H16.65C17 5.04999 17.4 5.39999 17.55 5.74999C17.7 6.14999 18.85 9.74999 19.1 10.2C19.05 10.1 20.35 10.95 20.35 11.95C20.35 13.85 20.35 16.35 20.35 16.35H19.3V18.6C19.3 18.6 19.25 18.9 19.15 18.9C19.05 18.9 17 18.9 17 18.9C17 18.9 16.8 18.9 16.8 18.75C16.8 18.6 16.8 16.35 16.8 16.35H7.20002ZM6.00002 13.6C6.70002 13.6 7.30002 13 7.30002 12.3C7.30002 11.6 6.70002 11 6.00002 11C5.30002 11 4.70002 11.6 4.70002 12.3C4.70002 13 5.30002 13.6 6.00002 13.6ZM19.3 12.3C19.3 11.6 18.7 11 18 11C17.3 11 16.7 11.6 16.7 12.3C16.7 13 17.3 13.6 18 13.6C18.7 13.6 19.3 13.05 19.3 12.3ZM17.9 9.99999L16.55 6.19999H7.50002L6.15002 9.99999H17.9Z" fill="white"/>
</g>
</g>
<defs>
<clipPath id="clip0_335_5689">
<rect width="24" height="24" rx="2" fill="white"/>
</clipPath>
<clipPath id="clip1_335_5689">
<rect width="24" height="24" fill="white"/>
</clipPath>
</defs>
</svg>
