<svg width="24" height="24" viewBox="0 0 24 24" fill="none" xmlns="http://www.w3.org/2000/svg">
<path d="M13.0196 10.1219H11.7806V21.3413H13.0196V10.1219Z" fill="black"/>
<path d="M21.0728 6.3363C22.1052 6.3363 23 7.2311 23 8.26355V12.944C23 13.2882 22.7247 13.6323 22.3805 13.6323C22.0364 13.6323 21.6922 13.357 21.6922 12.944V8.74537H21.3481V20.4465C21.3481 20.9283 20.9351 21.3413 20.4533 21.3413C19.9715 21.3413 19.5585 20.9283 19.5585 20.4465V13.6323H19.2143V20.4465C19.2143 20.9283 18.8014 21.3413 18.3196 21.3413C17.8377 21.3413 17.4248 20.9283 17.4248 20.4465V8.74537H17.0806V12.944C17.0806 13.2882 16.8053 13.6323 16.3923 13.6323C16.0481 13.6323 15.7728 13.357 15.7728 12.944V8.26355C15.7728 7.2311 16.6676 6.3363 17.7001 6.3363H21.0728Z" fill="black"/>
<path d="M5.31059 5.78568C4.48463 5.78568 3.79633 5.09737 3.79633 4.27141C3.79633 3.44544 4.48463 2.75714 5.31059 2.75714C6.13656 2.75714 6.82486 3.44544 6.82486 4.27141C6.82486 5.1662 6.13656 5.78568 5.31059 5.78568Z" fill="black"/>
<path d="M19.4208 5.78568C18.5949 5.78568 17.9066 5.09737 17.9066 4.27141C17.9066 3.44544 18.5949 2.75714 19.4208 2.75714C20.2468 2.75714 20.9351 3.44544 20.9351 4.27141C20.9351 5.1662 20.2468 5.78568 19.4208 5.78568Z" fill="black"/>
<path d="M4.14049 6.12983C4.14049 6.12983 2.76388 6.061 2.28207 7.78176L1.04312 11.9804C0.905459 12.3934 1.11195 12.6687 1.4561 12.8064C1.80025 12.8752 2.14441 12.7375 2.21324 12.3934L3.38335 8.3324H3.7275L1.66259 15.4219H3.58984V20.5842C3.58984 20.9972 3.93399 21.3413 4.34698 21.3413C4.69113 21.3413 5.10411 20.9972 5.10411 20.5842V15.4219H5.37943V20.5842C5.37943 20.9972 5.79241 21.3413 6.13657 21.3413C6.54955 21.3413 6.8937 20.9972 6.8937 20.5842V15.3531H8.82095L6.75604 8.26357H7.10019L8.27031 12.3246C8.33914 12.6687 8.68329 12.8064 9.02744 12.7375C9.37159 12.6687 9.57808 12.3246 9.44042 11.9116L8.20148 7.71293C7.85732 6.12983 6.48072 6.12983 6.48072 6.12983H4.14049Z" fill="black"/>
<path d="M11.9871 5.02851V5.51033H12.1936C12.6066 5.51033 13.0884 5.51033 13.5014 5.51033C13.7079 5.51033 13.8455 5.57916 13.9144 5.71682C14.2585 6.26746 14.5338 6.8181 14.878 7.36875C14.9468 7.43758 14.9468 7.50641 14.9468 7.57524C14.9468 7.7129 14.878 7.85056 14.7403 7.91939C14.6027 7.98822 14.465 7.98822 14.3273 7.85056C14.2585 7.78173 14.2585 7.78173 14.1897 7.7129C13.9832 7.29992 13.7079 6.88693 13.5014 6.54278C13.4326 6.47395 13.3637 6.40512 13.2949 6.40512C12.6754 6.40512 12.1248 6.40512 11.5053 6.40512C11.0235 6.40512 10.817 6.19863 10.817 5.71682C10.7482 5.16618 10.7482 4.5467 10.7482 3.99606C10.7482 3.65191 10.9547 3.37659 11.2988 3.37659C11.643 3.37659 11.9183 3.58308 11.9183 3.92723C11.9183 4.06489 11.9183 4.27138 11.9871 4.40904C12.3313 4.40904 12.6754 4.40904 13.0196 4.40904C13.0884 4.40904 13.1572 4.40904 13.2261 4.40904C13.3637 4.40904 13.4326 4.5467 13.4326 4.68436C13.4326 4.82202 13.2949 4.95969 13.1572 4.95969C12.9507 4.95969 12.6754 4.95969 12.4001 4.95969H11.9871V5.02851Z" fill="black"/>
<path d="M13.4326 7.09347C13.5703 7.29996 13.6391 7.43762 13.7079 7.57528C13.7079 7.64411 13.7079 7.64411 13.7079 7.71294C13.2261 8.67656 12.1248 9.22721 11.0924 8.95189C9.99108 8.67656 9.30278 7.71294 9.37161 6.61165C9.44044 5.85452 9.78459 5.30388 10.3352 4.82207C10.3352 4.82207 10.4041 4.82207 10.4041 4.75323C10.4041 4.95973 10.4041 5.09739 10.4041 5.23505C10.4041 5.30388 10.3352 5.37271 10.3352 5.37271C9.37161 6.33633 9.71576 7.98826 11.0235 8.40124C11.9872 8.74539 13.0196 8.19475 13.3638 7.23113C13.4326 7.23113 13.4326 7.1623 13.4326 7.09347Z" fill="black"/>
<path d="M11.2988 2C11.6429 2 11.9183 2.27532 11.9183 2.61947C11.9183 2.96362 11.6429 3.23895 11.2988 3.23895C10.9546 3.23895 10.6793 2.96362 10.6793 2.61947C10.6793 2.34415 10.9546 2.06883 11.2988 2Z" fill="black"/>
</svg>
