<svg width="24" height="24" viewBox="0 0 24 24" fill="none" xmlns="http://www.w3.org/2000/svg">
<g clip-path="url(#clip0_335_5692)">
<g clip-path="url(#clip1_335_5692)">
<path d="M24 0H0V24H24V0Z" fill="#3EAE49"/>
<path d="M19.05 11.8C18.45 11.2 17.7 10.9 16.9 10.9C16.55 10.9 16.25 10.95 15.95 11.05L15.45 10.05L15 9.10001L15.4 8.10001H15.45H16.05C16.25 8.10001 16.25 7.95001 16.25 7.75001C16.25 7.55001 16.25 7.40001 16.05 7.40001H15.45H14.9H13.9C13.8 7.40001 13.75 7.45001 13.65 7.50001C13.6 7.55001 13.55 7.65001 13.55 7.75001C13.55 7.85001 13.6 7.95001 13.65 8.00001C13.7 8.05001 13.8 8.10001 13.9 8.10001H14.65L14.4 8.75001H13.65H9.14998H9.04998L9.14998 8.50001L9.34998 7.95001C9.34998 7.90001 9.49998 7.65001 9.79998 7.65001H10.6C10.8 7.65001 10.8 7.50001 10.8 7.30001C10.8 7.10001 10.8 6.95001 10.6 6.95001H9.79998C9.54998 6.95001 9.34998 7.05001 9.19998 7.15001C8.94998 7.30001 8.79998 7.55001 8.74998 7.70001C8.74998 7.70001 8.49998 8.50001 8.19998 9.50001C8.04998 9.95001 7.89998 10.45 7.74998 10.95C7.54998 10.9 7.34998 10.9 7.14998 10.9C5.44998 10.9 4.09998 12.3 4.09998 13.95C4.09998 14.75 4.39998 15.55 4.99998 16.1C5.59998 16.7 6.34998 17 7.14998 17C7.94998 17 8.64998 16.7 9.24998 16.2C9.29998 16.15 9.29998 16.15 9.34998 16.1C9.94998 15.5 10.25 14.75 10.25 13.95C10.25 13.15 9.94998 12.35 9.34998 11.8C9.29998 11.75 9.29998 11.75 9.24998 11.7C8.99998 11.45 8.69998 11.3 8.39998 11.15L8.69998 10.25L9.24998 10.8L12.55 14.1C12.55 14.1 12.55 14.1 12.6 14.1C12.65 14.1 12.65 14.15 12.7 14.15H12.75C12.8 14.15 12.8 14.15 12.85 14.15H13.8H13.95C14 14.9 14.3 15.55 14.85 16.05C14.9 16.1 15 16.15 15.05 16.25C15.2 16.4 15.4 16.5 15.6 16.6C16.05 16.85 16.5 16.95 17.05 16.95C17.85 16.95 18.65 16.65 19.2 16.05C19.8 15.45 20.1 14.7 20.1 13.9C19.95 13.15 19.65 12.35 19.05 11.8ZM8.79998 12.25C8.94998 12.4 9.09998 12.55 9.19998 12.75C9.39998 13.1 9.54998 13.55 9.54998 13.95C9.54998 14.4 9.44998 14.8 9.19998 15.15C8.79998 15.85 7.99998 16.35 7.09998 16.35C6.44998 16.35 5.84998 16.1 5.39998 15.65C4.94998 15.2 4.69998 14.6 4.69998 13.95C4.69998 13.3 4.94998 12.7 5.39998 12.25C5.84998 11.8 6.44998 11.55 7.09998 11.55C7.24998 11.55 7.34998 11.55 7.49998 11.6C7.09998 12.85 6.74998 13.95 6.74998 13.95C6.69998 14.15 6.79998 14.3 6.94998 14.35C7.14998 14.4 7.29998 14.3 7.34998 14.15L8.09998 11.8C8.39998 11.9 8.59998 12.05 8.79998 12.25ZM15.65 11.9L16.45 13.55H15.5H14.95H14.5C14.55 13.2 14.7 12.85 14.9 12.6C15 12.5 15.05 12.35 15.15 12.25C15.25 12.15 15.35 12.1 15.45 12C15.5 12 15.55 11.95 15.65 11.9ZM12.6 13.3L9.19998 9.90001L8.84998 9.55001L8.89998 9.45001H9.19998H13.7H14.15L13.7 10.6L12.6 13.3ZM13.7 13.55H13.25L13.7 12.4L14.7 9.95001L14.95 10.45L15.35 11.3C15.2 11.4 15.05 11.5 14.95 11.6C14.4 12.1 14 12.75 13.9 13.55H13.7ZM16.9 16.35C16.4 16.35 15.9 16.2 15.45 15.9C15.35 15.85 15.25 15.75 15.15 15.65C15.05 15.55 14.95 15.45 14.9 15.35C14.65 15 14.5 14.65 14.5 14.2H14.9H15.45H16.95C17.05 14.2 17.15 14.15 17.25 14.05C17.3 13.95 17.3 13.85 17.25 13.75L16.25 11.65C16.45 11.6 16.7 11.55 16.9 11.55C17.55 11.55 18.15 11.8 18.6 12.25C19.05 12.7 19.3 13.3 19.3 13.95C19.3 15.3 18.2 16.35 16.9 16.35Z" fill="white"/>
</g>
</g>
<defs>
<clipPath id="clip0_335_5692">
<rect width="24" height="24" rx="2" fill="white"/>
</clipPath>
<clipPath id="clip1_335_5692">
<rect width="24" height="24" fill="white"/>
</clipPath>
</defs>
</svg>
