<svg width="24" height="24" viewBox="0 0 24 24" fill="none" xmlns="http://www.w3.org/2000/svg">
<path d="M11.5647 10.5296V11.8905H12.079C13.3333 11.8905 14.5499 11.8905 15.7791 11.8905C16.0197 11.8758 16.2594 11.9306 16.4696 12.0485C16.6798 12.1664 16.8516 12.3423 16.9644 12.5553C17.8863 14.1608 18.8459 15.76 19.7615 17.3718C19.8746 17.5646 19.9492 17.7776 19.981 17.9989C20.0131 18.2038 19.9771 18.4135 19.8786 18.5959C19.78 18.7783 19.6243 18.9233 19.4354 19.0086C19.2496 19.0997 19.0402 19.1311 18.8359 19.0986C18.6315 19.066 18.4423 18.9711 18.294 18.8268C18.1633 18.6881 18.0497 18.5345 17.9553 18.369C17.2843 17.2213 16.607 16.0736 15.9547 14.9197C15.9066 14.8068 15.823 14.7127 15.7167 14.6516C15.6103 14.5905 15.4869 14.5657 15.3652 14.581C13.6656 14.581 11.9598 14.581 10.254 14.581C8.93069 14.581 8.29727 14.0166 8.2032 12.6996C8.08404 11.0376 7.99624 9.37568 7.91471 7.68238C7.89414 7.45855 7.91867 7.23287 7.98685 7.01869C8.05503 6.8045 8.16548 6.60617 8.31167 6.43543C8.45785 6.26469 8.6368 6.125 8.83792 6.02464C9.03904 5.92427 9.25825 5.86527 9.48258 5.85111C9.71374 5.83139 9.94649 5.85904 10.1666 5.93235C10.3867 6.00566 10.5896 6.1231 10.7627 6.27749C10.9359 6.43187 11.0758 6.61996 11.1738 6.83025C11.2718 7.04054 11.3258 7.26861 11.3327 7.50051C11.3766 7.9646 11.4016 8.42241 11.4455 8.94294H14.3179C14.5089 8.93672 14.7 8.94932 14.8886 8.98057C15.0733 9.01668 15.2387 9.11857 15.354 9.26735C15.4694 9.41612 15.5268 9.60168 15.5157 9.78959C15.5047 9.98266 15.4209 10.1644 15.2813 10.2982C15.1416 10.432 14.9565 10.508 14.7631 10.5108C14.0733 10.5108 13.3834 10.5108 12.6936 10.5108H11.5647" fill="black"/>
<path d="M15.754 16.5188C16.0551 17.0331 16.3247 17.4658 16.5568 17.9174C16.5843 17.9796 16.5985 18.0469 16.5985 18.1149C16.5985 18.183 16.5843 18.2502 16.5568 18.3125C15.8848 19.6737 14.7651 20.7625 13.3856 21.3961C12.006 22.0297 10.4506 22.1697 8.98008 21.7925C7.50959 21.4153 6.21353 20.544 5.30931 19.3245C4.40508 18.1051 3.94769 16.6119 4.01386 15.0952C4.05177 14.0831 4.3283 13.0942 4.82092 12.2093C5.31353 11.3243 6.00829 10.5683 6.84856 10.0028C6.91128 9.95888 6.99281 9.92125 7.11196 9.85226C7.14332 10.3477 7.18722 10.7993 7.18095 11.2445C7.1551 11.4106 7.07054 11.5619 6.94263 11.671C6.37749 12.2296 5.94688 12.9094 5.6834 13.6591C5.41993 14.4087 5.33051 15.2085 5.42191 15.9978C5.51331 16.7871 5.78314 17.5453 6.21095 18.2149C6.63877 18.8845 7.21336 19.448 7.8912 19.8626C8.56903 20.2773 9.33234 20.5322 10.1233 20.6081C10.9143 20.6841 11.7121 20.5791 12.4565 20.301C13.2008 20.0229 13.8721 19.5791 14.4196 19.0031C14.967 18.4271 15.3761 17.7342 15.6161 16.9766L15.7791 16.5188" fill="black"/>
<path d="M9.48261 2.00041C9.71337 1.99541 9.9428 2.03644 10.1575 2.12111C10.3722 2.20577 10.5679 2.33238 10.7332 2.49353C10.8984 2.65468 11.0299 2.84714 11.1199 3.05966C11.2099 3.27219 11.2567 3.50053 11.2574 3.73133C11.2636 4.08061 11.1659 4.42385 10.9766 4.71747C10.7874 5.01108 10.5151 5.24182 10.1944 5.38038C9.87373 5.51894 9.51911 5.55906 9.17557 5.49565C8.83204 5.43225 8.51511 5.26817 8.26502 5.02427C8.01493 4.78037 7.84297 4.46764 7.77098 4.1258C7.69899 3.78396 7.73022 3.42845 7.86071 3.1044C7.99119 2.78035 8.21504 2.50239 8.50382 2.30582C8.7926 2.10925 9.13329 2.00295 9.48261 2.00041Z" fill="black"/>
</svg>
