<svg width="24" height="24" viewBox="0 0 24 24" fill="none" xmlns="http://www.w3.org/2000/svg">
<g clip-path="url(#clip0_335_5876)">
<g clip-path="url(#clip1_335_5876)">
<path d="M24.3035 9.1019H23.7391C23.4334 9.1019 23.1747 9.36058 23.1747 9.66629V11.3359H22.3516L22.0929 6.09183C22.3281 5.92721 22.4457 5.71557 22.4457 5.4804V2.8701C22.4457 2 21.505 2 21.0112 2H6.243C5.74916 2 5.3729 2.39978 5.3729 2.8701V5.4804C5.3729 5.80963 5.56103 6.11534 5.84323 6.25644L5.81971 6.23292V11.3124H4.97312V9.64278C4.97312 9.33707 4.71445 9.07839 4.40873 9.07839H3.84435C3.53863 9.07839 3.27996 9.33707 3.27996 9.64278V11.43C3.27996 11.7357 3.53863 11.9944 3.84435 11.9944H4.12654H4.40873H5.81971V12.0179V17.6853V17.9205C5.81971 18.4143 6.00784 19.0728 6.31355 19.6137L-1 22.4121L2.17469 22.3651L6.80739 20.6013V22.0123C6.80739 22.5532 7.2542 23 7.79507 23H8.19485C8.73572 23 9.18253 22.5532 9.18253 22.0123V20.7189H18.9653V22.0123C18.9653 22.5532 19.4121 23 19.953 23H20.3527C20.8936 23 21.3404 22.5532 21.3404 22.0123V20.2721C21.9518 19.6607 22.3987 18.5319 22.3987 17.8264V17.5677V11.9944H23.7626H24.0448H24.327C24.6327 11.9944 24.8914 11.7357 24.8914 11.43V9.64278C24.8679 9.33707 24.6092 9.1019 24.3035 9.1019ZM7.58343 7.15006C7.58343 6.65621 8.00672 6.25644 8.52408 6.25644H19.4591C19.9765 6.25644 20.2587 6.56215 20.3998 7.15006L20.9877 10.4658C21.0347 10.9832 20.7525 11.3595 20.2352 11.3595H7.95969C7.44233 11.3595 7.01904 10.9597 7.01904 10.4658L7.58343 7.15006ZM9.48824 18.2262H7.5364C7.27772 18.2262 7.06607 18.0146 7.06607 17.7559V16.3214C7.06607 16.0627 7.27772 15.8511 7.5364 15.8511H8.45353C8.90034 15.8511 9.18253 16.3684 9.18253 16.3684L9.95857 17.7559C9.98208 18.0146 9.77044 18.2262 9.48824 18.2262ZM17.2486 17.7794C17.1075 18.0616 17.037 18.2262 16.7783 18.2262H11.4401C11.1814 18.2262 11.1579 18.0616 10.9933 17.7794L10.1467 16.2979C10.1467 16.0392 10.3583 15.8511 10.5935 15.8511H17.6484C17.9071 15.8511 18.0952 16.0627 18.0952 16.2979L17.2486 17.7794ZM21.1523 17.5677C21.1523 17.8264 20.9407 18.0381 20.682 18.0381H18.7301C18.4714 18.0381 18.2598 17.8264 18.2598 17.5677L19.0358 16.1803C19.0358 16.1803 19.318 15.6629 19.7648 15.6629H20.682C20.9407 15.6629 21.1523 15.8746 21.1523 16.1333V17.5677Z" fill="#3D3A4D"/>
</g>
</g>
<defs>
<clipPath id="clip0_335_5876">
<rect width="24" height="24" rx="2" fill="white"/>
</clipPath>
<clipPath id="clip1_335_5876">
<rect width="25.8679" height="21" fill="white" transform="translate(-1 2)"/>
</clipPath>
</defs>
</svg>
