<svg width="24" height="24" viewBox="0 0 24 24" fill="none" xmlns="http://www.w3.org/2000/svg">
<path d="M20.0866 4.25031C19.845 3.03576 19.0652 2.5458 17.9059 2.06274C15.9935 1.40769 13.992 1.0493 11.9711 1C9.95025 1.0493 7.94881 1.40769 6.03639 2.06274C4.87014 2.5458 4.09724 3.03576 3.85571 4.25031L3 10.9787V20.2466H4.50439V21.7026C4.50439 21.873 4.53795 22.0417 4.60315 22.1991C4.66835 22.3565 4.76391 22.4995 4.88438 22.62C5.00485 22.7405 5.14787 22.836 5.30528 22.9012C5.46268 22.9664 5.63138 23 5.80176 23C5.97213 23 6.14083 22.9664 6.29824 22.9012C6.45564 22.836 6.59866 22.7405 6.71913 22.62C6.8396 22.4995 6.93517 22.3565 7.00037 22.1991C7.06557 22.0417 7.09912 21.873 7.09912 21.7026V20.2466H16.8639V21.7026C16.8639 22.0467 17.0006 22.3767 17.2439 22.62C17.4872 22.8633 17.8171 23 18.1612 23C18.5053 23 18.8353 22.8633 19.0786 22.62C19.3219 22.3767 19.4586 22.0467 19.4586 21.7026V20.2466H20.9423V10.9787L20.0866 4.25031ZM8.27227 2.69762H15.67C15.8146 2.69762 15.9533 2.75505 16.0555 2.85729C16.1577 2.95953 16.2152 3.0982 16.2152 3.24279C16.2152 3.38737 16.1577 3.52604 16.0555 3.62828C15.9533 3.73052 15.8146 3.78796 15.67 3.78796H8.27227C8.12768 3.78796 7.98902 3.73052 7.88678 3.62828C7.78454 3.52604 7.7271 3.38737 7.7271 3.24279C7.7271 3.0982 7.78454 2.95953 7.88678 2.85729C7.98902 2.75505 8.12768 2.69762 8.27227 2.69762ZM5.76035 17.3413C5.51302 17.3413 5.27125 17.2678 5.0657 17.1303C4.86015 16.9927 4.70006 16.7972 4.60573 16.5686C4.51139 16.34 4.48706 16.0885 4.53582 15.846C4.58458 15.6035 4.70423 15.381 4.8796 15.2066C5.05498 15.0322 5.27818 14.9137 5.52093 14.8663C5.76368 14.8189 6.01503 14.8446 6.24315 14.9402C6.47126 15.0358 6.66585 15.197 6.80227 15.4033C6.93868 15.6096 7.01078 15.8518 7.00941 16.0991C7.00759 16.4292 6.87519 16.7451 6.64114 16.9779C6.40709 17.2106 6.09043 17.3413 5.76035 17.3413ZM11.8607 11.6895H5.28419C4.63551 11.6895 4.50439 11.2202 4.5941 10.7509L5.28419 5.87892C5.3808 5.27854 5.58093 4.8921 6.34693 4.8921H17.6368C18.4028 4.8921 18.6029 5.27854 18.6995 5.87892L19.3896 10.7509C19.4517 11.2202 19.3206 11.6895 18.6995 11.6895H11.8607ZM18.1819 17.3413C17.9343 17.3426 17.6919 17.2704 17.4854 17.1337C17.2789 16.9969 17.1178 16.8019 17.0224 16.5734C16.927 16.3449 16.9017 16.0932 16.9497 15.8502C16.9976 15.6073 17.1167 15.3841 17.2918 15.209C17.4669 15.0339 17.6901 14.9148 17.9331 14.8668C18.176 14.8189 18.4277 14.8442 18.6562 14.9396C18.8847 15.035 19.0797 15.1961 19.2165 15.4026C19.3532 15.6091 19.4255 15.8515 19.4241 16.0991C19.4223 16.428 19.2908 16.7429 19.0583 16.9755C18.8257 17.208 18.5108 17.3395 18.1819 17.3413Z" fill="#3D3A4D"/>
</svg>
