<svg width="24" height="24" viewBox="0 0 24 24" fill="none" xmlns="http://www.w3.org/2000/svg">
<path d="M18.1483 18.7748C18.6644 18.6165 20.9834 18.5477 20.5499 11.8039L19.9443 3.59431C19.866 3.03138 19.5725 2.52076 19.1254 2.16985C18.4373 1.4817 15.2168 1.01376 12.6431 1H12.3403C9.76666 1 6.58054 1.50235 5.85799 2.16985C5.41092 2.52076 5.11737 3.03138 5.0391 3.59431L4.43353 11.8039C4 18.5477 6.31905 18.6165 6.83516 18.7748L4 23H5.85111L6.19518 22.4632H18.7882L19.1323 23H20.9834L18.1483 18.7748ZM19.1185 15.2515C19.1185 15.4981 19.0453 15.7392 18.9081 15.9442C18.771 16.1492 18.576 16.3088 18.3481 16.4029C18.1201 16.4969 17.8693 16.5212 17.6275 16.4726C17.3857 16.4239 17.1638 16.3046 16.9898 16.1298C16.8159 15.9549 16.6978 15.7323 16.6506 15.4902C16.6033 15.2482 16.6289 14.9975 16.7243 14.7701C16.8196 14.5426 16.9803 14.3485 17.186 14.2125C17.3918 14.0765 17.6333 14.0046 17.8799 14.0059C18.209 14.0078 18.5241 14.1398 18.7562 14.3732C18.9883 14.6066 19.1186 14.9223 19.1185 15.2515ZM12.4917 18.7748H16.3591L16.9027 19.5593H8.0807L8.61057 18.7473L12.4917 18.7748ZM7.1173 4.1173C7.83985 3.60807 10.3722 3.21583 12.3885 3.20895H12.6087C14.625 3.20895 17.1573 3.60807 17.8799 4.1173C18.0644 4.24372 18.2179 4.41034 18.3287 4.60462C18.4396 4.79891 18.5049 5.01579 18.5199 5.23897L18.4235 9.36784C18.2515 12.2512 17.8524 12.4645 17.0885 12.5677C15.5672 12.7732 14.0338 12.8767 12.4986 12.8774C10.9634 12.8767 9.43002 12.7732 7.90866 12.5677C7.14482 12.4645 6.7457 12.2512 6.57366 9.36784L6.47732 5.23897C6.49227 5.01579 6.55762 4.79891 6.66847 4.60462C6.77932 4.41034 6.93277 4.24372 7.1173 4.1173ZM5.86487 15.2515C5.86351 15.0049 5.9354 14.7634 6.07143 14.5576C6.20746 14.3519 6.40151 14.1912 6.62898 14.0959C6.85645 14.0005 7.1071 13.9749 7.34916 14.0222C7.59123 14.0694 7.8138 14.1875 7.98869 14.3614C8.16357 14.5353 8.28288 14.7573 8.3315 14.9991C8.38012 15.2409 8.35586 15.4917 8.26179 15.7196C8.16772 15.9476 8.00809 16.1426 7.80311 16.2797C7.59814 16.4169 7.35705 16.4901 7.11042 16.4901C6.78127 16.4902 6.4655 16.3599 6.23211 16.1278C5.99872 15.8957 5.86669 15.5806 5.86487 15.2515ZM12.6913 21.4448H6.88333L7.57147 20.447H17.4464L18.1001 21.4448H12.6913Z" fill="#3D3A4D"/>
</svg>
