<svg width="24" height="24" viewBox="0 0 24 24" fill="none" xmlns="http://www.w3.org/2000/svg">
<rect width="24" height="24" rx="12" fill="#3D3A4D"/>
<path d="M18.3323 5.53615C18.1438 4.58846 17.5354 4.20615 16.6308 3.82923C15.1385 3.31812 13.5769 3.03847 12 3C10.4231 3.03847 8.86146 3.31812 7.36923 3.82923C6.45923 4.20615 5.85615 4.58846 5.66769 5.53615L5 10.7862V18.0177H6.17385V19.1538C6.17385 19.2868 6.20003 19.4184 6.2509 19.5412C6.30178 19.6641 6.37634 19.7757 6.47034 19.8697C6.56435 19.9637 6.67594 20.0382 6.79876 20.0891C6.92158 20.14 7.05322 20.1662 7.18615 20.1662C7.31909 20.1662 7.45073 20.14 7.57355 20.0891C7.69637 20.0382 7.80796 19.9637 7.90196 19.8697C7.99596 19.7757 8.07053 19.6641 8.1214 19.5412C8.17228 19.4184 8.19846 19.2868 8.19846 19.1538V18.0177H15.8177V19.1538C15.8177 19.4223 15.9243 19.6798 16.1142 19.8697C16.304 20.0595 16.5615 20.1662 16.83 20.1662C17.0985 20.1662 17.356 20.0595 17.5458 19.8697C17.7357 19.6798 17.8423 19.4223 17.8423 19.1538V18.0177H19V10.7862L18.3323 5.53615ZM9.11385 4.32462H14.8862C14.999 4.32462 15.1072 4.36943 15.1869 4.44921C15.2667 4.52898 15.3115 4.63718 15.3115 4.75C15.3115 4.86282 15.2667 4.97102 15.1869 5.05079C15.1072 5.13057 14.999 5.17538 14.8862 5.17538H9.11385C9.00103 5.17538 8.89283 5.13057 8.81305 5.05079C8.73328 4.97102 8.68846 4.86282 8.68846 4.75C8.68846 4.63718 8.73328 4.52898 8.81305 4.44921C8.89283 4.36943 9.00103 4.32462 9.11385 4.32462ZM7.15385 15.7508C6.96086 15.7508 6.77221 15.6935 6.61182 15.5861C6.45143 15.4788 6.32652 15.3263 6.25292 15.1479C6.17931 14.9695 6.16033 14.7732 6.19837 14.584C6.23641 14.3948 6.32977 14.2212 6.46662 14.0851C6.60346 13.949 6.77762 13.8566 6.96703 13.8196C7.15644 13.7826 7.35257 13.8027 7.53056 13.8773C7.70855 13.9519 7.86039 14.0776 7.96683 14.2386C8.07327 14.3996 8.12953 14.5886 8.12846 14.7815C8.12704 15.0391 8.02373 15.2856 7.84111 15.4672C7.65848 15.6488 7.4114 15.7508 7.15385 15.7508ZM11.9138 11.3408H6.78231C6.27615 11.3408 6.17385 10.9746 6.24385 10.6085L6.78231 6.80692C6.85769 6.33846 7.01385 6.03692 7.61154 6.03692H16.4208C17.0185 6.03692 17.1746 6.33846 17.25 6.80692L17.7885 10.6085C17.8369 10.9746 17.7346 11.3408 17.25 11.3408H11.9138ZM16.8462 15.7508C16.6529 15.7518 16.4638 15.6954 16.3027 15.5888C16.1416 15.4821 16.0158 15.3299 15.9414 15.1516C15.867 14.9733 15.8472 14.7769 15.8846 14.5873C15.9221 14.3978 16.015 14.2236 16.1516 14.087C16.2883 13.9504 16.4624 13.8575 16.652 13.82C16.8415 13.7826 17.0379 13.8023 17.2162 13.8768C17.3945 13.9512 17.5467 14.077 17.6534 14.2381C17.7601 14.3992 17.8164 14.5883 17.8154 14.7815C17.814 15.0382 17.7114 15.2839 17.5299 15.4653C17.3485 15.6468 17.1028 15.7494 16.8462 15.7508Z" fill="white"/>
</svg>
