<svg width="24" height="24" viewBox="0 0 24 24" fill="none" xmlns="http://www.w3.org/2000/svg">
<path d="M21.7433 11.6122C21.3504 11.2176 20.8831 10.9049 20.3685 10.6921C19.8539 10.4794 19.3022 10.3709 18.7454 10.3728C18.2988 10.3743 17.8552 10.4444 17.4299 10.5806L16.7721 9.19582L16.1421 7.91494L16.6891 6.56482H17.5891C17.8453 6.56482 17.8453 6.35711 17.8453 6.10786C17.8453 5.85861 17.8453 5.64397 17.5891 5.64397H14.6396C14.5805 5.64352 14.5218 5.65493 14.4671 5.67752C14.4124 5.70011 14.3628 5.73344 14.3212 5.77552C14.2703 5.81775 14.2294 5.87067 14.2013 5.9305C14.1732 5.99033 14.1587 6.05561 14.1587 6.12171C14.1587 6.1878 14.1732 6.25308 14.2013 6.31291C14.2294 6.37275 14.2703 6.42566 14.3212 6.46789C14.4079 6.54789 14.5216 6.59236 14.6396 6.59252H15.692L15.3389 7.47875H7.98599L8.10369 7.10487L8.34602 6.34326C8.39607 6.22106 8.48002 6.11571 8.58797 6.03965C8.69593 5.96359 8.82338 5.91999 8.95531 5.914H10.0562C10.3123 5.914 10.3123 5.71321 10.3123 5.45703C10.3123 5.20086 10.3123 5.00007 10.0562 5.00007H8.95531C8.65203 4.99713 8.35502 5.08648 8.10369 5.25625C7.82969 5.43819 7.61726 5.6989 7.49441 6.004C7.49441 6.004 7.1413 7.06333 6.70511 8.44806L6.07506 10.4213C5.79929 10.3656 5.51863 10.3378 5.23729 10.3382C4.68084 10.3382 4.12984 10.4478 3.61575 10.6608C3.10166 10.8737 2.63454 11.1858 2.24107 11.5793C1.8476 11.9728 1.53549 12.4399 1.32254 12.954C1.1096 13.4681 1 14.0191 1 14.5755C1 15.132 1.1096 15.683 1.32254 16.1971C1.53549 16.7112 1.8476 17.1783 2.24107 17.5717C2.63454 17.9652 3.10166 18.2773 3.61575 18.4903C4.12984 18.7032 4.68084 18.8128 5.23729 18.8128C6.30274 18.8173 7.32999 18.4163 8.11062 17.6912L8.23524 17.5735C9.02926 16.7778 9.47519 15.6996 9.47519 14.5755C9.47519 13.4514 9.02926 12.3733 8.23524 11.5776L8.11062 11.4599C7.76956 11.1443 7.37893 10.887 6.95436 10.6983L7.34209 9.45892L8.11062 10.2274L12.6802 14.8248C12.6802 14.8248 12.6802 14.8248 12.7218 14.8248C12.7544 14.8542 12.7919 14.8776 12.8326 14.894H12.8949C12.9315 14.9006 12.969 14.9006 13.0057 14.894H14.5358C14.6135 15.8962 15.0483 16.8372 15.7613 17.5458C15.8445 17.6359 15.9348 17.7193 16.0313 17.795C16.265 17.9908 16.5178 18.1624 16.786 18.3074C17.3959 18.6226 18.0727 18.7865 18.7592 18.7851C19.5978 18.7858 20.4177 18.5377 21.1152 18.0721C21.8126 17.6066 22.3563 16.9445 22.6773 16.1698C22.9983 15.3951 23.0822 14.5426 22.9184 13.7202C22.7546 12.8978 22.3505 12.1425 21.7572 11.5499M7.59826 12.1938C7.79964 12.4019 7.97409 12.6345 8.11754 12.8861C8.41724 13.3936 8.57507 13.9723 8.5745 14.5617C8.57623 15.149 8.41827 15.7258 8.11754 16.2303C7.82479 16.7345 7.40453 17.1529 6.89896 17.4433C6.39339 17.7338 5.8203 17.8861 5.23723 17.885C4.65417 17.8839 4.08165 17.7295 3.57716 17.4371C3.07268 17.1448 2.65398 16.7249 2.36312 16.2195C2.07225 15.7142 1.91945 15.1412 1.92007 14.5582C1.92068 13.9751 2.07468 13.4025 2.36661 12.8977C2.65853 12.393 3.07811 11.974 3.58321 11.6827C4.08831 11.3914 4.66115 11.2382 5.24421 11.2383C5.43227 11.2366 5.62005 11.2529 5.80503 11.2868L4.78725 14.5132C4.76907 14.5705 4.76234 14.6308 4.76746 14.6907C4.77258 14.7505 4.78945 14.8088 4.81709 14.8622C4.84474 14.9156 4.88262 14.963 4.92859 15.0017C4.97455 15.0404 5.02769 15.0697 5.08497 15.0879C5.14225 15.1061 5.20255 15.1128 5.26243 15.1077C5.32231 15.1025 5.3806 15.0857 5.43396 15.058C5.48732 15.0304 5.53472 14.9925 5.57344 14.9465C5.61216 14.9006 5.64145 14.8474 5.65964 14.7902L6.68434 11.5637C7.02186 11.7274 7.33052 11.9449 7.59826 12.2076M17.0075 11.7368L18.0876 13.9939H15.4497C15.5311 13.5157 15.718 13.0616 15.9967 12.6646C16.1094 12.5029 16.2344 12.3501 16.3706 12.2076C16.4908 12.0937 16.618 11.9874 16.7514 11.8891L16.9729 11.7368M12.8187 13.6339L8.09677 8.91195L7.64673 8.46191L7.68827 8.32344H14.9651L14.3212 9.9228L12.8187 13.6339ZM14.3142 13.9939H13.6634L14.3142 12.3876L15.699 9.0158L16.0382 9.70817L16.6129 10.899C16.4115 11.0233 16.2194 11.1621 16.0382 11.3145C15.2326 11.988 14.7089 12.9392 14.5704 13.9801L14.3142 13.9939ZM18.7385 17.885C18.0284 17.8895 17.336 17.6636 16.7652 17.2411C16.6319 17.1404 16.5047 17.0318 16.3844 16.9157C16.2484 16.7756 16.1234 16.6251 16.0105 16.4657C15.7032 16.0159 15.5107 15.4977 15.4497 14.9563H18.8215C18.8995 14.9572 18.9764 14.938 19.0449 14.9008C19.1134 14.8635 19.1712 14.8093 19.2128 14.7434C19.2545 14.6775 19.2786 14.602 19.2828 14.5241C19.287 14.4463 19.2712 14.3686 19.237 14.2986L17.8522 11.4114C18.1497 11.3278 18.4572 11.2859 18.7662 11.2868C19.6476 11.2868 20.4929 11.6369 21.1161 12.2602C21.7394 12.8834 22.0895 13.7287 22.0895 14.6101C22.0895 15.4915 21.7394 16.3369 21.1161 16.9601C20.4929 17.5834 19.6476 17.9335 18.7662 17.9335" fill="#231F20"/>
</svg>
