<svg width="24" height="24" viewBox="0 0 24 24" fill="none" xmlns="http://www.w3.org/2000/svg">
<path d="M13.1522 4.64594C13.5123 4.67502 13.8729 4.59665 14.1884 4.42074C14.5039 4.24484 14.7601 3.9793 14.9247 3.65773C15.0892 3.33616 15.1547 2.973 15.1128 2.61421C15.0709 2.25541 14.9236 1.91711 14.6894 1.64209C14.4552 1.36707 14.1446 1.1677 13.7971 1.0692C13.4496 0.970694 13.0806 0.977491 12.7369 1.08873C12.3933 1.19996 12.0903 1.41064 11.8664 1.69409C11.6425 1.97755 11.5077 2.32106 11.479 2.68115C11.4407 3.16351 11.5953 3.64138 11.909 4.00978C12.2228 4.37818 12.6699 4.60699 13.1522 4.64594Z" fill="#231F20"/>
<path d="M11.5831 5.38882C11.7921 5.22982 12.0324 5.11687 12.2882 5.0574C12.5441 4.99794 12.8096 4.9933 13.0673 5.0438C13.325 5.09429 13.5691 5.19878 13.7836 5.35038C13.9981 5.50199 14.178 5.69728 14.3116 5.9234L16.1514 9.56833L18.6577 11.2971C18.8002 11.4038 18.9041 11.5541 18.9536 11.7252C19.0031 11.8963 18.9954 12.0788 18.9319 12.2452C18.8683 12.4115 18.7523 12.5527 18.6013 12.6472C18.4504 12.7417 18.2728 12.7844 18.0953 12.7689C17.9638 12.7505 17.8367 12.7081 17.7204 12.6439L14.985 10.7625C14.9013 10.6949 14.8307 10.6125 14.7767 10.5195L14.0825 9.13094L13.2632 12.762L16.4985 16.5805C16.5685 16.701 16.6177 16.8324 16.6443 16.9693L17.5191 21.5862C17.5191 21.6903 17.5191 21.7528 17.5191 21.8361C17.4908 22.1628 17.3351 22.4653 17.0857 22.6783C16.8364 22.8913 16.5132 22.9978 16.1861 22.9747C15.9213 22.9467 15.6719 22.8366 15.4727 22.6598C15.2735 22.483 15.1346 22.2484 15.0753 21.9888L14.2491 17.6705L11.6247 14.7962L11.0138 17.5733C10.9514 17.7549 10.87 17.9295 10.7708 18.094L8.29223 22.4054C8.14993 22.6399 7.93367 22.8203 7.67752 22.9183C7.42137 23.0164 7.13989 23.0264 6.87741 22.9469C6.61493 22.8673 6.38637 22.7027 6.22772 22.479C6.06908 22.2553 5.98937 21.9851 6.00114 21.7111C6.02834 21.5275 6.08459 21.3494 6.16776 21.1835L8.5144 17.247L10.4306 8.51998L9.15313 9.55444L8.45886 12.637C8.43161 12.8449 8.3288 13.0356 8.17004 13.1726C8.01127 13.3096 7.80764 13.3834 7.59796 13.3799C7.38115 13.3621 7.18008 13.2596 7.0384 13.0945C6.89672 12.9294 6.82586 12.7151 6.84121 12.4982C6.8374 12.4612 6.8374 12.424 6.84121 12.3871L7.64656 8.79074C7.69342 8.63706 7.77957 8.49826 7.8965 8.38807L11.5831 5.38882Z" fill="#231F20"/>
</svg>
