<svg width="24" height="24" viewBox="0 0 24 24" fill="none" xmlns="http://www.w3.org/2000/svg">
<path d="M17.341 4.21027C20.3594 7.22136 20.5453 12.043 17.7676 15.2765L11.9919 22L6.21626 15.2765C3.43861 12.043 3.62451 7.22136 6.64292 4.21027C9.5971 1.26324 14.3868 1.26324 17.341 4.21027Z" fill="#B91818"/>
<path fill-rule="evenodd" clip-rule="evenodd" d="M13.9028 13.488L13.4019 11.8435H10.8833L10.3825 13.488H8.8042L11.2425 6.55121H13.0333L15.4811 13.488H13.9028ZM13.0522 10.615C12.5892 9.12492 12.3285 8.28225 12.2702 8.08693C12.2119 7.89162 12.1702 7.73726 12.145 7.62385C12.041 8.02708 11.7433 9.02411 11.2519 10.615H13.0522Z" fill="white"/>
</svg>
