<svg width="25" height="25" viewBox="0 0 25 25" fill="none" xmlns="http://www.w3.org/2000/svg">
<path d="M24.1892 3.07962C23.9604 1.92885 23.2215 1.46462 22.1231 1.00692C20.3111 0.386283 18.4148 0.0467081 16.5 0C14.5852 0.0467081 12.6889 0.386283 10.8769 1.00692C9.77192 1.46462 9.03962 1.92885 8.81077 3.07962L8 9.45462V18.2358H9.42538V19.6154C9.42538 19.7768 9.45718 19.9367 9.51895 20.0858C9.58073 20.2349 9.67127 20.3704 9.78542 20.4846C9.89956 20.5987 10.0351 20.6893 10.1842 20.751C10.3333 20.8128 10.4932 20.8446 10.6546 20.8446C10.816 20.8446 10.9759 20.8128 11.125 20.751C11.2742 20.6893 11.4097 20.5987 11.5238 20.4846C11.638 20.3704 11.7285 20.2349 11.7903 20.0858C11.8521 19.9367 11.8838 19.7768 11.8838 19.6154V18.2358H21.1358V19.6154C21.1358 19.9414 21.2653 20.2541 21.4958 20.4846C21.7263 20.7151 22.039 20.8446 22.365 20.8446C22.691 20.8446 23.0037 20.7151 23.2342 20.4846C23.4647 20.2541 23.5942 19.9414 23.5942 19.6154V18.2358H25V9.45462L24.1892 3.07962ZM12.9954 1.60846H20.0046C20.1416 1.60846 20.273 1.66288 20.3699 1.75975C20.4667 1.85662 20.5212 1.98801 20.5212 2.125C20.5212 2.262 20.4667 2.39338 20.3699 2.49025C20.273 2.58712 20.1416 2.64154 20.0046 2.64154H12.9954C12.8584 2.64154 12.727 2.58712 12.6301 2.49025C12.5333 2.39338 12.4788 2.262 12.4788 2.125C12.4788 1.98801 12.5333 1.85662 12.6301 1.75975C12.727 1.66288 12.8584 1.60846 12.9954 1.60846ZM10.6154 15.4831C10.381 15.4831 10.152 15.4135 9.95721 15.2832C9.76246 15.1528 9.61077 14.9676 9.5214 14.751C9.43202 14.5344 9.40897 14.2961 9.45516 14.0663C9.50136 13.8366 9.61473 13.6257 9.78089 13.4605C9.94706 13.2952 10.1585 13.183 10.3885 13.1381C10.6185 13.0932 10.8567 13.1176 11.0728 13.2081C11.289 13.2987 11.4733 13.4514 11.6026 13.6469C11.7318 13.8424 11.8001 14.0718 11.7988 14.3062C11.7971 14.6189 11.6717 14.9182 11.4499 15.1388C11.2282 15.3593 10.9281 15.4831 10.6154 15.4831ZM16.3954 10.1281H10.1642C9.54962 10.1281 9.42538 9.68346 9.51038 9.23885L10.1642 4.62269C10.2558 4.05385 10.4454 3.68769 11.1712 3.68769H21.8681C22.5938 3.68769 22.7835 4.05385 22.875 4.62269L23.5288 9.23885C23.5877 9.68346 23.4635 10.1281 22.875 10.1281H16.3954ZM22.3846 15.4831C22.15 15.4844 21.9203 15.4159 21.7247 15.2864C21.5291 15.1568 21.3764 14.9721 21.286 14.7555C21.1956 14.539 21.1716 14.3005 21.2171 14.0704C21.2625 13.8402 21.3754 13.6287 21.5413 13.4628C21.7072 13.2969 21.9186 13.1841 22.1488 13.1386C22.379 13.0931 22.6175 13.1171 22.834 13.2075C23.0505 13.2979 23.2353 13.4506 23.3648 13.6462C23.4944 13.8418 23.5628 14.0715 23.5615 14.3062C23.5598 14.6178 23.4353 14.9161 23.2149 15.1365C22.9946 15.3568 22.6962 15.4814 22.3846 15.4831Z" fill="#B60101"/>
<path d="M15.1231 4.00692C16.2215 4.46462 16.9604 4.92885 17.1892 6.07962L18 12.4546V21.2358H16.5942V22.6154C16.5942 22.9414 16.4647 23.2541 16.2342 23.4846C16.0037 23.7151 15.691 23.8446 15.365 23.8446C15.039 23.8446 14.7263 23.7151 14.4958 23.4846C14.2653 23.2541 14.1358 22.9414 14.1358 22.6154V21.2358H4.88385V22.6154C4.88385 22.7768 4.85205 22.9367 4.79028 23.0858C4.7285 23.2349 4.63796 23.3704 4.52381 23.4846C4.40967 23.5987 4.27416 23.6893 4.12502 23.751C3.97588 23.8128 3.81604 23.8446 3.65462 23.8446C3.49319 23.8446 3.33335 23.8128 3.18421 23.751C3.03507 23.6893 2.89956 23.5987 2.78542 23.4846C2.67127 23.3704 2.58073 23.2349 2.51895 23.0858C2.45718 22.9367 2.42538 22.7768 2.42538 22.6154V21.2358H1V12.4546L1.81077 6.07962C2.03962 4.92885 2.77192 4.46462 3.87692 4.00692C5.68891 3.38628 7.58524 3.04671 9.5 3C11.4148 3.04671 13.3111 3.38628 15.1231 4.00692Z" fill="#9E0000"/>
<path fill-rule="evenodd" clip-rule="evenodd" d="M18.1768 5.91911L19 12.3916V22.2361H17.5942V22.6157C17.5942 23.2069 17.3594 23.7739 16.9413 24.192C16.5232 24.6101 15.9562 24.8449 15.365 24.8449C14.7738 24.8449 14.2068 24.6101 13.7887 24.192C13.3706 23.7739 13.1358 23.2069 13.1358 22.6157V22.2361H5.88385V22.6157C5.88385 22.9084 5.82619 23.1983 5.71416 23.4688C5.60213 23.7392 5.43792 23.985 5.23092 24.192C5.02391 24.399 4.77816 24.5632 4.50771 24.6752C4.23724 24.7873 3.94736 24.8449 3.65462 24.8449C3.36187 24.8449 3.07199 24.7873 2.80152 24.6752C2.53107 24.5632 2.28532 24.399 2.07831 24.192C1.87131 23.985 1.7071 23.7392 1.59507 23.4688C1.48305 23.1983 1.42538 22.9084 1.42538 22.6157V22.2361H0V12.3916L0.823165 5.91911L0.829975 5.88487C0.983998 5.11035 1.32661 4.5115 1.84365 4.04278C2.32791 3.60378 2.92262 3.32011 3.49425 3.08334L3.52322 3.07134L3.55288 3.06118C5.46143 2.40746 7.45881 2.04979 9.47561 2.00059L9.5 2L9.52439 2.00059C11.5412 2.04979 13.5386 2.40746 15.4471 3.06118L15.4778 3.07168L15.5077 3.08414C16.0751 3.32056 16.6688 3.60405 17.153 4.042C17.6701 4.50964 18.0156 5.1082 18.17 5.88487L18.1768 5.91911ZM18 12.4549V21.2361H16.5942V22.6157C16.5942 22.9417 16.4647 23.2544 16.2342 23.4849C16.0037 23.7154 15.691 23.8449 15.365 23.8449C15.039 23.8449 14.7263 23.7154 14.4958 23.4849C14.2653 23.2544 14.1358 22.9417 14.1358 22.6157V21.2361H4.88385V22.6157C4.88385 22.7771 4.85205 22.937 4.79028 23.0861C4.7285 23.2352 4.63796 23.3707 4.52381 23.4849C4.40967 23.599 4.27416 23.6896 4.12502 23.7513C3.97588 23.8131 3.81604 23.8449 3.65462 23.8449C3.49319 23.8449 3.33335 23.8131 3.18421 23.7513C3.03507 23.6896 2.89956 23.599 2.78542 23.4849C2.67127 23.3707 2.58073 23.2352 2.51895 23.0861C2.45718 22.937 2.42538 22.7771 2.42538 22.6157V21.2361H1V12.4549L1.81077 6.07991C2.03962 4.92914 2.77192 4.46491 3.87692 4.00722C5.68891 3.38658 7.58524 3.04701 9.5 3.0003C11.4148 3.04701 13.3111 3.38658 15.1231 4.00722C16.2215 4.46491 16.9604 4.92914 17.1892 6.07991L18 12.4549Z" fill="white"/>
<circle cx="4.23684" cy="17.7632" r="2.23684" fill="white"/>
<circle cx="14.8687" cy="17.7642" r="2.23684" fill="white"/>
<rect x="2.78906" y="3.89453" width="11.6316" height="1.78947" fill="white"/>
<rect x="1" y="6.5791" width="16.1053" height="7.15789" fill="white"/>
<path d="M17.1892 6.07962C16.9604 4.92885 16.2215 4.46462 15.1231 4.00692C13.3111 3.38628 11.4148 3.04671 9.5 3C7.58524 3.04671 5.68891 3.38628 3.87692 4.00692C2.77192 4.46462 2.03962 4.92885 1.81077 6.07962L1 12.4546V21.2358H2.42538V22.6154C2.42538 22.7768 2.45718 22.9367 2.51895 23.0858C2.58073 23.2349 2.67127 23.3704 2.78542 23.4846C2.89956 23.5987 3.03507 23.6893 3.18421 23.751C3.33335 23.8128 3.49319 23.8446 3.65462 23.8446C3.81604 23.8446 3.97588 23.8128 4.12502 23.751C4.27416 23.6893 4.40967 23.5987 4.52381 23.4846C4.63796 23.3704 4.7285 23.2349 4.79028 23.0858C4.85205 22.9367 4.88385 22.7768 4.88385 22.6154V21.2358H14.1358V22.6154C14.1358 22.9414 14.2653 23.2541 14.4958 23.4846C14.7263 23.7151 15.039 23.8446 15.365 23.8446C15.691 23.8446 16.0037 23.7151 16.2342 23.4846C16.4647 23.2541 16.5942 22.9414 16.5942 22.6154V21.2358H18V12.4546L17.1892 6.07962ZM5.99538 4.60846H13.0046C13.1416 4.60846 13.273 4.66288 13.3699 4.75975C13.4667 4.85662 13.5212 4.98801 13.5212 5.125C13.5212 5.262 13.4667 5.39338 13.3699 5.49025C13.273 5.58712 13.1416 5.64154 13.0046 5.64154H5.99538C5.85839 5.64154 5.72701 5.58712 5.63014 5.49025C5.53327 5.39338 5.47885 5.262 5.47885 5.125C5.47885 4.98801 5.53327 4.85662 5.63014 4.75975C5.72701 4.66288 5.85839 4.60846 5.99538 4.60846ZM3.61538 18.4831C3.38104 18.4831 3.15197 18.4135 2.95721 18.2832C2.76246 18.1528 2.61077 17.9676 2.5214 17.751C2.43202 17.5344 2.40897 17.2961 2.45516 17.0663C2.50136 16.8366 2.61473 16.6257 2.78089 16.4605C2.94706 16.2952 3.15854 16.183 3.38854 16.1381C3.61853 16.0932 3.85669 16.1176 4.07282 16.2081C4.28896 16.2987 4.47333 16.4514 4.60258 16.6469C4.73183 16.8424 4.80014 17.0718 4.79885 17.3062C4.79712 17.6189 4.67167 17.9182 4.44991 18.1388C4.22816 18.3593 3.92813 18.4831 3.61538 18.4831ZM9.39538 13.1281H3.16423C2.54962 13.1281 2.42538 12.6835 2.51038 12.2388L3.16423 7.62269C3.25577 7.05385 3.44538 6.68769 4.17115 6.68769H14.8681C15.5938 6.68769 15.7835 7.05385 15.875 7.62269L16.5288 12.2388C16.5877 12.6835 16.4635 13.1281 15.875 13.1281H9.39538ZM15.3846 18.4831C15.15 18.4844 14.9203 18.4159 14.7247 18.2864C14.5291 18.1568 14.3764 17.9721 14.286 17.7555C14.1956 17.539 14.1716 17.3005 14.2171 17.0704C14.2625 16.8402 14.3754 16.6287 14.5413 16.4628C14.7072 16.2969 14.9186 16.1841 15.1488 16.1386C15.379 16.0931 15.6175 16.1171 15.834 16.2075C16.0505 16.2979 16.2353 16.4506 16.3648 16.6462C16.4944 16.8418 16.5628 17.0715 16.5615 17.3062C16.5598 17.6178 16.4353 17.9161 16.2149 18.1365C15.9946 18.3568 15.6962 18.4814 15.3846 18.4831Z" fill="#B60101"/>
</svg>
