<svg width="25" height="26" viewBox="0 0 25 26" fill="none" xmlns="http://www.w3.org/2000/svg">
<path d="M22.7819 1.98924C25.4984 4.69923 25.6657 9.0387 23.1659 11.9488L17.9677 18L12.7696 11.9488C10.2697 9.0387 10.4371 4.69923 13.1536 1.98924C15.8124 -0.66308 20.1231 -0.66308 22.7819 1.98924Z" fill="#B60101"/>
<path fill-rule="evenodd" clip-rule="evenodd" d="M19.6875 10.3392L19.2367 8.85919H16.97L16.5192 10.3392H15.0988L17.2932 4.09609H18.905L21.1079 10.3392H19.6875ZM18.922 7.75347C18.5052 6.41242 18.2706 5.65402 18.2182 5.47824C18.1657 5.30246 18.1282 5.16353 18.1055 5.06147C18.0119 5.42437 17.744 6.3217 17.3017 7.75347H18.922Z" fill="#B60101"/>
<path d="M16.0693 10.8003V4.25488H18.6901C19.1716 4.25488 19.5732 4.32626 19.895 4.46902C20.2167 4.61177 20.4585 4.80993 20.6205 5.06348C20.7824 5.3149 20.8634 5.60467 20.8634 5.9328C20.8634 6.18848 20.8122 6.41326 20.71 6.60716C20.6077 6.79892 20.4671 6.95659 20.2881 7.08017C20.1112 7.20162 19.9088 7.28791 19.6808 7.33904V7.40297C19.9301 7.41362 20.1634 7.48393 20.3808 7.6139C20.6002 7.74387 20.7781 7.92605 20.9145 8.16042C21.0509 8.39267 21.1191 8.66966 21.1191 8.99139C21.1191 9.33869 21.0328 9.6487 20.8602 9.92143C20.6897 10.192 20.4372 10.4062 20.1027 10.5638C19.7682 10.7215 19.3559 10.8003 18.8659 10.8003H16.0693ZM17.4532 9.66895H18.5814C18.9671 9.66895 19.2483 9.59544 19.4252 9.44842C19.602 9.29927 19.6904 9.10112 19.6904 8.85396C19.6904 8.67285 19.6468 8.51305 19.5594 8.37456C19.472 8.23606 19.3474 8.1274 19.1855 8.04856C19.0257 7.96973 18.835 7.93031 18.6134 7.93031H17.4532V9.66895ZM17.4532 6.99387H18.4791C18.6688 6.99387 18.8371 6.96085 18.9841 6.8948C19.1333 6.82662 19.2504 6.73074 19.3357 6.60716C19.423 6.48358 19.4667 6.33549 19.4667 6.16291C19.4667 5.9264 19.3825 5.73571 19.2142 5.59082C19.048 5.44593 18.8115 5.37349 18.5047 5.37349H17.4532V6.99387Z" fill="white"/>
<path d="M7.58847 24.3258L7.96774 24.7673L8.34702 24.3258L13.5451 18.2746C16.2156 15.1659 16.0368 10.53 13.135 7.63526C10.2811 4.78825 5.65443 4.78825 2.8005 7.63526C-0.101291 10.53 -0.280112 15.1659 2.39036 18.2746L7.58847 24.3258Z" fill="#B60101" stroke="white"/>
<path fill-rule="evenodd" clip-rule="evenodd" d="M9.68835 16.3388L9.23756 14.8588H6.97083L6.52004 16.3388H5.09961L7.29404 10.0957H8.90584L11.1088 16.3388H9.68835ZM8.92285 13.7531C8.50608 12.412 8.27147 11.6536 8.21902 11.4779C8.16657 11.3021 8.129 11.1631 8.10632 11.0611C8.01276 11.424 7.74484 12.3213 7.30255 13.7531H8.92285Z" fill="white"/>
</svg>
