<svg width="24" height="24" viewBox="0 0 24 24" fill="none" xmlns="http://www.w3.org/2000/svg">
<path d="M21.0938 3.44192C20.8381 2.15577 20.0123 1.63692 18.7846 1.12539C16.7595 0.431728 14.64 0.0522032 12.5 0C10.36 0.0522032 8.24055 0.431728 6.21538 1.12539C4.98038 1.63692 4.16192 2.15577 3.90615 3.44192L3 10.5669V20.3812H4.59308V21.9231C4.59308 22.1035 4.62861 22.2821 4.69765 22.4488C4.7667 22.6155 4.86789 22.767 4.99547 22.8945C5.12304 23.0221 5.27449 23.1233 5.44117 23.1923C5.60786 23.2614 5.78651 23.2969 5.96692 23.2969C6.14734 23.2969 6.32599 23.2614 6.49267 23.1923C6.65935 23.1233 6.81081 23.0221 6.93838 22.8945C7.06595 22.767 7.16715 22.6155 7.23619 22.4488C7.30523 22.2821 7.34077 22.1035 7.34077 21.9231V20.3812H17.6812V21.9231C17.6812 22.2874 17.8259 22.6369 18.0835 22.8945C18.3412 23.1522 18.6906 23.2969 19.055 23.2969C19.4194 23.2969 19.7688 23.1522 20.0265 22.8945C20.2841 22.6369 20.4288 22.2874 20.4288 21.9231V20.3812H22V10.5669L21.0938 3.44192ZM8.58308 1.79769H16.4169C16.57 1.79769 16.7169 1.85852 16.8251 1.96678C16.9334 2.07505 16.9942 2.22189 16.9942 2.375C16.9942 2.52811 16.9334 2.67495 16.8251 2.78322C16.7169 2.89148 16.57 2.95231 16.4169 2.95231H8.58308C8.42996 2.95231 8.28313 2.89148 8.17486 2.78322C8.06659 2.67495 8.00577 2.52811 8.00577 2.375C8.00577 2.22189 8.06659 2.07505 8.17486 1.96678C8.28313 1.85852 8.42996 1.79769 8.58308 1.79769ZM5.92308 17.3046C5.66116 17.3046 5.40515 17.2269 5.18747 17.0812C4.9698 16.9355 4.80028 16.7285 4.70038 16.4864C4.60049 16.2443 4.57473 15.978 4.62636 15.7212C4.67799 15.4644 4.80469 15.2287 4.99041 15.0441C5.17612 14.8594 5.41248 14.734 5.66954 14.6838C5.9266 14.6336 6.19277 14.6608 6.43433 14.762C6.67589 14.8633 6.88196 15.0339 7.02642 15.2524C7.17087 15.4709 7.24722 15.7273 7.24577 15.9892C7.24384 16.3388 7.10363 16.6733 6.85579 16.9198C6.60794 17.1663 6.27261 17.3046 5.92308 17.3046ZM12.3831 11.3196H5.41885C4.73192 11.3196 4.59308 10.8227 4.68808 10.3258L5.41885 5.16654C5.52115 4.53077 5.73308 4.12154 6.54423 4.12154H18.4996C19.3108 4.12154 19.5227 4.53077 19.625 5.16654L20.3558 10.3258C20.4215 10.8227 20.2827 11.3196 19.625 11.3196H12.3831ZM19.0769 17.3046C18.8147 17.3061 18.558 17.2295 18.3393 17.0848C18.1207 16.94 17.95 16.7335 17.849 16.4915C17.748 16.2495 17.7212 15.9829 17.772 15.7257C17.8228 15.4684 17.9489 15.2321 18.1344 15.0467C18.3198 14.8612 18.5561 14.7351 18.8134 14.6843C19.0706 14.6335 19.3372 14.6603 19.5792 14.7613C19.8212 14.8624 20.0277 15.033 20.1724 15.2516C20.3172 15.4703 20.3938 15.727 20.3923 15.9892C20.3904 16.3375 20.2512 16.671 20.0049 16.9172C19.7587 17.1635 19.4252 17.3027 19.0769 17.3046Z" fill="#B60101"/>
</svg>
